<?xml version="1.0" encoding="UTF-8" standalone="no"?>
<!-- Created with Inkscape (http://www.inkscape.org/) -->
<svg
   xmlns:dc="http://purl.org/dc/elements/1.1/"
   xmlns:cc="http://web.resource.org/cc/"
   xmlns:rdf="http://www.w3.org/1999/02/22-rdf-syntax-ns#"
   xmlns:svg="http://www.w3.org/2000/svg"
   xmlns="http://www.w3.org/2000/svg"
   xmlns:sodipodi="http://inkscape.sourceforge.net/DTD/sodipodi-0.dtd"
   xmlns:inkscape="http://www.inkscape.org/namespaces/inkscape"
   width="210mm"
   height="297mm"
   id="svg2"
   sodipodi:version="0.32"
   inkscape:version="0.43"
   sodipodi:docbase="/home/inigo/imagen/propias/balea"
   sodipodi:docname="balea002.svg">
  <defs
     id="defs4" />
  <sodipodi:namedview
     id="base"
     pagecolor="#ffffff"
     bordercolor="#666666"
     borderopacity="1.0"
     inkscape:pageopacity="0.0"
     inkscape:pageshadow="2"
     inkscape:zoom="0.66230018"
     inkscape:cx="407.37557"
     inkscape:cy="553.35294"
     inkscape:document-units="px"
     inkscape:current-layer="layer3"
     inkscape:window-width="1280"
     inkscape:window-height="979"
     inkscape:window-x="0"
     inkscape:window-y="24" />
  <metadata
     id="metadata7">
    <rdf:RDF>
      <cc:Work
         rdf:about="">
        <dc:format>image/svg+xml</dc:format>
        <dc:type
           rdf:resource="http://purl.org/dc/dcmitype/StillImage" />
      </cc:Work>
    </rdf:RDF>
  </metadata>
  <g
     inkscape:label="Capa 1"
     inkscape:groupmode="layer"
     id="layer1" />
  <g
     inkscape:groupmode="layer"
     id="layer3"
     inkscape:label="vectores"
     style="display:inline">
    <g
       id="g1480"
       transform="translate(15.09889,3.019779)"
       style="fill:none;fill-opacity:1;fill-rule:nonzero;stroke:#000000;stroke-width:3;stroke-linecap:round;stroke-linejoin:round;stroke-miterlimit:4;stroke-dasharray:none;stroke-opacity:1"
       inkscape:export-filename="/home/inigo/imagen/propias/balea/balea002.png"
       inkscape:export-xdpi="90"
       inkscape:export-ydpi="90">
      <path
         sodipodi:nodetypes="cssssc"
         id="path1411"
         d="M 354.72747,297.13596 C 340.07401,266.1928 365.30323,237.77864 378.7574,238.77756 C 406.77216,240.85754 414.6797,267.06591 407.36445,282.26029 C 396.5255,304.77367 377.36092,295.78595 375.32455,283.40457 C 372.33578,265.23246 390.37139,256.64951 395.92163,270.81747 C 397.50171,274.8509 398.21019,282.86828 393.63306,291.41454"
         style="fill:none;fill-opacity:1;fill-rule:nonzero;stroke:#000000;stroke-width:3;stroke-linecap:round;stroke-linejoin:round;stroke-miterlimit:4;stroke-dasharray:none;stroke-opacity:1" />
      <path
         sodipodi:nodetypes="cssscc"
         id="path1417"
         d="M 490.89705,401.26563 C 502.33987,453.90261 482.88707,474.49969 474.8771,507.68387 C 461.7099,562.23374 485.96476,568.94688 502.33987,569.47511 C 537.81262,570.6194 557.01726,516.61316 565.27539,469.92256 C 578.21131,396.78426 564.13111,381.81284 564.13111,381.81284 L 564.13111,381.81284"
         style="fill:none;fill-opacity:1;fill-rule:nonzero;stroke:#000000;stroke-width:3;stroke-linecap:round;stroke-linejoin:round;stroke-miterlimit:4;stroke-dasharray:none;stroke-opacity:1" />
      <path
         sodipodi:nodetypes="csssc"
         id="path1419"
         d="M 342.58323,466.48972 C 334.57325,501.96246 339.15039,529.42523 342.58323,547.73375 C 351.33148,594.39117 365.46888,599.22645 381.48883,599.22645 C 397.50878,599.22645 406.79969,577.39953 408.9516,558.03229 C 412.38444,527.13667 407.80732,493.95248 407.80732,493.95248"
         style="fill:none;fill-opacity:1;fill-rule:nonzero;stroke:#000000;stroke-width:3;stroke-linecap:round;stroke-linejoin:round;stroke-miterlimit:4;stroke-dasharray:none;stroke-opacity:1;display:inline" />
      <path
         sodipodi:nodetypes="csss"
         id="path1444"
         d="M 335.27467,468.41317 C 340.99608,440.95039 343.16072,423.2088 367.31457,405.47765 C 387.09467,390.95723 415.83587,394.76638 443.98147,420.35331 C 456.56857,431.79614 477.16566,461.54747 482.88707,485.5774"
         style="fill:none;fill-opacity:1;fill-rule:nonzero;stroke:#000000;stroke-width:3;stroke-linecap:round;stroke-linejoin:round;stroke-miterlimit:4;stroke-dasharray:none;stroke-opacity:1;display:inline" />
      <path
         sodipodi:nodetypes="csss"
         id="path1450"
         d="M 429.10581,682.75904 C 434.82723,696.49043 433.68294,699.92328 443.98148,701.06756 C 454.28002,702.21184 478.30994,688.48045 486.31992,670.17194 C 494.32989,651.86343 508.06128,611.81355 504.62843,569.47511"
         style="fill:none;fill-opacity:1;fill-rule:nonzero;stroke:#000000;stroke-width:3;stroke-linecap:round;stroke-linejoin:round;stroke-miterlimit:4;stroke-dasharray:none;stroke-opacity:1" />
      <g
         id="g1474"
         style="fill:none;fill-opacity:1;fill-rule:nonzero;stroke:#000000;stroke-width:3;stroke-linecap:round;stroke-linejoin:round;stroke-miterlimit:4;stroke-dasharray:none;stroke-opacity:1">
        <g
           id="g1470"
           style="fill:none;fill-opacity:1;fill-rule:nonzero;stroke:#000000;stroke-width:3;stroke-linecap:round;stroke-linejoin:round;stroke-miterlimit:4;stroke-dasharray:none;stroke-opacity:1">
          <path
             sodipodi:nodetypes="csssssssssscsssssss"
             id="path1409"
             d="M 313.53331,355.49435 C 276.63081,416.27845 188.9587,467.28101 164.77663,459.62402 C 132.09432,449.27552 94.672164,421.94167 96.119702,347.48437 C 97.3755,282.88967 125.60185,252.19123 169.35376,210.17051 C 216.54982,164.89208 299.70759,142.70725 334.13039,140.3693 C 441.67907,133.06475 534.71171,188.1848 565.27538,274.25031 C 595.99682,360.76008 602.35884,445.21351 589.30531,506.53959 C 574.50945,576.05121 517.66766,713.21641 511.49413,729.67461 C 505.69985,745.12175 510.23578,751.8091 525.22552,757.13738 C 552.1601,766.71159 618.49277,812.46439 622.4895,837.23714 C 624.28496,848.36588 586.07758,844.10283 581.29534,844.10283 C 575.35101,844.10283 490.97659,842.30174 440.54863,806.34151 C 422.02234,837.73842 338.73949,846.7709 306.66762,848.67996 C 290.43744,849.64605 267.04182,850.26026 265.47346,832.66001 C 262.62278,800.66948 364.06033,762.91061 401.64304,739.97316 C 425.91182,725.16146 429.07159,690.0208 430.25009,674.74907 C 439.61579,553.38301 422.58563,459.80787 354.72747,464.20115 C 324.20583,466.17719 271.6629,500.18142 230.00072,493.95249 C 202.54387,489.8474 204.77665,479.27625 209.40363,447.03692"
             style="fill:none;fill-opacity:1;fill-rule:nonzero;stroke:#000000;stroke-width:3;stroke-linecap:round;stroke-linejoin:round;stroke-miterlimit:4;stroke-dasharray:none;stroke-opacity:1" />
          <path
             sodipodi:nodetypes="cs"
             id="path1447"
             d="M 506.91699,191.862 C 510.34984,235.34472 532.0912,244.49898 541.24546,246.78754"
             style="fill:none;fill-opacity:1;fill-rule:nonzero;stroke:#000000;stroke-width:3;stroke-linecap:round;stroke-linejoin:round;stroke-miterlimit:4;stroke-dasharray:none;stroke-opacity:1;display:inline" />
        </g>
        <path
           style="fill:none;fill-opacity:1;fill-rule:nonzero;stroke:#000000;stroke-width:3;stroke-linecap:round;stroke-linejoin:round;stroke-miterlimit:4;stroke-dasharray:none;stroke-opacity:1"
           d="M 211.6922,487.08679 C 242.58782,497.38534 266.61775,471.06685 281.49341,439.02694 C 305.70707,386.8744 314.67759,355.49435 314.67759,355.49435"
           id="path1468"
           sodipodi:nodetypes="csc" />
      </g>
    </g>
  </g>
</svg>
