<?xml version="1.0" encoding="UTF-8" standalone="no"?>
<!-- Created with Inkscape (http://www.inkscape.org/) -->
<svg
   xmlns:dc="http://purl.org/dc/elements/1.1/"
   xmlns:cc="http://web.resource.org/cc/"
   xmlns:rdf="http://www.w3.org/1999/02/22-rdf-syntax-ns#"
   xmlns:svg="http://www.w3.org/2000/svg"
   xmlns="http://www.w3.org/2000/svg"
   xmlns:xlink="http://www.w3.org/1999/xlink"
   xmlns:sodipodi="http://sodipodi.sourceforge.net/DTD/sodipodi-0.dtd"
   xmlns:inkscape="http://www.inkscape.org/namespaces/inkscape"
   width="210mm"
   height="297mm"
   id="svg2"
   sodipodi:version="0.32"
   inkscape:version="0.45.1"
   sodipodi:docbase="/home/inigo/documentos/itsas/balea"
   sodipodi:docname="itsas_balea0.6svg(inkscape0.45.1).svg"
   inkscape:output_extension="org.inkscape.output.svg.inkscape">
  <defs
     id="defs4">
    <linearGradient
       id="linearGradient6050">
      <stop
         style="stop-color:#3d5de7;stop-opacity:1;"
         offset="0"
         id="stop6052" />
      <stop
         id="stop6058"
         offset="0.5"
         style="stop-color:#97d7f3;stop-opacity:1;" />
      <stop
         style="stop-color:#fdffff;stop-opacity:1;"
         offset="1"
         id="stop6054" />
    </linearGradient>
    <filter
       inkscape:collect="always"
       id="filter5077">
      <feGaussianBlur
         inkscape:collect="always"
         stdDeviation="1.0865752"
         id="feGaussianBlur5079" />
    </filter>
    <linearGradient
       inkscape:collect="always"
       xlink:href="#linearGradient6050"
       id="linearGradient6056"
       x1="365.98938"
       y1="673.30103"
       x2="366.61932"
       y2="380.19321"
       gradientUnits="userSpaceOnUse" />
  </defs>
  <sodipodi:namedview
     id="base"
     pagecolor="#ffffff"
     bordercolor="#666666"
     borderopacity="1.0"
     inkscape:pageopacity="0.0"
     inkscape:pageshadow="2"
     inkscape:zoom="1.2188967"
     inkscape:cx="384.03033"
     inkscape:cy="545.88588"
     inkscape:document-units="px"
     inkscape:current-layer="layer2"
     inkscape:window-width="1280"
     inkscape:window-height="915"
     inkscape:window-x="0"
     inkscape:window-y="44" />
  <metadata
     id="metadata7">
    <rdf:RDF>
      <cc:Work
         rdf:about="">
        <dc:format>image/svg+xml</dc:format>
        <dc:type
           rdf:resource="http://purl.org/dc/dcmitype/StillImage" />
      </cc:Work>
    </rdf:RDF>
  </metadata>
  <g
     inkscape:label="Capa 1"
     inkscape:groupmode="layer"
     id="layer1"
     style="display:none">
    <image
       id="image1347"
       height="375"
       width="642"
       sodipodi:absref="/home/inigo/documentos/itsas/balea/itsas_balea_0.1.png"
       xlink:href="itsas_balea_0.1.png"
       x="63.030331"
       y="262.0239" />
  </g>
  <g
     inkscape:groupmode="layer"
     id="layer2"
     inkscape:label="vectores"
     style="display:inline">
    <path
       style="fill:url(#linearGradient6056);fill-opacity:1.0;display:inline;stroke:#000000;stroke-opacity:1;stroke-width:0;stroke-miterlimit:4;stroke-dasharray:none;stroke-linejoin:round;stroke-linecap:round"
       d="M 493.72838,380.20749 C 467.07741,380.65508 438.14796,389.56004 409.16588,411.98874 C 390.87313,426.1222 349.37814,464.84475 381.79088,474.01999 C 404.05806,480.32329 422.0613,466.52113 473.79088,485.51999 C 574.70972,522.58473 579.50696,567.67911 577.57213,591.05124 C 575.6583,614.16985 551.27307,646.10667 536.18171,580.50457 C 512.11505,475.88684 356.23363,452.38257 273.7921,556.77709 C 265.66721,567.06552 253.07481,613.44384 285.17461,605.0904 C 322.21846,595.45036 325.32618,616.45435 267.48822,631.2289 C 224.76479,642.14248 153.30123,637.79418 159.19713,563.89499 C 164.05335,503.02711 199.44882,462.52084 192.47838,443.67624 C 187.19984,429.40571 144.40192,467.08399 112.38463,471.98874 C 62.593287,479.61632 115.08891,506.10327 150.97838,489.86374 C 181.68937,475.9674 113.38238,534.7233 128.85338,607.80124 C 141.36296,666.89077 222.49498,672.8475 295.50963,658.76999 C 370.9104,644.23243 365.3608,565.07607 330.47087,573.8954 C 304.97689,580.33965 312.32796,555.09219 325.72838,545.58249 C 386.67178,502.33359 477.89112,520.80141 485.25963,552.92624 C 491.10895,578.42799 462.48476,534.59195 414.78459,548.92624 C 375.79932,560.64164 356.94131,620.27478 360.57416,649.17787 C 364.39422,679.57036 592.87308,689.54497 635.54088,629.01999 C 659.82419,594.57378 655.65578,552.42232 634.57213,530.61374 C 540.15918,432.95457 410.46472,466.51012 434.50963,442.73874 C 474.30395,403.39712 544.62588,429.67718 576.63463,458.86374 C 617.78366,496.38469 647.27179,536.32983 633.47838,482.86374 C 622.31617,439.59671 558.04603,379.12734 493.72838,380.20749 z M 228.42461,426.1454 C 213.49148,429.32252 193.90052,484.58962 189.79088,498.89499 C 183.37111,521.24174 165.11337,572.96177 196.63463,600.86374 C 217.98986,619.76693 245.33989,616.57367 245.16595,603.23908 C 245.04246,593.77178 246.18405,575.49784 228.81083,575.25968 C 203.88364,574.91796 204.55946,536.99259 210.87793,518.95749 C 220.46918,491.5808 228.46646,473.81751 246.65624,468.30391 C 309.28017,449.32164 312.22599,419.01497 267.29088,432.95749 C 238.82226,441.79075 245.11069,422.59533 228.42461,426.1454 z M 490.19795,613.72494 C 495.9819,639.44832 467.95591,651.11035 438.92379,641.53785 C 410.10054,632.03422 416.68221,604.25534 431.89597,590.42891 C 447.10972,576.60248 483.4553,583.73792 490.19795,613.72494 z "
       id="path2258"
       sodipodi:nodetypes="ccsssssssssssssssssssssssccsssssssscsss"
       inkscape:export-filename="/home/inigo/documentos/itsas/balea/itsas_balea0.6_600.png"
       inkscape:export-xdpi="95.044937"
       inkscape:export-ydpi="95.044937" />
    <path
       style="fill:#ffffff;fill-opacity:0;stroke:#000000;stroke-width:8;stroke-linecap:round;stroke-linejoin:round;stroke-miterlimit:4;stroke-dasharray:none;stroke-opacity:1;display:inline;filter:url(#filter5077)"
       d="M 493.72838,380.20749 C 467.07741,380.65508 438.14796,389.56004 409.16588,411.98874 C 390.87313,426.1222 349.37814,464.84475 381.79088,474.01999 C 404.05806,480.32329 422.0613,466.52113 473.79088,485.51999 C 574.70972,522.58473 579.50696,567.67911 577.57213,591.05124 C 575.6583,614.16985 551.27307,646.10667 536.18171,580.50457 C 512.11505,475.88684 356.23363,452.38257 273.7921,556.77709 C 265.66721,567.06552 253.07481,613.44384 285.17461,605.0904 C 322.21846,595.45036 325.32618,616.45435 267.48822,631.2289 C 224.76479,642.14248 153.30123,637.79418 159.19713,563.89499 C 164.05335,503.02711 199.44882,462.52084 192.47838,443.67624 C 187.19984,429.40571 144.40192,467.08399 112.38463,471.98874 C 62.59328,479.61632 115.08891,506.10327 150.97838,489.86374 C 181.68937,475.9674 113.38238,534.7233 128.85338,607.80124 C 141.36296,666.89077 222.49498,672.8475 295.50963,658.76999 C 370.9104,644.23243 365.3608,565.07607 330.47087,573.8954 C 304.97689,580.33965 312.32796,555.09219 325.72838,545.58249 C 386.67178,502.33359 477.89112,520.80141 485.25963,552.92624 C 491.10895,578.42799 462.48476,534.59195 414.78459,548.92624 C 375.79932,560.64164 356.94131,620.27478 360.57416,649.17787 C 364.39422,679.57036 592.87308,689.54497 635.54088,629.01999 C 659.82419,594.57378 655.65578,552.42232 634.57213,530.61374 C 540.15918,432.95457 410.46472,466.51012 434.50963,442.73874 C 474.30395,403.39712 544.62588,429.67718 576.63463,458.86374 C 617.78366,496.38469 647.27179,536.32983 633.47838,482.86374 C 622.31617,439.59671 558.04603,379.12734 493.72838,380.20749 z M 228.42461,426.1454 C 213.49148,429.32252 193.90052,484.58962 189.79088,498.89499 C 183.37111,521.24174 165.11337,572.96177 196.63463,600.86374 C 217.98986,619.76693 245.33989,616.57367 245.16595,603.23908 C 245.04246,593.77178 246.18405,575.49784 228.81083,575.25968 C 203.88364,574.91796 204.55946,536.99259 210.87793,518.95749 C 220.46918,491.5808 228.46646,473.81751 246.65624,468.30391 C 309.28017,449.32164 312.22599,419.01497 267.29088,432.95749 C 238.82226,441.79075 245.11069,422.59533 228.42461,426.1454 z M 490.19795,613.72494 C 495.9819,639.44832 467.95591,651.11035 438.92379,641.53785 C 410.10054,632.03422 416.68221,604.25534 431.89597,590.42891 C 447.10972,576.60248 483.4553,583.73792 490.19795,613.72494 z "
       id="path4098"
       sodipodi:nodetypes="ccsssssssssssssssssssssssccsssssssscsss"
       inkscape:export-filename="/home/inigo/documentos/itsas/balea/itsas_balea0.6_600.png"
       inkscape:export-xdpi="95.044937"
       inkscape:export-ydpi="95.044937" />
  </g>
</svg>
