<?xml version="1.0" encoding="UTF-8" standalone="no"?>
<!-- Created with Inkscape (http://www.inkscape.org/) -->
<svg
   xmlns:dc="http://purl.org/dc/elements/1.1/"
   xmlns:cc="http://web.resource.org/cc/"
   xmlns:rdf="http://www.w3.org/1999/02/22-rdf-syntax-ns#"
   xmlns:svg="http://www.w3.org/2000/svg"
   xmlns="http://www.w3.org/2000/svg"
   xmlns:xlink="http://www.w3.org/1999/xlink"
   xmlns:sodipodi="http://sodipodi.sourceforge.net/DTD/sodipodi-0.dtd"
   xmlns:inkscape="http://www.inkscape.org/namespaces/inkscape"
   width="210mm"
   height="297mm"
   id="svg5001"
   sodipodi:version="0.32"
   inkscape:version="0.44.1"
   sodipodi:docbase="/home/inigo/Documents/varios/proyectos/inkscape/logo_itsas"
   sodipodi:docname="_logo_itsas_2.svg"
   inkscape:export-filename="/home/inigo/Documents/varios/proyectos/inkscape/logo_itsas/_logo_itsas_2.png"
   inkscape:export-xdpi="150"
   inkscape:export-ydpi="150">
  <defs
     id="defs5003">
    <linearGradient
       id="linearGradient3240">
      <stop
         style="stop-color:#000000;stop-opacity:1;"
         offset="0"
         id="stop3242" />
      <stop
         style="stop-color:#ffffff;stop-opacity:1;"
         offset="1"
         id="stop3244" />
    </linearGradient>
    <linearGradient
       inkscape:collect="always"
       xlink:href="#linearGradient3240"
       id="linearGradient1315"
       gradientUnits="userSpaceOnUse"
       x1="359.91028"
       y1="529.43372"
       x2="359.52258"
       y2="482.85709"
       gradientTransform="translate(3.334529,88.37814)" />
  </defs>
  <sodipodi:namedview
     id="base"
     pagecolor="#ffffff"
     bordercolor="#666666"
     borderopacity="1.0"
     inkscape:pageopacity="0.0"
     inkscape:pageshadow="2"
     inkscape:zoom="5.6"
     inkscape:cx="478.89722"
     inkscape:cy="502.72705"
     inkscape:document-units="px"
     inkscape:current-layer="g2255"
     inkscape:window-width="1273"
     inkscape:window-height="943"
     inkscape:window-x="0"
     inkscape:window-y="0" />
  <metadata
     id="metadata5006">
    <rdf:RDF>
      <cc:Work
         rdf:about="">
        <dc:format>image/svg+xml</dc:format>
        <dc:type
           rdf:resource="http://purl.org/dc/dcmitype/StillImage" />
      </cc:Work>
    </rdf:RDF>
  </metadata>
  <g
     inkscape:label="Capa 1"
     inkscape:groupmode="layer"
     id="layer1">
    <g
       id="g2196"
       inkscape:export-filename="/home/inigo/imagen/propias/balea/_logo_itsas_2.png"
       inkscape:export-xdpi="90"
       inkscape:export-ydpi="90">
      <path
         style="fill:url(#linearGradient1315);fill-opacity:1;stroke:#545454;stroke-opacity:1"
         d="M 431.28125 515.84375 C 423.87989 515.84935 415.53546 517.17447 407.71875 519.6875 C 403.54378 521.02973 401.9524 522.27006 401.28125 524.6875 C 400.40923 527.82842 401.00082 530.51071 403.09375 532.78125 C 405.80844 535.72634 407.69258 535.80353 419.375 533.53125 C 425.56509 532.32726 427.36588 532.12492 431.96875 532.09375 C 438.51516 532.04943 441.08409 532.66965 443.625 534.90625 C 445.32397 536.40175 446.02728 538.00148 446.03125 540.3125 C 446.03371 541.7446 445.96613 541.73445 440.84375 540.9375 C 435.95672 540.1772 425.93869 540.2007 421.34375 540.96875 C 406.91607 543.38039 395.76049 552.08313 394 562.3125 C 392.9746 568.27061 395.18842 580.22611 398.21875 585.09375 C 398.75726 585.95877 399.31296 586.68713 399.46875 586.6875 C 399.62455 586.68787 400.65285 586.19113 401.71875 585.59375 C 406.55374 582.88392 411.19548 581.80578 417.9375 581.84375 C 424.41608 581.88023 428.30382 582.88547 435.125 586.28125 C 441.11865 589.26505 442.18501 589.63315 445.78125 589.96875 C 452.80521 590.6242 461.07231 588.82964 469.6875 584.78125 L 473.53125 582.96875 L 473.34375 579.34375 C 473.1342 575.5409 472.5644 573.61457 471.3125 572.5 C 470.89876 572.13166 469.07891 571.04893 467.28125 570.09375 C 463.49283 568.08078 462.50036 566.87932 462.125 563.875 C 461.98493 562.75393 461.9166 552.60539 462 541.34375 L 462.15625 520.875 L 458.5625 520.65625 C 455.20409 520.43616 452.60819 519.86163 443.28125 517.28125 C 439.82593 516.3253 435.72207 515.84039 431.28125 515.84375 z M 431 554.34375 C 434.86715 554.36686 439.12245 554.60992 442.34375 555.09375 L 446.96875 555.78125 L 446.96875 560.03125 L 446.96875 564.25 L 443.25 566.1875 C 435.78167 570.10528 429.05781 571.90708 421.90625 571.84375 C 419.59662 571.82331 417.0769 571.6489 416.3125 571.46875 C 413.96554 570.91563 411.24002 569.32743 410.46875 568.0625 C 407.72618 563.5645 413.17466 557.3598 421.96875 554.96875 C 423.64069 554.51416 427.13285 554.32064 431 554.34375 z "
         id="path2799" />
      <path
         style="fill:url(#linearGradient1315);fill-opacity:1;stroke:#545454;stroke-opacity:1"
         d="M 306.27669,589.3954 C 302.43479,588.99759 297.91489,588.01079 291.38429,586.14403 C 280.61575,583.06588 274.33285,582.20251 268.26963,582.96773 C 263.96165,583.51143 261.35684,584.22368 258.56684,585.62084 C 257.37148,586.21945 256.31071,586.62647 256.20958,586.52534 C 255.49063,585.80639 255.79668,582.45381 257.21187,575.54585 L 258.762,567.97923 L 258.72775,553.91105 C 258.67976,534.19271 258.43783,533.40964 252.05304,532.30593 C 248.64749,531.71722 245.92645,530.28821 244.70953,528.44932 C 243.87682,527.19101 243.71101,526.53391 243.7145,524.50597 C 243.72172,520.30556 245.67105,517.97008 250.01435,516.95815 C 252.75843,516.31882 254.24899,515.56735 256.11258,513.88371 C 257.99534,512.18275 258.58715,510.20518 258.84301,504.75975 C 259.09695,499.35545 259.57555,497.71361 261.47052,495.74612 C 263.55693,493.57987 265.2994,493.11556 269.21687,493.68197 C 270.88802,493.92359 272.76162,494.12128 273.38043,494.12128 L 274.50554,494.12128 L 274.74948,501.95408 C 275.02389,510.76537 275.13189,511.1563 277.86829,513.24342 C 279.8072,514.72228 282.84377,515.87068 286.03623,516.33245 C 287.3948,516.52896 293.87911,516.69305 300.4458,516.69708 L 312.38524,516.70441 L 312.37619,520.86933 C 312.36141,527.67217 311.46639,529.88307 308.04528,531.56768 C 306.34818,532.40336 305.84268,532.44717 295.54045,532.65157 C 286.65528,532.82785 284.48506,532.9763 282.95313,533.51259 C 275.86748,535.99309 272.65791,542.97363 273.85775,553.29426 C 274.67338,560.31013 275.89927,563.57757 278.7664,566.37761 C 281.43584,568.98459 290.7621,569.09004 297.89096,567.2794 C 304.14116,565.69193 306.41648,563.67749 308.60156,564.07706 C 312.70167,564.82681 314.23299,567.61221 317.39855,580.07831 C 318.63203,584.93579 318.59851,585.99519 317.17342,587.19432 C 315.27775,588.78943 310.24406,589.8062 306.27669,589.3954 z "
         id="path2795" />
      <path
         style="fill:url(#linearGradient1315);fill-opacity:1;stroke:#545454;stroke-opacity:1"
         d="M 227.59353,588.34442 C 224.24758,587.67712 220.09956,586.19854 215.44537,584.01414 C 208.21442,580.62037 203.75096,579.2242 198.54406,578.7274 C 195.25324,578.41342 191.83438,578.96312 186.98308,580.58623 C 184.88537,581.28807 182.7304,581.8623 182.19426,581.8623 L 181.21945,581.8623 L 181.43583,578.62292 C 181.79743,573.20959 183.1882,570.59724 186.29737,569.49127 C 187.12959,569.19524 189.96889,568.85031 192.62062,568.72311 C 202.47135,568.25055 204.5073,566.99749 207.36345,559.64938 C 210.67361,551.13322 211.75105,540.77544 209.65891,537.58242 C 208.00083,535.05188 204.51298,533.74569 199.39527,533.73871 C 195.20006,533.73299 192.82796,533.1977 190.94125,531.83098 C 188.77262,530.26003 187.84479,528.02325 188.09075,524.95913 C 188.33408,521.92772 189.50583,520.08056 191.94831,518.878 C 193.7307,518.00044 193.73637,518.00013 209.94288,517.89289 L 226.1545,517.7856 L 225.95105,519.55885 C 225.54491,523.09873 225.01614,535.54375 225.01844,541.50884 C 225.02372,555.27472 226.47783,562.89677 229.77448,566.43886 C 231.56504,568.36273 232.27965,568.53455 238.4907,568.53455 C 244.79762,568.53455 247.33221,568.91623 249.12342,570.13574 C 251.30495,571.62099 251.85505,572.74118 251.85505,575.69831 C 251.85505,578.09596 251.72932,578.55845 250.59834,580.32077 C 248.23332,584.00601 243.13065,587.32597 238.20723,588.3828 C 235.36733,588.9924 230.75909,588.97574 227.59353,588.34442 z "
         id="path2793" />
      <path
         style="fill:url(#linearGradient1315);fill-opacity:1;stroke:#545454;stroke-opacity:1"
         d="M 357.73923,587.73565 C 356.9262,587.5454 354.46311,586.55425 352.2657,585.53312 C 346.82738,583.00593 343.49228,582.16886 338.67052,582.12089 C 334.16576,582.07608 330.49061,582.90454 325.88651,585.00269 C 324.3149,585.7189 322.96654,586.30488 322.89016,586.30488 C 322.57971,586.30488 322.79237,567.79637 323.12962,565.46394 C 323.87623,560.3004 326.65222,557.42809 330.896,557.42809 C 333.84741,557.42809 335.60197,558.75039 338.55796,563.20244 C 340.68301,566.403 344.76869,568.4345 352.2782,570.02447 C 356.95683,571.01507 365.55498,571.40808 368.31737,570.7576 C 372.43571,569.78783 374.5814,568.0385 374.5814,565.65069 C 374.5814,561.95021 366.37055,558.09492 354.72366,556.32676 C 335.54879,553.41574 327.40724,548.39563 326.04609,538.64405 C 324.74547,529.32607 329.45485,522.26726 339.98579,517.7501 C 348.22231,514.21712 360.61274,513.72831 371.61968,516.50212 C 377.11514,517.88701 381.16545,519.07399 384.3867,519.05857 L 389.46201,519.03427 L 389.31936,526.84706 C 389.18749,534.06949 389.11112,534.80737 388.30856,536.61203 C 387.3085,538.8608 385.88089,540.20692 383.91784,540.75211 C 380.2511,541.77047 378.22223,540.95517 374.30416,536.88887 C 369.89835,532.3164 367.28162,531.226 359.88035,530.87843 C 353.03941,530.55718 347.26491,531.72878 344.58819,533.98109 C 341.4461,536.62499 345.12449,538.82494 355.33021,540.40561 C 371.26924,542.87426 379.93896,546.24532 385.22577,552.02992 C 390.60247,557.9129 391.63906,566.82752 387.86579,574.73407 C 385.7746,579.11598 380.79087,583.08388 374.03088,585.74902 C 368.83607,587.7971 361.71336,588.66565 357.73923,587.73565 z "
         id="path2791" />
      <path
         style="fill:url(#linearGradient1315);fill-opacity:1;stroke:#545454;stroke-opacity:1"
         d="M 512.11898,587.73565 C 511.30595,587.5454 508.84286,586.55425 506.64545,585.53312 C 501.20713,583.00593 497.87203,582.16886 493.05027,582.12089 C 488.54551,582.07608 484.87036,582.90454 480.26626,585.00269 C 478.69465,585.7189 477.3463,586.30488 477.26991,586.30488 C 476.95946,586.30488 477.17212,567.79637 477.50938,565.46394 C 478.25598,560.3004 481.03197,557.42809 485.27575,557.42809 C 488.22716,557.42809 489.98172,558.75039 492.93771,563.20244 C 495.06276,566.403 499.14844,568.4345 506.65795,570.02447 C 511.33658,571.01507 519.93471,571.40808 522.69711,570.7576 C 526.81546,569.78783 528.96115,568.0385 528.96115,565.65069 C 528.96115,561.95021 520.7503,558.09492 509.10341,556.32676 C 489.92854,553.41574 481.78699,548.39563 480.42584,538.64405 C 479.12522,529.32607 483.8346,522.26726 494.36554,517.7501 C 502.60206,514.21712 514.99249,513.72831 525.99943,516.50212 C 531.49487,517.88701 535.66996,519.07438 538.89121,519.05857 L 543.84177,519.03427 L 543.69912,526.84706 C 543.56725,534.06949 543.49088,534.80737 542.68832,536.61203 C 541.68826,538.8608 540.26064,540.20692 538.29757,540.75211 C 534.63085,541.77047 532.602,540.95517 528.6839,536.88887 C 524.27811,532.3164 521.66136,531.226 514.2601,530.87843 C 507.41916,530.55718 501.64466,531.72878 498.96794,533.98109 C 495.82585,536.62499 499.50424,538.82494 509.70996,540.40561 C 525.64898,542.87426 534.31872,546.24532 539.60551,552.02992 C 544.98221,557.9129 546.01882,566.82752 542.24555,574.73407 C 540.15435,579.11598 535.17062,583.08388 528.41064,585.74902 C 523.21582,587.7971 516.09311,588.66565 512.11898,587.73565 z "
         id="path2789" />
      <path
         style="fill:url(#linearGradient1315);fill-opacity:1;stroke:#545454;stroke-opacity:1"
         d="M 214.2948,506.43094 C 211.547,504.50838 209.32264,504.55696 205.30049,506.62738 C 205.14777,506.70599 205.02283,502.92469 205.02283,498.2245 L 205.02283,489.6787 L 214.46331,489.6787 L 223.9038,489.6787 L 223.9038,498.0217 L 223.9038,506.3647 L 222.20714,507.09197 C 221.18037,507.5321 219.67513,507.81925 218.39475,507.81925 C 216.54947,507.81925 216.02539,507.64178 214.2948,506.43094 z "
         id="path1891" />
      <g
         style="fill:#545454;fill-opacity:1;stroke:none;stroke-width:2.81499052;stroke-miterlimit:4;stroke-dasharray:none;stroke-opacity:1"
         transform="matrix(0.275667,0,0,0.275667,356.8213,372.0724)"
         id="g2255">
        <path
           style="fill:#545454;fill-opacity:1;fill-rule:nonzero;stroke:none;stroke-width:2.81499052;stroke-linecap:butt;stroke-linejoin:miter;stroke-miterlimit:4;stroke-dasharray:none;stroke-opacity:1"
           d="M 102.08344,515.81304 C 165.27236,469.52857 230.84322,443.15901 315.94633,481.24663 C 401.04945,519.33425 475.23811,517.86483 602.51219,454.18347 C 450.36857,547.3933 374.84089,514.08856 310.68581,487.32032 C 245.09627,459.95356 198.30776,471.64065 102.08344,515.81304 z "
           id="path2257"
           sodipodi:nodetypes="czczc"
           inkscape:export-filename="/home/inigo/imagen/propias/balea/balea004.3.png"
           inkscape:export-xdpi="90"
           inkscape:export-ydpi="90" />
        <path
           style="fill:#545454;fill-opacity:1;fill-rule:nonzero;stroke:none;stroke-width:2.81499052;stroke-linecap:butt;stroke-linejoin:miter;stroke-miterlimit:4;stroke-dasharray:none;stroke-opacity:1"
           d="M 230.3125,204.375 C 215.70084,204.42867 203.07445,212.21084 190.15625,224.125 C 173.20231,239.76122 165.01306,276.18028 180.15625,294.46875 C 195.29943,312.75722 220.99321,302.78201 228.09375,284.78125 C 222.54219,291.00657 216.80124,293.0768 207.09375,288.28125 C 197.38626,283.4857 190.72374,268.4805 190.84375,256.65625 C 190.96377,244.83201 194.27752,230.74051 203.0625,223.96875 C 211.84747,217.197 222.44555,216.53216 231.28125,221.71875 C 240.11695,226.90534 244.21007,229.88728 253.84375,244.15625 C 261.77162,255.89865 266.90524,271.50379 268.80972,291.96221 C 277.43021,291.72597 284.38608,292.62493 291.62615,294.62748 C 292.16422,275.86506 292.48132,265.0236 296.4528,250.52381 C 300.47647,235.83348 307.19381,219.1626 330.58261,222.18682 C 343.2243,223.82141 349.10025,228.01124 353.92593,234.26504 C 358.46872,240.15221 362.2389,249.00483 361.79001,259.76145 C 361.42693,268.4618 354.36503,280.40936 340.44676,286.5081 C 351.61535,290.80826 363.36918,288.89439 370.14073,279.66716 C 377.05754,270.242 379.10593,245.81993 369.60097,229.497 C 361.42291,215.45276 355.06754,210.75287 340.4375,207.4375 C 320.32558,202.87987 300.82848,215.49957 290.0625,231.59375 C 286.37805,237.03426 283.39381,242.73557 281,248.65625 C 273.53207,231.33983 261.08431,213.59963 246.1875,207.625 C 240.52497,205.35395 235.28505,204.35673 230.3125,204.375 z "
           id="path2259"
           sodipodi:nodetypes="csscsssssccsssscsssccsc" />
        <path
           style="fill:#545454;fill-opacity:1;fill-rule:nonzero;stroke:none;stroke-width:2.81499052;stroke-linecap:butt;stroke-linejoin:miter;stroke-miterlimit:4;stroke-dasharray:none;stroke-opacity:1"
           d="M 289.26373,306.65151 C 223.06462,290.83563 118.85461,359.00466 140.71875,494.5625 C 150.60983,492.00091 158.5924,493.00876 160.05672,482.57524 C 147.01715,364.59765 235.29033,318.70863 295.33055,334.13538 C 337.38758,344.94152 359.41857,372.7439 381.32754,406.65972 C 400.34672,436.10205 416.28648,482.50929 461.0625,464.96875 C 492.97757,452.46635 510.53437,413.79099 465.28125,364.90625 C 419.72578,315.69492 468.2686,319.09361 497.1875,353.21875 C 525.44867,318.94036 578.37116,317.41713 526.4375,367.4375 C 488.66861,403.81496 530.90247,465.14135 529.53125,488.09375 C 540.14486,490.65232 538.132,484.33368 547.9375,480.3125 C 544.65788,433.52795 502.34174,418.87667 537.8125,379.75 C 619.21213,289.96064 522.5871,308.21773 498.9375,335.15625 C 452.26748,293.69124 392.68371,302.13462 452.875,376.40625 C 484.64717,415.61076 470.05253,436.70064 453.15625,444.125 C 429.13766,454.67895 424.68168,428.23052 396.90162,389.15509 C 361.85945,339.86478 339.84889,318.737 289.26373,306.65151 z "
           id="path2261"
           sodipodi:nodetypes="cccsssscsccscssss" />
      </g>
    </g>
  </g>
</svg>

