<?xml version="1.0" encoding="UTF-8" standalone="no"?>
<!-- Created with Inkscape (http://www.inkscape.org/) -->

<svg
   xmlns:dc="http://purl.org/dc/elements/1.1/"
   xmlns:cc="http://creativecommons.org/ns#"
   xmlns:rdf="http://www.w3.org/1999/02/22-rdf-syntax-ns#"
   xmlns:svg="http://www.w3.org/2000/svg"
   xmlns="http://www.w3.org/2000/svg"
   xmlns:sodipodi="http://sodipodi.sourceforge.net/DTD/sodipodi-0.dtd"
   xmlns:inkscape="http://www.inkscape.org/namespaces/inkscape"
   id="svg2"
   version="1.1"
   inkscape:version="0.47pre4 r22446"
   width="380"
   height="384"
   sodipodi:docname="ak004.svg"
   style="display:inline"
   inkscape:export-filename="/home/opositivo/Escritorio/logo_akademy/prop1_logo_red.png"
   inkscape:export-xdpi="48.925285"
   inkscape:export-ydpi="48.925285">
  <metadata
     id="metadata8">
    <rdf:RDF>
      <cc:Work
         rdf:about="">
        <dc:format>image/svg+xml</dc:format>
        <dc:type
           rdf:resource="http://purl.org/dc/dcmitype/StillImage" />
        <dc:title></dc:title>
      </cc:Work>
    </rdf:RDF>
  </metadata>
  <defs
     id="defs6">
    <inkscape:perspective
       sodipodi:type="inkscape:persp3d"
       inkscape:vp_x="0 : 0.5 : 1"
       inkscape:vp_y="0 : 1000 : 0"
       inkscape:vp_z="1 : 0.5 : 1"
       inkscape:persp3d-origin="0.5 : 0.33333333 : 1"
       id="perspective10" />
    <inkscape:perspective
       id="perspective2833"
       inkscape:persp3d-origin="0.5 : 0.33333333 : 1"
       inkscape:vp_z="1 : 0.5 : 1"
       inkscape:vp_y="0 : 1000 : 0"
       inkscape:vp_x="0 : 0.5 : 1"
       sodipodi:type="inkscape:persp3d" />
    <inkscape:perspective
       id="perspective2856"
       inkscape:persp3d-origin="0.5 : 0.33333333 : 1"
       inkscape:vp_z="1 : 0.5 : 1"
       inkscape:vp_y="0 : 1000 : 0"
       inkscape:vp_x="0 : 0.5 : 1"
       sodipodi:type="inkscape:persp3d" />
    <inkscape:perspective
       id="perspective2878"
       inkscape:persp3d-origin="0.5 : 0.33333333 : 1"
       inkscape:vp_z="1 : 0.5 : 1"
       inkscape:vp_y="0 : 1000 : 0"
       inkscape:vp_x="0 : 0.5 : 1"
       sodipodi:type="inkscape:persp3d" />
    <inkscape:perspective
       id="perspective2878-9"
       inkscape:persp3d-origin="0.5 : 0.33333333 : 1"
       inkscape:vp_z="1 : 0.5 : 1"
       inkscape:vp_y="0 : 1000 : 0"
       inkscape:vp_x="0 : 0.5 : 1"
       sodipodi:type="inkscape:persp3d" />
    <inkscape:perspective
       id="perspective2878-8"
       inkscape:persp3d-origin="0.5 : 0.33333333 : 1"
       inkscape:vp_z="1 : 0.5 : 1"
       inkscape:vp_y="0 : 1000 : 0"
       inkscape:vp_x="0 : 0.5 : 1"
       sodipodi:type="inkscape:persp3d" />
    <inkscape:perspective
       id="perspective2918"
       inkscape:persp3d-origin="0.5 : 0.33333333 : 1"
       inkscape:vp_z="1 : 0.5 : 1"
       inkscape:vp_y="0 : 1000 : 0"
       inkscape:vp_x="0 : 0.5 : 1"
       sodipodi:type="inkscape:persp3d" />
    <inkscape:perspective
       id="perspective2941"
       inkscape:persp3d-origin="0.5 : 0.33333333 : 1"
       inkscape:vp_z="1 : 0.5 : 1"
       inkscape:vp_y="0 : 1000 : 0"
       inkscape:vp_x="0 : 0.5 : 1"
       sodipodi:type="inkscape:persp3d" />
    <inkscape:perspective
       id="perspective2963"
       inkscape:persp3d-origin="0.5 : 0.33333333 : 1"
       inkscape:vp_z="1 : 0.5 : 1"
       inkscape:vp_y="0 : 1000 : 0"
       inkscape:vp_x="0 : 0.5 : 1"
       sodipodi:type="inkscape:persp3d" />
    <inkscape:perspective
       id="perspective2985"
       inkscape:persp3d-origin="0.5 : 0.33333333 : 1"
       inkscape:vp_z="1 : 0.5 : 1"
       inkscape:vp_y="0 : 1000 : 0"
       inkscape:vp_x="0 : 0.5 : 1"
       sodipodi:type="inkscape:persp3d" />
    <inkscape:perspective
       id="perspective3007"
       inkscape:persp3d-origin="0.5 : 0.33333333 : 1"
       inkscape:vp_z="1 : 0.5 : 1"
       inkscape:vp_y="0 : 1000 : 0"
       inkscape:vp_x="0 : 0.5 : 1"
       sodipodi:type="inkscape:persp3d" />
    <inkscape:perspective
       id="perspective3029"
       inkscape:persp3d-origin="0.5 : 0.33333333 : 1"
       inkscape:vp_z="1 : 0.5 : 1"
       inkscape:vp_y="0 : 1000 : 0"
       inkscape:vp_x="0 : 0.5 : 1"
       sodipodi:type="inkscape:persp3d" />
    <inkscape:perspective
       id="perspective3051"
       inkscape:persp3d-origin="0.5 : 0.33333333 : 1"
       inkscape:vp_z="1 : 0.5 : 1"
       inkscape:vp_y="0 : 1000 : 0"
       inkscape:vp_x="0 : 0.5 : 1"
       sodipodi:type="inkscape:persp3d" />
    <inkscape:perspective
       id="perspective3073"
       inkscape:persp3d-origin="0.5 : 0.33333333 : 1"
       inkscape:vp_z="1 : 0.5 : 1"
       inkscape:vp_y="0 : 1000 : 0"
       inkscape:vp_x="0 : 0.5 : 1"
       sodipodi:type="inkscape:persp3d" />
    <inkscape:perspective
       id="perspective3168"
       inkscape:persp3d-origin="0.5 : 0.33333333 : 1"
       inkscape:vp_z="1 : 0.5 : 1"
       inkscape:vp_y="0 : 1000 : 0"
       inkscape:vp_x="0 : 0.5 : 1"
       sodipodi:type="inkscape:persp3d" />
    <inkscape:perspective
       id="perspective3199"
       inkscape:persp3d-origin="0.5 : 0.33333333 : 1"
       inkscape:vp_z="1 : 0.5 : 1"
       inkscape:vp_y="0 : 1000 : 0"
       inkscape:vp_x="0 : 0.5 : 1"
       sodipodi:type="inkscape:persp3d" />
    <inkscape:perspective
       id="perspective2946"
       inkscape:persp3d-origin="0.5 : 0.33333333 : 1"
       inkscape:vp_z="1 : 0.5 : 1"
       inkscape:vp_y="0 : 1000 : 0"
       inkscape:vp_x="0 : 0.5 : 1"
       sodipodi:type="inkscape:persp3d" />
    <inkscape:perspective
       id="perspective3351"
       inkscape:persp3d-origin="0.5 : 0.33333333 : 1"
       inkscape:vp_z="1 : 0.5 : 1"
       inkscape:vp_y="0 : 1000 : 0"
       inkscape:vp_x="0 : 0.5 : 1"
       sodipodi:type="inkscape:persp3d" />
    <inkscape:perspective
       id="perspective3004"
       inkscape:persp3d-origin="0.5 : 0.33333333 : 1"
       inkscape:vp_z="1 : 0.5 : 1"
       inkscape:vp_y="0 : 1000 : 0"
       inkscape:vp_x="0 : 0.5 : 1"
       sodipodi:type="inkscape:persp3d" />
    <inkscape:perspective
       id="perspective4196"
       inkscape:persp3d-origin="0.5 : 0.33333333 : 1"
       inkscape:vp_z="1 : 0.5 : 1"
       inkscape:vp_y="0 : 1000 : 0"
       inkscape:vp_x="0 : 0.5 : 1"
       sodipodi:type="inkscape:persp3d" />
    <inkscape:perspective
       id="perspective2892"
       inkscape:persp3d-origin="0.5 : 0.33333333 : 1"
       inkscape:vp_z="1 : 0.5 : 1"
       inkscape:vp_y="0 : 1000 : 0"
       inkscape:vp_x="0 : 0.5 : 1"
       sodipodi:type="inkscape:persp3d" />
    <inkscape:perspective
       id="perspective2937"
       inkscape:persp3d-origin="0.5 : 0.33333333 : 1"
       inkscape:vp_z="1 : 0.5 : 1"
       inkscape:vp_y="0 : 1000 : 0"
       inkscape:vp_x="0 : 0.5 : 1"
       sodipodi:type="inkscape:persp3d" />
    <inkscape:perspective
       id="perspective2874"
       inkscape:persp3d-origin="0.5 : 0.33333333 : 1"
       inkscape:vp_z="1 : 0.5 : 1"
       inkscape:vp_y="0 : 1000 : 0"
       inkscape:vp_x="0 : 0.5 : 1"
       sodipodi:type="inkscape:persp3d" />
  </defs>
  <sodipodi:namedview
     pagecolor="#ffffff"
     bordercolor="#666666"
     borderopacity="1"
     objecttolerance="10"
     gridtolerance="10"
     guidetolerance="10"
     inkscape:pageopacity="0"
     inkscape:pageshadow="2"
     inkscape:window-width="1680"
     inkscape:window-height="973"
     id="namedview4"
     showgrid="false"
     inkscape:zoom="0.61458333"
     inkscape:cx="283.27997"
     inkscape:cy="176.78644"
     inkscape:window-x="0"
     inkscape:window-y="25"
     inkscape:window-maximized="1"
     inkscape:current-layer="layer4" />
  <g
     inkscape:groupmode="layer"
     id="layer8"
     inkscape:label="Fondo"
     style="display:none">
    <rect
       style="fill:#000000;fill-opacity:1;fill-rule:evenodd;stroke:#000000;stroke-width:1px;stroke-linecap:butt;stroke-linejoin:miter;stroke-opacity:1"
       id="rect3370"
       width="382.37289"
       height="384.81357"
       x="-0.81355929"
       y="-2.0261217e-07" />
  </g>
  <g
     inkscape:groupmode="layer"
     id="layer1"
     inkscape:label="Azul"
     style="display:inline">
    <path
       style="fill:#005dff;fill-rule:evenodd;stroke:#0050ff;stroke-width:1px;stroke-linecap:butt;stroke-linejoin:miter;stroke-opacity:1;fill-opacity:0.40845069"
       d="m 17.09375,15.46875 0,97.625 41.5625,0 C 62.609788,85.931244 84.272666,64.548739 111.46875,61.25 l 0,-45.78125 -94.375,0 z"
       id="rect2823" />
    <path
       style="fill:#005dff;fill-rule:evenodd;stroke:#0050ff;stroke-width:1px;stroke-linecap:butt;stroke-linejoin:miter;stroke-opacity:1;display:inline;fill-opacity:0.40845069"
       d="m 264.5625,15.46875 0,46.3125 c 25.59574,4.589186 45.65065,25.28497 49.4375,51.3125 l 44.9375,0 0,-97.625 -94.375,0 z"
       id="rect2823-3" />
    <path
       style="fill:#005dff;fill-rule:evenodd;stroke:#0050ff;stroke-width:1px;stroke-linecap:butt;stroke-linejoin:miter;stroke-opacity:1;display:inline;fill-opacity:0.40845069"
       d="m 315.1875,263.84375 c -2.6846,28.03674 -24.16369,50.52036 -51.59375,54.59375 l 0,43.03125 94.375,0 0,-97.625 -42.78125,0 z"
       id="rect2823-3-8" />
    <path
       style="fill:#005dff;fill-rule:evenodd;stroke:#0050ff;stroke-width:1px;stroke-linecap:butt;stroke-linejoin:miter;stroke-opacity:1;display:inline;fill-opacity:0.40845069"
       d="m 17.59375,263.53125 0,97.625 91.84375,0 c -0.59299,-1.28191 -1.14022,-3.31567 -1.8125,-6.65625 -0.73269,-3.64073 -2.14164,-10.64008 -3.15625,-15.5625 l -1.84375,-8.96875 -5.0625,-2 c -2.772005,-1.10245 -6.117555,-2.55602 -7.4375,-3.25 -1.319922,-0.69401 -2.610546,-1.28125 -2.875,-1.28125 -0.264466,0 -6.543021,3.79577 -13.9375,8.4375 -7.906278,4.96302 -14.030798,8.46513 -14.90625,8.46875 -1.14422,0.002 -3.50824,-2.06338 -10.125,-8.9375 -5.597543,-5.81526 -8.59375,-9.39542 -8.59375,-10.21875 0,-0.69646 2.322051,-4.89098 5.15625,-9.3125 2.834196,-4.42149 6.763671,-10.61261 8.75,-13.78125 l 3.625,-5.78125 -2.28125,-5.4375 c -1.256184,-3.00294 -2.702309,-6.98162 -3.21875,-8.8125 l -0.9375,-3.3125 -15.0625,-3.78125 c -8.279476,-2.0729 -15.530348,-4.17686 -16.09375,-4.6875 -0.447574,-0.40563 -0.700166,-0.98246 -0.84375,-2.75 l -1.1875,0 z"
       id="rect2823-3-8-5" />
    <path
       style="fill:#005dff;fill-rule:evenodd;stroke:#0050ff;stroke-width:1px;stroke-linecap:butt;stroke-linejoin:miter;stroke-opacity:1;display:inline;fill-opacity:0.40845069"
       d="m 17.90625,143.1875 0,97.625 1.0625,0 c 0.108814,-0.75588 0.266365,-1.22754 0.4375,-1.46875 0.596389,-0.84054 4.377526,-1.86183 16.34375,-4.3125 8.574405,-1.75605 15.816011,-3.32312 16.09375,-3.5 3.345656,-4.15649 4.418563,-9.28944 7.34375,-13.75 C 59.69961,216.35451 58.907938,214.69588 51.25,201.5 40.444168,180.83803 41.196748,186.97285 50.84375,177.125 55.16987,172.65727 59.136543,169 59.6875,169 c 0.550955,0 7.218142,4.23214 14.8125,9.375 7.594355,5.14282 14.016426,9.34375 14.28125,9.34375 0.264837,0 2.498699,-0.96372 4.9375,-2.125 C 96.15754,184.43245 98.5585,183.5 99.0625,183.5 l 5.50844,14.21168 c 3.93309,-1.4123 3.45043,-0.7006 7.71031,-1.27418 l 0,-13.53125 C 88.943427,180.39705 69.550346,164.61158 61.71875,143.1875 l -43.8125,0 z"
       id="rect2823-3-8-5-6"
       sodipodi:nodetypes="cccssccccsssscccccc" />
    <path
       style="fill:#005dff;fill-rule:evenodd;stroke:#0050ff;stroke-width:1px;stroke-linecap:butt;stroke-linejoin:miter;stroke-opacity:1;display:inline;fill-opacity:0.40845069"
       d="m 310.9375,143.1875 c -7.34957,20.10545 -24.89411,35.23105 -46.3125,39.09375 l 0,15.21875 c 23.20951,3.85859 41.96,20.94709 48.40625,43.3125 l 45.9375,0 0,-97.625 -48.03125,0 z"
       id="rect2823-3-8-5-6-1" />
    <path
       style="fill:#005dff;fill-rule:evenodd;stroke:#0050ff;stroke-width:1px;stroke-linecap:butt;stroke-linejoin:miter;stroke-opacity:1;display:inline;fill-opacity:0.40845069"
       d="m 143.1875,15.46875 0,50.46875 c 18.85639,8.310938 32.6975,25.96956 35.78125,47.15625 l 14.6875,0 c 3.509,-24.117846 20.99549,-43.64093 43.90625,-50.03125 l 0,-47.59375 -94.375,0 z"
       id="rect2823-3-8-5-6-1-1" />
    <path
       style="fill:#005dff;fill-rule:evenodd;stroke:#0050ff;stroke-width:1px;stroke-linecap:butt;stroke-linejoin:miter;stroke-opacity:1;display:inline;fill-opacity:0.40845069"
       d="m 180.78125,264.40625 c -0.9562,9.70296 -1.93819,10.56852 -4.1875,18.78125 10.02838,16.27992 18.55394,21.85454 29.34375,38.84375 0,1.12072 -15.63097,17.71875 -16.6875,17.71875 -0.27038,0 -6.73663,-4.21781 -14.375,-9.375 l -13.90625,-9.40625 -4.40625,2.28125 c -3.17553,1.77385 -5.9696,3.54782 -9.21875,5.125 -1.45011,0.44773 -2.61721,1.2249 -2.90625,1.96875 -0.0996,0.25622 -0.44316,1.64135 -0.875,3.4375 l 0,28.25 94.375,0 0,-45.28125 c -23.45921,-6.73632 -41.14797,-27.2685 -43.78125,-52.34375 l -13.375,0 z"
       id="rect2823-3-8-5-6-1-1-5"
       sodipodi:nodetypes="cccsccccscccccc" />
  </g>
  <g
     style="display:inline"
     inkscape:label="Circulos"
     id="g3226"
     inkscape:groupmode="layer">
    <path
       style="fill:#005dff;fill-opacity:0.40845069;fill-rule:evenodd;stroke:#0050ff;stroke-width:0.88644564000000003px;stroke-linecap:butt;stroke-linejoin:miter;stroke-opacity:1"
       d="m 124.875,88.21875 c -21.8232,0 -39.5,16.95043 -39.5,37.875 0,18.92084 14.469581,34.60771 33.375,37.4375 7.6339,-20.81989 24.18173,-37.24985 44.9375,-44.625 -3.50784,-17.48093 -19.55719,-30.6875 -38.8125,-30.6875 z"
       id="path3228" />
    <path
       style="fill:#005dff;fill-opacity:0.40845069;fill-rule:evenodd;stroke:#0050ff;stroke-width:0.88644564000000003px;stroke-linecap:butt;stroke-linejoin:miter;stroke-opacity:1"
       d="m 254.9375,222.21875 c -8.08376,16.83908 -22.22887,30.13069 -39.5625,37.03125 -0.007,0.28319 0,0.55906 0,0.84375 0,20.92457 17.6768,37.90625 39.5,37.90625 21.8232,0 39.53125,-16.98168 39.53125,-37.90625 0,-20.90445 -17.67447,-37.84243 -39.46875,-37.875 z"
       id="path3232" />
  </g>
  <g
     inkscape:groupmode="layer"
     id="layer3"
     inkscape:label="Centro"
     style="display:inline">
    <path
       sodipodi:type="arc"
       style="fill:#005dff;fill-opacity:0.40845069;fill-rule:evenodd;stroke:#0050ff;stroke-width:1px;stroke-linecap:butt;stroke-linejoin:miter;stroke-opacity:1;display:inline"
       id="path2821-96"
       sodipodi:cx="196.06779"
       sodipodi:cy="194.03391"
       sodipodi:rx="46.372883"
       sodipodi:ry="41.084747"
       d="m 242.44068,194.03391 a 46.372883,41.084747 0 1 1 -92.74577,0 46.372883,41.084747 0 1 1 92.74577,0 z"
       transform="matrix(0.99918667,0,0,1.1574978,-7.6980458,-32.593818)" />
  </g>
  <g
     inkscape:groupmode="layer"
     id="layer2"
     inkscape:label="Ref circulo"
     style="display:none">
    <path
       transform="matrix(1.3114982,0,0,1.4902058,-137.54934,-168.74368)"
       d="m 242.44068,194.03391 a 46.372883,41.084747 0 1 1 -92.74577,0 46.372883,41.084747 0 1 1 92.74577,0 z"
       sodipodi:ry="41.084747"
       sodipodi:rx="46.372883"
       sodipodi:cy="194.03391"
       sodipodi:cx="196.06779"
       id="path3154"
       style="fill:#ff0000;fill-rule:evenodd;stroke:#000000;stroke-width:1px;stroke-linecap:butt;stroke-linejoin:miter;stroke-opacity:1"
       sodipodi:type="arc" />
  </g>
  <g
     inkscape:groupmode="layer"
     id="layer5"
     inkscape:label="Engranaje"
     style="display:inline">
    <path
       style="fill:#00ff00;stroke:#c83200;stroke-width:4;stroke-miterlimit:4;stroke-opacity:1;stroke-dasharray:none;fill-opacity:1"
       d="m 110.29966,362.49427 c -0.97842,-1.00838 -1.68726,-3.13426 -2.66512,-7.99328 -0.73269,-3.64073 -2.16228,-10.64696 -3.17689,-15.56938 l -1.84474,-8.9499 -5.04002,-2.00443 c -2.772005,-1.10245 -6.11996,-2.57223 -7.439905,-3.26621 -1.319922,-0.69401 -2.616268,-1.2618 -2.880722,-1.2618 -0.264466,0 -6.530916,3.7978 -13.925395,8.43953 -7.906278,4.96302 -14.057804,8.44209 -14.933256,8.44571 -1.14422,0.002 -3.480546,-2.06314 -10.097306,-8.93726 -5.597543,-5.81526 -8.608611,-9.38636 -8.608611,-10.20969 0,-0.69646 2.318902,-4.88381 5.153101,-9.30533 2.834196,-4.42149 6.77829,-10.63164 8.764619,-13.80028 l 3.611502,-5.76119 -2.283949,-5.45984 c -1.256184,-3.00294 -2.706522,-6.95784 -3.222963,-8.78872 l -0.938998,-3.32886 -15.053604,-3.76888 c -8.279476,-2.0729 -15.514562,-4.18666 -16.077964,-4.6973 -0.913449,-0.82784 -1.024363,-2.27755 -1.024363,-13.38816 0,-9.40308 0.190613,-12.72842 0.776984,-13.55489 0.596389,-0.84054 4.400584,-1.83722 16.366808,-4.28789 8.574405,-1.75605 15.817065,-3.33754 16.094804,-3.51442 3.345656,-4.15649 4.418721,-9.27449 7.343908,-13.73505 0.51211,-1.42674 -0.301807,-3.09229 -7.959745,-16.28817 -10.805832,-20.66197 -10.055178,-14.52429 -0.408176,-24.37214 4.32612,-4.46773 8.316456,-8.12312 8.867413,-8.12312 0.550955,0 7.21529,4.20776 14.809648,9.35062 7.594355,5.14282 14.024594,9.35061 14.289418,9.35061 0.264837,0 2.476913,-0.95015 4.915714,-2.11143 2.438788,-1.1613 4.846598,-2.11143 5.350598,-2.11143 0.78603,0 5.39096,7.86235 7.42485,12.97091 l -4.06779,-9.19859 -3.52648,-3.03667 c -11.045906,3.76206 -8.412895,5.37715 -10.447331,4.04997 -8.403906,-5.48234 -25.700337,-19.21463 -28.552337,-19.45811 -3.145959,2.83488 -16.475939,14.23624 -16.556673,16.53669 -0.23659,1.09483 16.851866,30.27925 15.875915,32.10077 -6.250727,11.66639 -1.728643,3.93291 -7.079859,14.66832 -0.343361,0.68884 -23.590012,5.32619 -33.071454,7.42262 -1.546487,0.34194 -1.635125,11.19304 0.274347,25.69382 0.165837,1.25939 5.550073,2.49428 30.87448,9.59075 2.42002,0.67814 1.807908,6.32806 6.642346,16.47988 1.798419,3.77649 -14.147028,20.56891 -16.895541,29.62411 -0.896687,2.95421 13.617873,20.43979 19.12162,19.53983 0.964895,-0.15778 15.817769,-9.40956 28.529921,-17.1592 2.249576,-1.37139 15.531006,7.11987 15.584786,7.16824 1.64719,1.48153 5.34545,25.78804 7.26804,31.47494 6.82545,2.03301 17.59785,1.41698 24.69306,0.7555 3.18488,-0.19472 3.78837,-13.24053 9.30513,-31.51958 0.35401,-1.17296 10.58432,-7.5369 16.36234,-10.99883 0.53872,-0.32277 26.30198,20.99542 28.27674,18.88692 1.19491,-1.27582 17.74552,-16.51092 17.32858,-17.29932 -3.95683,-8.15817 -19.92267,-24.95403 -29.83943,-38.60984 10.03049,16.29185 21.72083,20.85569 29.3396,38.86657 0,1.12072 -15.62608,17.69603 -16.68261,17.69603 -0.27038,0 -6.74126,-4.21953 -14.37963,-9.37672 l -13.88799,-9.3767 -4.41668,2.2523 c -3.17553,1.77385 -5.96555,3.54754 -9.2147,5.12472 -1.45011,0.44773 -2.61536,1.24619 -2.9044,1.99004 -0.26548,0.68325 -1.95948,7.89327 -3.76442,16.02228 -2.81974,12.69949 -3.48902,14.97108 -4.75465,16.13735 -1.4208,1.30928 -1.87712,1.35735 -12.8813,1.35735 -11.09073,0 -11.44539,-0.0382 -12.74127,-1.37377 z m 66.25716,-78.39391 0,0 z"
       id="path2836"
       sodipodi:nodetypes="cscccsssssssccccccssssccccssssscccsccssssssssssccssscccsccccssssccc" />
  </g>
  <g
     inkscape:groupmode="layer"
     id="layer7"
     inkscape:label="Capa#2"
     style="display:none">
    <path
       sodipodi:nodetypes="cscccsssssssccccccssssccccssssscccsccsssccssssssssccccssssccc"
       id="path3341-4"
       d="m 333.21491,234.35867 c -0.97842,-1.00838 -1.68726,-3.13426 -2.66512,-7.99328 -0.73269,-3.64073 -2.16228,-10.64696 -3.17689,-15.56938 l -1.84474,-8.9499 -5.04002,-2.00443 c -2.77201,-1.10245 -6.11996,-2.57223 -7.43991,-3.26621 -1.31992,-0.69401 -2.61626,-1.2618 -2.88072,-1.2618 -0.26446,0 -6.53091,3.7978 -13.92539,8.43953 -7.90628,4.96302 -14.05781,8.44209 -14.93326,8.44571 -1.14422,0.002 -3.48054,-2.06314 -10.0973,-8.93726 -5.59755,-5.81526 -8.60862,-9.38636 -8.60862,-10.20969 0,-0.69646 2.31891,-4.88381 5.15311,-9.30533 2.83419,-4.42149 6.77829,-10.63164 8.76461,-13.80028 l 3.61151,-5.76119 -2.28395,-5.45984 c -1.25619,-3.00294 -2.70652,-6.95784 -3.22297,-8.78872 l -0.93899,-3.32886 -15.05361,-3.76888 c -8.27947,-2.0729 -15.51456,-4.18666 -16.07796,-4.6973 -0.91345,-0.82784 -1.02436,-2.27755 -1.02436,-13.38816 0,-9.40308 0.19061,-12.72842 0.77698,-13.55489 0.59639,-0.84054 4.40058,-1.83722 16.36681,-4.28789 8.5744,-1.75605 15.81706,-3.33754 16.0948,-3.51442 3.34566,-4.156485 4.41872,-9.274485 7.34391,-13.735045 0.51211,-1.42674 -0.30181,-3.09229 -7.95975,-16.28817 -10.80583,-20.66197 -10.05517,-14.52429 -0.40817,-24.37214 4.32612,-4.46773 8.31645,-8.12312 8.86741,-8.12312 0.55096,0 7.21529,4.20776 14.80965,9.35062 7.59435,5.14282 14.02459,9.35061 14.28942,9.35061 0.26483,0 2.47691,-0.95015 4.91571,-2.11143 2.43879,-1.1613 4.8466,-2.11143 5.3506,-2.11143 0.78603,0 0.91638,1.15049 0.91638,8.08955 l 0,8.08955 -4.34004,2.45486 c -8.80862,4.98239 -16.10851,12.18257 -21.63377,21.3381 -3.05243,5.058045 -5.56474,12.514175 -5.97607,14.711375 -0.50189,3.03827 -0.61153,4.06675 -0.69226,6.3672 -0.23659,1.09483 -0.41447,5.65543 -0.39527,10.13467 0.0389,9.06052 1.24156,15.48075 4.30997,23.0073 5.99829,14.71327 18.4388,26.9662 32.95881,32.46175 7.13871,2.70187 10.02342,3.41516 19.47143,4.2207 6.41867,-8.9e-4 9.05548,0.40003 14.93035,-1.48179 4.64972,-0.28427 14.60883,-5.12235 21.0355,-10.21894 4.66258,-3.69756 10.71462,-10.56811 13.66826,-15.51678 1.38642,-2.32292 2.81884,-4.06285 3.27197,-3.97442 0.44326,0.0865 3.88885,4.77228 7.65687,10.4128 6.60368,9.88533 6.9232,10.25576 8.85238,10.26246 1.10074,0.002 2.29713,0.20227 2.65858,0.44061 1.1282,0.74443 10.17177,16.52633 10.17177,17.7507 0,1.12072 -15.62608,17.69603 -16.68261,17.69603 -0.27038,0 -6.74126,-4.21953 -14.37963,-9.37672 l -13.88799,-9.3767 -4.41668,2.2523 c -3.17553,1.77385 -5.96555,3.54754 -9.2147,5.12472 -1.45011,0.44773 -2.61536,1.24619 -2.9044,1.99004 -0.26548,0.68325 -1.95948,7.89327 -3.76442,16.02228 -2.81974,12.69949 -3.48902,14.97108 -4.75465,16.13735 -1.4208,1.30928 -1.87712,1.35735 -12.8813,1.35735 -11.09073,0 -11.44539,-0.0382 -12.74127,-1.37377 z m 66.25716,-78.39391 0,0 z"
       style="fill:#000000;display:inline" />
  </g>
  <g
     inkscape:groupmode="layer"
     id="layer4"
     inkscape:label="Capa#3"
     style="display:inline">
    <text
       xml:space="preserve"
       style="font-size:120px;font-style:normal;font-weight:normal;fill:#000000;fill-opacity:1;stroke:#ffffff;stroke-width:3.5;stroke-miterlimit:4;stroke-opacity:1;stroke-dasharray:none;font-family:Bitstream Vera Sans"
       x="228.64406"
       y="355.18643"
       id="text3634"><tspan
         sodipodi:role="line"
         id="tspan3636"
         x="228.64406"
         y="355.18643"
         style="font-weight:bold;fill:#c83200;fill-opacity:1;stroke:#ffffff;stroke-width:3.5;stroke-miterlimit:4;stroke-opacity:1;stroke-dasharray:none;-inkscape-font-specification:Andale Mono Bold">aKademy-es</tspan></text>
    <text
       id="text3638"
       y="199.15254"
       x="457.72879"
       style="font-size:170px;font-style:normal;font-weight:normal;fill:#000000;fill-opacity:1;stroke:#ffffff;stroke-width:3;stroke-miterlimit:4;stroke-opacity:1;stroke-dasharray:none;font-family:Bitstream Vera Sans"
       xml:space="preserve"><tspan
         style="font-size:170px;font-weight:bold;fill:#c83200;fill-opacity:1;stroke:#ffffff;stroke-width:3;stroke-miterlimit:4;stroke-opacity:1;stroke-dasharray:none;-inkscape-font-specification:Andale Mono Bold"
         y="199.15254"
         x="457.72879"
         id="tspan3640"
         sodipodi:role="line">2010</tspan></text>
    <text
       id="text2862"
       y="252.27116"
       x="577.15253"
       style="font-size:40px;font-style:normal;font-weight:normal;fill:#005dff;fill-opacity:0.40784314;stroke:#005dff;stroke-width:1;stroke-miterlimit:4;stroke-opacity:1;stroke-dasharray:none;font-family:Bitstream Vera Sans"
       xml:space="preserve"><tspan
         style="font-size:40px;font-weight:bold;fill:#005dff;fill-opacity:0.40784314;stroke:#005dff;stroke-width:1;stroke-miterlimit:4;stroke-opacity:1;stroke-dasharray:none;-inkscape-font-specification:Andale Mono Bold"
         y="252.27116"
         x="577.15253"
         id="tspan2864"
         sodipodi:role="line">maiatzak 7-9 mayo</tspan></text>
    <text
       xml:space="preserve"
       style="font-size:40px;font-style:normal;font-weight:normal;fill:#005dff;fill-opacity:0.40784314;stroke:#0050ff;stroke-width:1;stroke-miterlimit:4;stroke-opacity:1;stroke-dasharray:none;font-family:Bitstream Vera Sans"
       x="419.15253"
       y="54.271156"
       id="text2905"><tspan
         sodipodi:role="line"
         id="tspan2907"
         x="419.15253"
         y="54.271156"
         style="font-size:40px;font-weight:bold;fill:#005dff;fill-opacity:0.40784314;stroke:#0050ff;stroke-width:1;stroke-miterlimit:4;stroke-opacity:1;stroke-dasharray:none;-inkscape-font-specification:Andale Mono Bold">Bilbo/Bilbao</tspan></text>
  </g>
  <path
     style="fill:#c83200;fill-opacity:1;stroke:#ffffff;stroke-width:4;stroke-miterlimit:4;stroke-opacity:1;stroke-dasharray:none"
     d="m 137.17894,310.11885 c -1.39618,-2.02559 -8.01241,-11.6996 -14.70275,-21.49776 l -12.16426,-17.81484 -0.0969,18.83478 c -0.0742,14.44129 -0.20531,18.92414 -0.56143,19.21797 -0.59004,0.48685 -22.78519,3.9005 -24.36371,3.74719 l -1.177801,-0.11437 -0.09487,-49.7598 c -0.0655,-34.28871 0.02703,-49.88239 0.296958,-50.15417 0.585132,-0.58875 24.709183,-2.842 25.559023,-2.38727 0.65423,0.35005 0.67271,1.2232 0.42522,20.08082 -0.22777,17.35674 -0.19285,19.64769 0.29202,19.15344 0.47803,-0.48735 14.57859,-19.3359 25.27013,-33.77921 1.94288,-2.62467 3.74422,-4.77212 4.00294,-4.77212 0.71267,0 25.96694,5.90546 26.40072,6.17355 0.97047,0.59978 -0.082,2.32192 -6.24879,10.22456 -12.42661,15.92457 -23.53441,30.198 -24.53849,31.53178 l -1.0023,1.33144 c 26.04663,37.73689 5.30001,9.39643 30.18554,43.06727 0.98003,1.2849 0.98975,1.34408 0.30272,1.84645 -1.04251,0.97113 -1.19569,0.72445 -2.53563,1.41955 0.19245,0.19242 -21.44437,7.33372 -22.2199,7.33372 -0.2694,0 -1.63211,-1.65733 -3.02829,-3.68294 z"
     id="path2836-4"
     sodipodi:nodetypes="ccccscccsssssssscccccsc" />
  <path
     style="fill:#c83200;fill-opacity:1;stroke:#ffffff;stroke-width:3;stroke-miterlimit:4;stroke-opacity:1;stroke-dasharray:none"
     d="m 261.36574,152.40719 c -6.27407,-1.31905 -11.29562,-3.16012 -17.32306,-6.35116 -6.61227,-3.50065 -10.01892,-4.45519 -15.79455,-4.42564 -7.29105,0.0373 -16.42764,2.46927 -27.4444,7.30496 -2.5598,1.12362 -4.94079,2.16345 -5.29108,2.31078 -0.42348,0.17809 -0.63657,-0.2199 -0.63595,-1.18781 5.2e-4,-1.15771 0.44392,-1.73553 2.16538,-2.82311 4.65306,-2.93971 4.81703,-3.31216 5.11715,-11.62483 0.30141,-8.34799 1.29488,-12.9662 4.0911,-19.01831 5.09346,-11.02411 13.40177,-17.154601 24.41767,-18.017144 3.03085,-0.237316 3.82821,-0.453941 3.43125,-0.932227 -0.28438,-0.342683 -1.20862,-3.323518 -2.05382,-6.62407 -1.76609,-6.896532 -2.61594,-8.591888 -4.83472,-9.644767 -5.66576,-2.68857 -13.24057,7.213777 -9.3255,12.19096 1.00602,1.278977 1.30223,1.370393 3.43915,1.061481 4.07136,-0.588552 4.37627,-0.572948 4.37627,0.223947 0,1.003902 -5.79747,3.927906 -8.63015,4.352692 -2.70085,0.405015 -5.475,-0.742404 -6.32955,-2.617961 -1.59642,-3.503798 0.12387,-10.510015 3.81018,-15.517509 3.34662,-4.546049 4.46376,-5.064588 10.91607,-5.066878 l 5.37107,-0.0022 2.1214,2.165382 c 1.16677,1.190962 2.79008,3.39015 3.60731,4.887078 l 1.48592,2.721697 1.67742,-2.335785 c 4.57902,-6.376172 11.09285,-7.144569 16.43518,-1.938744 3.80234,3.705228 4.22096,9.689436 0.87476,12.505073 -1.24763,1.049816 -5.24507,2.375365 -7.16335,2.375365 -0.88484,0 -0.50077,-1.865301 0.58674,-2.849465 2.70821,-2.450921 3.21782,-5.679291 1.15288,-7.303588 -3.88318,-3.054513 -8.69205,0.90347 -9.94632,8.186422 -0.30695,1.78221 -0.76958,3.506568 -1.02817,3.831901 -0.58665,0.738218 -0.36462,0.864828 3.40066,1.9393 9.00274,2.569 14.46407,7.37815 21.81328,19.20829 5.27209,8.48657 8.8762,12.98049 10.79707,13.46259 2.14585,0.53856 5.46181,-1.89025 6.38032,-4.67336 0.89229,-2.7037 -0.11414,-5.07478 -4.41563,-10.40304 -4.33093,-5.3647 -5.27869,-7.17717 -5.27869,-10.09469 0,-4.6706 4.70984,-5.37307 12.01738,-1.79236 l 2.59157,1.26985 1.90479,-1.29261 c 3.08608,-2.09426 7.37659,-3.49606 10.91482,-3.5661 2.86329,-0.0567 3.34328,0.0791 4.256,1.20391 1.85614,2.2874 0.60486,6.4344 -4.17087,13.82338 -1.12123,1.73477 -2.03862,3.73004 -2.03862,4.43394 0,0.70391 0.81941,2.77052 1.82087,4.59246 1.00147,1.82196 2.2499,5.02956 2.77429,7.128 0.5244,2.09844 1.25263,4.01692 1.61829,4.26329 1.03326,0.69618 3.70271,0.1076 7.54497,-1.66329 3.24399,-1.49528 5.09315,-1.69537 5.09315,-0.55111 0,0.25498 -1.20369,1.48391 -2.67488,2.73088 -8.77397,7.43693 -18.87201,12.28675 -29.96386,14.39085 -5.92358,1.12367 -17.72762,1.00046 -23.66119,-0.24702 l 0,1.6e-4 0,1.3e-4 z m 24.92404,-6.59613 c 4.56513,-1.16759 7.13606,-2.43698 9.33996,-4.61166 2.55931,-2.52536 2.42227,-4.54467 -0.77677,-11.44829 -3.81883,-8.24114 -3.63006,-10.94274 1.22272,-17.49917 l 2.39305,-3.23317 -3.01169,1.55073 c -1.65642,0.85294 -3.69953,2.01973 -4.54022,2.59293 -2.06968,1.41117 -2.71456,1.33415 -6.14968,-0.73437 -1.62878,-0.98079 -3.28954,-1.78327 -3.69063,-1.78327 -0.83755,0 -0.93045,-0.13824 3.32697,4.94934 3.63159,4.33968 4.74197,6.71316 5.09159,10.88361 0.27027,3.2234 0.16184,3.78415 -1.30927,6.77242 -2.91444,5.92008 -8.62239,8.58916 -14.32063,6.69651 -3.6268,-1.20462 -7.49122,-5.11537 -12.59216,-12.74307 -8.17899,-12.23043 -13.2054,-16.67347 -21.12985,-18.67739 -13.16218,-3.32843 -23.57402,3.0855 -27.39567,16.87641 -1.41534,5.10746 -1.98256,11.73685 -1.00405,11.73474 0.39056,-0.002 3.11754,-0.4915 6.05991,-1.09034 3.47343,-0.7069 7.31543,-1.09612 10.95428,-1.10972 6.8637,-0.0254 11.15694,1.12844 17.73039,4.76592 7.53764,4.17107 12.80573,5.94313 21.04686,7.07972 4.86515,0.67099 14.2284,0.18578 18.75489,-0.97188 z m -27.92805,-57.955845 -1e-5,0 c 0,4e-6 1e-5,0 1e-5,0 z"
     id="path2818"
     sodipodi:nodetypes="cssssssssssssssssssccccccssssssssssssscccssssssssssscccccccsssssssssssssssccsccc" />
  <path
     style="fill:#c83200;fill-opacity:1;stroke:#ffffff;stroke-width:3;stroke-miterlimit:4;stroke-opacity:1;stroke-dasharray:none"
     d="m 330.16293,56.949933 c -0.7065,-0.594483 -0.82468,-0.615754 -1.90692,-0.343246 -1.98161,0.498976 -4.55273,0.18403 -6.35959,-0.779009 -3.48736,-1.858758 -5.2758,-5.419232 -5.28464,-10.520834 -0.01,-4.774507 1.86779,-8.412382 5.29707,-10.271683 1.48764,-0.806565 1.72793,-0.85864 3.96196,-0.85864 2.05668,0 2.57192,0.09076 3.81033,0.671199 2.50608,1.174589 4.27498,3.440019 5.09696,6.527678 0.42392,1.592407 0.49869,12.803503 0.0951,14.256741 -0.36188,1.30312 -1.27841,1.951555 -2.75829,1.951555 -0.91743,0 -1.37553,-0.148739 -1.95194,-0.633761 l -4e-5,0 z m -2.1964,-7.134276 c 0.82476,-0.980187 0.98721,-1.930921 0.86527,-5.064468 -0.11111,-2.855063 -0.44496,-3.667203 -1.72561,-4.19766 -0.95396,-0.395146 -2.40326,-0.159272 -3.11191,0.506462 -0.74719,0.701935 -1.17178,2.242268 -1.17178,4.250828 0,2.192475 0.42332,3.678137 1.29694,4.551769 0.59155,0.591551 0.92195,0.711472 1.9602,0.711472 1.08282,0 1.3335,-0.100748 1.88689,-0.758403 z m -55.05729,6.997319 c -0.42063,-0.120829 -1.04026,-0.512755 -1.37689,-0.870951 l -0.61206,-0.651265 -0.071,-9.875845 c -0.0631,-8.796903 -0.0254,-9.971996 0.3467,-10.755905 0.95427,-2.010987 3.94746,-2.157198 5.19464,-0.253748 0.36595,0.558535 0.41269,1.762446 0.41269,10.633213 l 0,10.003362 -0.63686,0.75686 c -0.84653,1.006047 -2.01702,1.370525 -3.25727,1.014279 l 5e-5,0 z m 3.14309,-22.096967 c 0,-0.0475 -0.25347,-0.300976 -0.56326,-0.563273 l -0.56328,-0.476903 0.47689,0.563274 c 0.44817,0.52934 0.64965,0.677241 0.64965,0.476902 z m 12.27811,22.108612 c -2.34308,-0.491019 -4.52566,-2.531964 -5.29822,-4.954453 -0.17339,-0.543604 -0.33949,-3.304124 -0.4057,-6.741095 l -0.11209,-5.820497 -1.04741,0 c -1.2054,0 -2.00387,-0.473593 -2.53716,-1.50483 -1.08302,-2.094343 0.32892,-4.471876 2.66915,-4.494557 l 0.91532,-0.0088 0.0909,-3.567402 c 0.0997,-3.911713 0.37319,-4.84808 1.57628,-5.396246 0.90003,-0.410071 2.26313,-0.375099 3.14449,0.08067 1.27243,0.65799 1.49388,1.453414 1.49388,5.365729 l 0,3.517248 1.76483,0 c 1.08784,0 2.04655,0.14567 2.49921,0.379754 1.36658,0.706683 1.89002,2.63423 1.11978,4.123676 -0.62976,1.217812 -1.28525,1.504827 -3.43677,1.504827 l -1.94705,0 0,5.376629 0,5.376624 0.59706,0.391212 c 0.46454,0.30438 0.95807,0.354222 2.22364,0.224563 1.33306,-0.136576 1.76669,-0.08387 2.40302,0.292007 2.10514,1.243538 1.89631,4.568436 -0.34577,5.505239 -1.09898,0.459181 -3.95666,0.645405 -5.3674,0.349772 l 0,-9e-6 1e-5,-6.1e-5 z m 12.05482,-0.487622 c -4.78031,-1.720007 -6.4032,-5.974895 -2.91096,-7.632062 1.20816,-0.573323 2.31189,-0.344019 3.6251,0.75315 1.28151,1.070664 1.7552,1.195198 4.09662,1.076958 1.37299,-0.06933 1.99049,-0.216544 2.37753,-0.56681 1.24919,-1.130508 0.23548,-1.816293 -2.97658,-2.013659 -3.65761,-0.22474 -5.14525,-0.735726 -6.84849,-2.352401 -1.31087,-1.244231 -1.96247,-2.61251 -2.10809,-4.42674 -0.18996,-2.366424 0.42299,-4.109332 2.01632,-5.733228 1.81769,-1.852567 3.35743,-2.392238 6.82534,-2.392238 3.90412,0 6.25542,0.984281 7.82991,3.277712 0.47093,0.685972 0.56374,1.087374 0.47406,2.050268 -0.13385,1.436989 -0.86489,2.327242 -2.20808,2.688924 -1.18793,0.319874 -2.05591,0.0059 -3.2853,-1.188519 -0.77746,-0.755316 -1.14485,-0.919749 -2.25311,-1.00844 -1.56834,-0.125507 -2.52856,0.193001 -3.06916,1.018068 -0.43956,0.670823 -0.30876,1.297001 0.32488,1.555396 0.23029,0.09393 1.76226,0.268093 3.40433,0.387049 2.41791,0.175157 3.23781,0.339677 4.31199,0.865223 1.4093,0.689512 2.77411,2.086644 3.50331,3.586307 0.63779,1.311626 0.75688,4.282979 0.22725,5.669774 -0.5021,1.314735 -1.99491,2.916126 -3.37443,3.619915 -2.52625,1.288788 -7.47351,1.668092 -9.98244,0.765353 z m 41.88308,0.145472 c -2.10478,-0.665659 -4.07124,-2.079771 -4.76931,-3.429703 -0.9121,-1.763802 -0.0775,-3.873328 1.77425,-4.484455 1.16659,-0.385014 2.02736,-0.15603 3.35078,0.891396 1.37008,1.084369 1.79413,1.193247 4.17841,1.072848 1.62857,-0.08223 1.97249,-0.180742 2.37751,-0.680919 0.26043,-0.321625 0.47352,-0.682348 0.47352,-0.801609 0,-0.582584 -1.27652,-0.961341 -3.7288,-1.106381 -2.9448,-0.174171 -4.43724,-0.597588 -5.96281,-1.691671 -2.07458,-1.487825 -2.95398,-3.483948 -2.7707,-6.289224 0.13456,-2.06021 0.74655,-3.447243 2.10164,-4.763306 1.63684,-1.589665 2.85048,-2.005943 6.15012,-2.109456 3.15877,-0.09909 4.67925,0.218041 6.4844,1.352503 3.18023,1.998623 3.30914,5.735285 0.22831,6.618851 -1.16609,0.334431 -1.96218,0.07627 -3.17582,-1.029886 -1.21541,-1.10781 -1.91224,-1.335833 -3.52624,-1.153908 -0.84998,0.0958 -1.32087,0.311493 -1.73752,0.795868 -1.22789,1.427509 -0.5389,1.879526 3.29491,2.161654 1.52223,0.112022 3.17465,0.322657 3.67203,0.468081 1.90545,0.557098 3.84611,2.528525 4.61725,4.690477 0.42479,1.190906 0.45434,3.337594 0.064,4.640837 -0.66115,2.206723 -3.35991,4.277329 -6.41141,4.919158 -1.74439,0.366902 -5.4231,0.327739 -6.68439,-0.07115 l -1.3e-4,-5e-6 z M 271.76827,29.592874 c -1.5669,-1.400028 -1.15146,-4.691844 0.68918,-5.460915 1.45361,-0.607363 2.53809,-0.450204 3.49475,0.506451 0.78495,0.784951 0.85117,0.971924 0.85117,2.403304 0,1.43138 -0.0661,1.618355 -0.85117,2.403305 -0.74478,0.744779 -1.01026,0.851167 -2.12397,0.851167 -1.04136,0 -1.41595,-0.127893 -2.05996,-0.703312 z"
     id="path2818-8"
     sodipodi:nodetypes="cssssssssscccssssscccccccccccccccscccsscccsscccccssscccsscccscccssssssssssccsssssssscscssssssssssccssssssssscscsssccs" />
</svg>
