<?xml version="1.0" encoding="UTF-8" standalone="no"?>
<!-- Created with Inkscape (http://www.inkscape.org/) -->

<svg
   xmlns:dc="http://purl.org/dc/elements/1.1/"
   xmlns:cc="http://creativecommons.org/ns#"
   xmlns:rdf="http://www.w3.org/1999/02/22-rdf-syntax-ns#"
   xmlns:svg="http://www.w3.org/2000/svg"
   xmlns="http://www.w3.org/2000/svg"
   xmlns:xlink="http://www.w3.org/1999/xlink"
   xmlns:sodipodi="http://sodipodi.sourceforge.net/DTD/sodipodi-0.dtd"
   xmlns:inkscape="http://www.inkscape.org/namespaces/inkscape"
   id="svg2"
   version="1.1"
   inkscape:version="0.47pre4 r22446"
   width="380"
   height="384"
   sodipodi:docname="ak002.svg">
  <metadata
     id="metadata8">
    <rdf:RDF>
      <cc:Work
         rdf:about="">
        <dc:format>image/svg+xml</dc:format>
        <dc:type
           rdf:resource="http://purl.org/dc/dcmitype/StillImage" />
        <dc:title></dc:title>
      </cc:Work>
    </rdf:RDF>
  </metadata>
  <defs
     id="defs6">
    <inkscape:perspective
       sodipodi:type="inkscape:persp3d"
       inkscape:vp_x="0 : 0.5 : 1"
       inkscape:vp_y="0 : 1000 : 0"
       inkscape:vp_z="1 : 0.5 : 1"
       inkscape:persp3d-origin="0.5 : 0.33333333 : 1"
       id="perspective10" />
    <inkscape:perspective
       id="perspective2833"
       inkscape:persp3d-origin="0.5 : 0.33333333 : 1"
       inkscape:vp_z="1 : 0.5 : 1"
       inkscape:vp_y="0 : 1000 : 0"
       inkscape:vp_x="0 : 0.5 : 1"
       sodipodi:type="inkscape:persp3d" />
    <inkscape:perspective
       id="perspective2856"
       inkscape:persp3d-origin="0.5 : 0.33333333 : 1"
       inkscape:vp_z="1 : 0.5 : 1"
       inkscape:vp_y="0 : 1000 : 0"
       inkscape:vp_x="0 : 0.5 : 1"
       sodipodi:type="inkscape:persp3d" />
    <inkscape:perspective
       id="perspective2878"
       inkscape:persp3d-origin="0.5 : 0.33333333 : 1"
       inkscape:vp_z="1 : 0.5 : 1"
       inkscape:vp_y="0 : 1000 : 0"
       inkscape:vp_x="0 : 0.5 : 1"
       sodipodi:type="inkscape:persp3d" />
    <inkscape:perspective
       id="perspective2878-9"
       inkscape:persp3d-origin="0.5 : 0.33333333 : 1"
       inkscape:vp_z="1 : 0.5 : 1"
       inkscape:vp_y="0 : 1000 : 0"
       inkscape:vp_x="0 : 0.5 : 1"
       sodipodi:type="inkscape:persp3d" />
    <inkscape:perspective
       id="perspective2878-8"
       inkscape:persp3d-origin="0.5 : 0.33333333 : 1"
       inkscape:vp_z="1 : 0.5 : 1"
       inkscape:vp_y="0 : 1000 : 0"
       inkscape:vp_x="0 : 0.5 : 1"
       sodipodi:type="inkscape:persp3d" />
    <inkscape:perspective
       id="perspective2918"
       inkscape:persp3d-origin="0.5 : 0.33333333 : 1"
       inkscape:vp_z="1 : 0.5 : 1"
       inkscape:vp_y="0 : 1000 : 0"
       inkscape:vp_x="0 : 0.5 : 1"
       sodipodi:type="inkscape:persp3d" />
    <inkscape:perspective
       id="perspective2941"
       inkscape:persp3d-origin="0.5 : 0.33333333 : 1"
       inkscape:vp_z="1 : 0.5 : 1"
       inkscape:vp_y="0 : 1000 : 0"
       inkscape:vp_x="0 : 0.5 : 1"
       sodipodi:type="inkscape:persp3d" />
    <inkscape:perspective
       id="perspective2963"
       inkscape:persp3d-origin="0.5 : 0.33333333 : 1"
       inkscape:vp_z="1 : 0.5 : 1"
       inkscape:vp_y="0 : 1000 : 0"
       inkscape:vp_x="0 : 0.5 : 1"
       sodipodi:type="inkscape:persp3d" />
    <inkscape:perspective
       id="perspective2985"
       inkscape:persp3d-origin="0.5 : 0.33333333 : 1"
       inkscape:vp_z="1 : 0.5 : 1"
       inkscape:vp_y="0 : 1000 : 0"
       inkscape:vp_x="0 : 0.5 : 1"
       sodipodi:type="inkscape:persp3d" />
    <inkscape:perspective
       id="perspective3007"
       inkscape:persp3d-origin="0.5 : 0.33333333 : 1"
       inkscape:vp_z="1 : 0.5 : 1"
       inkscape:vp_y="0 : 1000 : 0"
       inkscape:vp_x="0 : 0.5 : 1"
       sodipodi:type="inkscape:persp3d" />
    <inkscape:perspective
       id="perspective3029"
       inkscape:persp3d-origin="0.5 : 0.33333333 : 1"
       inkscape:vp_z="1 : 0.5 : 1"
       inkscape:vp_y="0 : 1000 : 0"
       inkscape:vp_x="0 : 0.5 : 1"
       sodipodi:type="inkscape:persp3d" />
    <inkscape:perspective
       id="perspective3051"
       inkscape:persp3d-origin="0.5 : 0.33333333 : 1"
       inkscape:vp_z="1 : 0.5 : 1"
       inkscape:vp_y="0 : 1000 : 0"
       inkscape:vp_x="0 : 0.5 : 1"
       sodipodi:type="inkscape:persp3d" />
    <inkscape:perspective
       id="perspective3073"
       inkscape:persp3d-origin="0.5 : 0.33333333 : 1"
       inkscape:vp_z="1 : 0.5 : 1"
       inkscape:vp_y="0 : 1000 : 0"
       inkscape:vp_x="0 : 0.5 : 1"
       sodipodi:type="inkscape:persp3d" />
    <inkscape:perspective
       id="perspective3168"
       inkscape:persp3d-origin="0.5 : 0.33333333 : 1"
       inkscape:vp_z="1 : 0.5 : 1"
       inkscape:vp_y="0 : 1000 : 0"
       inkscape:vp_x="0 : 0.5 : 1"
       sodipodi:type="inkscape:persp3d" />
    <inkscape:perspective
       id="perspective3199"
       inkscape:persp3d-origin="0.5 : 0.33333333 : 1"
       inkscape:vp_z="1 : 0.5 : 1"
       inkscape:vp_y="0 : 1000 : 0"
       inkscape:vp_x="0 : 0.5 : 1"
       sodipodi:type="inkscape:persp3d" />
    <inkscape:perspective
       id="perspective2946"
       inkscape:persp3d-origin="0.5 : 0.33333333 : 1"
       inkscape:vp_z="1 : 0.5 : 1"
       inkscape:vp_y="0 : 1000 : 0"
       inkscape:vp_x="0 : 0.5 : 1"
       sodipodi:type="inkscape:persp3d" />
    <inkscape:perspective
       id="perspective3351"
       inkscape:persp3d-origin="0.5 : 0.33333333 : 1"
       inkscape:vp_z="1 : 0.5 : 1"
       inkscape:vp_y="0 : 1000 : 0"
       inkscape:vp_x="0 : 0.5 : 1"
       sodipodi:type="inkscape:persp3d" />
    <inkscape:perspective
       id="perspective3004"
       inkscape:persp3d-origin="0.5 : 0.33333333 : 1"
       inkscape:vp_z="1 : 0.5 : 1"
       inkscape:vp_y="0 : 1000 : 0"
       inkscape:vp_x="0 : 0.5 : 1"
       sodipodi:type="inkscape:persp3d" />
    <inkscape:perspective
       id="perspective4196"
       inkscape:persp3d-origin="0.5 : 0.33333333 : 1"
       inkscape:vp_z="1 : 0.5 : 1"
       inkscape:vp_y="0 : 1000 : 0"
       inkscape:vp_x="0 : 0.5 : 1"
       sodipodi:type="inkscape:persp3d" />
  </defs>
  <sodipodi:namedview
     pagecolor="#ffffff"
     bordercolor="#666666"
     borderopacity="1"
     objecttolerance="10"
     gridtolerance="10"
     guidetolerance="10"
     inkscape:pageopacity="0"
     inkscape:pageshadow="2"
     inkscape:window-width="1680"
     inkscape:window-height="973"
     id="namedview4"
     showgrid="false"
     inkscape:zoom="1.2291667"
     inkscape:cx="88.045843"
     inkscape:cy="165.04102"
     inkscape:window-x="0"
     inkscape:window-y="25"
     inkscape:window-maximized="1"
     inkscape:current-layer="g3226" />
  <image
     xlink:href="file:///home/opositivo/Escritorio/logo%20akademy/baldosa.jpg"
     width="380"
     height="384"
     id="image12"
     x="0"
     y="0" />
  <g
     inkscape:groupmode="layer"
     id="layer8"
     inkscape:label="Fondo"
     style="display:inline">
    <rect
       style="fill:#000000;fill-opacity:1;fill-rule:evenodd;stroke:#000000;stroke-width:1px;stroke-linecap:butt;stroke-linejoin:miter;stroke-opacity:1"
       id="rect3370"
       width="382.37289"
       height="384.81357"
       x="-0.81355929"
       y="-2.0261217e-07" />
  </g>
  <g
     inkscape:groupmode="layer"
     id="layer1"
     inkscape:label="Azul"
     style="display:inline">
    <path
       style="fill:#0000ff;fill-rule:evenodd;stroke:#000000;stroke-width:1px;stroke-linecap:butt;stroke-linejoin:miter;stroke-opacity:1"
       d="m 17.09375,15.46875 0,97.625 41.5625,0 C 62.609788,85.931244 84.272666,64.548739 111.46875,61.25 l 0,-45.78125 -94.375,0 z"
       id="rect2823" />
    <path
       style="fill:#0000ff;fill-rule:evenodd;stroke:#000000;stroke-width:1px;stroke-linecap:butt;stroke-linejoin:miter;stroke-opacity:1;display:inline"
       d="m 264.5625,15.46875 0,46.3125 c 25.59574,4.589186 45.65065,25.28497 49.4375,51.3125 l 44.9375,0 0,-97.625 -94.375,0 z"
       id="rect2823-3" />
    <path
       style="fill:#0000ff;fill-rule:evenodd;stroke:#000000;stroke-width:1px;stroke-linecap:butt;stroke-linejoin:miter;stroke-opacity:1;display:inline"
       d="m 315.1875,263.84375 c -2.6846,28.03674 -24.16369,50.52036 -51.59375,54.59375 l 0,43.03125 94.375,0 0,-97.625 -42.78125,0 z"
       id="rect2823-3-8" />
    <path
       style="fill:#0000ff;fill-rule:evenodd;stroke:#000000;stroke-width:1px;stroke-linecap:butt;stroke-linejoin:miter;stroke-opacity:1;display:inline"
       d="m 17.59375,263.53125 0,97.625 91.84375,0 c -0.59299,-1.28191 -1.14022,-3.31567 -1.8125,-6.65625 -0.73269,-3.64073 -2.14164,-10.64008 -3.15625,-15.5625 l -1.84375,-8.96875 -5.0625,-2 c -2.772005,-1.10245 -6.117555,-2.55602 -7.4375,-3.25 -1.319922,-0.69401 -2.610546,-1.28125 -2.875,-1.28125 -0.264466,0 -6.543021,3.79577 -13.9375,8.4375 -7.906278,4.96302 -14.030798,8.46513 -14.90625,8.46875 -1.14422,0.002 -3.50824,-2.06338 -10.125,-8.9375 -5.597543,-5.81526 -8.59375,-9.39542 -8.59375,-10.21875 0,-0.69646 2.322051,-4.89098 5.15625,-9.3125 2.834196,-4.42149 6.763671,-10.61261 8.75,-13.78125 l 3.625,-5.78125 -2.28125,-5.4375 c -1.256184,-3.00294 -2.702309,-6.98162 -3.21875,-8.8125 l -0.9375,-3.3125 -15.0625,-3.78125 c -8.279476,-2.0729 -15.530348,-4.17686 -16.09375,-4.6875 -0.447574,-0.40563 -0.700166,-0.98246 -0.84375,-2.75 l -1.1875,0 z"
       id="rect2823-3-8-5" />
    <path
       style="fill:#0000ff;fill-rule:evenodd;stroke:#000000;stroke-width:1px;stroke-linecap:butt;stroke-linejoin:miter;stroke-opacity:1;display:inline"
       d="m 17.90625,143.1875 0,97.625 1.0625,0 c 0.108814,-0.75588 0.266365,-1.22754 0.4375,-1.46875 0.596389,-0.84054 4.377526,-1.86183 16.34375,-4.3125 8.574405,-1.75605 15.816011,-3.32312 16.09375,-3.5 3.345656,-4.15649 4.418563,-9.28944 7.34375,-13.75 C 59.69961,216.35451 58.907938,214.69588 51.25,201.5 40.444168,180.83803 41.196748,186.97285 50.84375,177.125 55.16987,172.65727 59.136543,169 59.6875,169 c 0.550955,0 7.218142,4.23214 14.8125,9.375 7.594355,5.14282 14.016426,9.34375 14.28125,9.34375 0.264837,0 2.498699,-0.96372 4.9375,-2.125 C 96.15754,184.43245 98.5585,183.5 99.0625,183.5 l 5.50844,14.21168 c 3.93309,-1.4123 3.45043,-0.7006 7.71031,-1.27418 l 0,-13.53125 C 88.943427,180.39705 69.550346,164.61158 61.71875,143.1875 l -43.8125,0 z"
       id="rect2823-3-8-5-6"
       sodipodi:nodetypes="cccssccccsssscccccc" />
    <path
       style="fill:#0000ff;fill-rule:evenodd;stroke:#000000;stroke-width:1px;stroke-linecap:butt;stroke-linejoin:miter;stroke-opacity:1;display:inline"
       d="m 310.9375,143.1875 c -7.34957,20.10545 -24.89411,35.23105 -46.3125,39.09375 l 0,15.21875 c 23.20951,3.85859 41.96,20.94709 48.40625,43.3125 l 45.9375,0 0,-97.625 -48.03125,0 z"
       id="rect2823-3-8-5-6-1" />
    <path
       style="fill:#0000ff;fill-rule:evenodd;stroke:#000000;stroke-width:1px;stroke-linecap:butt;stroke-linejoin:miter;stroke-opacity:1;display:inline"
       d="m 143.1875,15.46875 0,50.46875 c 18.85639,8.310938 32.6975,25.96956 35.78125,47.15625 l 14.6875,0 c 3.509,-24.117846 20.99549,-43.64093 43.90625,-50.03125 l 0,-47.59375 -94.375,0 z"
       id="rect2823-3-8-5-6-1-1" />
    <path
       style="fill:#0000ff;fill-rule:evenodd;stroke:#000000;stroke-width:1px;stroke-linecap:butt;stroke-linejoin:miter;stroke-opacity:1;display:inline"
       d="m 180.78125,264.40625 c -0.9562,9.70296 -1.93819,10.56852 -4.1875,18.78125 10.02838,16.27992 18.55394,21.85454 29.34375,38.84375 0,1.12072 -15.63097,17.71875 -16.6875,17.71875 -0.27038,0 -6.73663,-4.21781 -14.375,-9.375 l -13.90625,-9.40625 -4.40625,2.28125 c -3.17553,1.77385 -5.9696,3.54782 -9.21875,5.125 -1.45011,0.44773 -2.61721,1.2249 -2.90625,1.96875 -0.0996,0.25622 -0.44316,1.64135 -0.875,3.4375 l 0,28.25 94.375,0 0,-45.28125 c -23.45921,-6.73632 -41.14797,-27.2685 -43.78125,-52.34375 l -13.375,0 z"
       id="rect2823-3-8-5-6-1-1-5"
       sodipodi:nodetypes="cccsccccscccccc" />
  </g>
  <g
     style="display:inline"
     inkscape:label="Circulos"
     id="g3226"
     inkscape:groupmode="layer">
    <path
       style="fill:#0000ff;fill-opacity:1;fill-rule:evenodd;stroke:#000000;stroke-width:0.88644564px;stroke-linecap:butt;stroke-linejoin:miter;stroke-opacity:1"
       d="m 124.875,88.21875 c -21.8232,0 -39.5,16.95043 -39.5,37.875 0,18.92084 14.469581,34.60771 33.375,37.4375 7.6339,-20.81989 24.18173,-37.24985 44.9375,-44.625 -3.50784,-17.48093 -19.55719,-30.6875 -38.8125,-30.6875 z"
       id="path3228" />
    <path
       style="fill:#0000ff;fill-opacity:1;fill-rule:evenodd;stroke:#000000;stroke-width:0.88644564px;stroke-linecap:butt;stroke-linejoin:miter;stroke-opacity:1"
       d="m 254.875,88.21875 c -19.67428,0 -35.97751,13.79668 -39,31.84375 19.42668,7.90038 34.79689,23.86625 42,43.8125 20.418,-1.47354 36.53125,-17.82697 36.53125,-37.78125 0,-20.92457 -17.70805,-37.875 -39.53125,-37.875 z"
       id="path3230" />
    <path
       style="fill:#0000ff;fill-opacity:1;fill-rule:evenodd;stroke:#000000;stroke-width:0.88644564px;stroke-linecap:butt;stroke-linejoin:miter;stroke-opacity:1"
       d="m 254.9375,222.21875 c -8.08376,16.83908 -22.22887,30.13069 -39.5625,37.03125 -0.007,0.28319 0,0.55906 0,0.84375 0,20.92457 17.6768,37.90625 39.5,37.90625 21.8232,0 39.53125,-16.98168 39.53125,-37.90625 0,-20.90445 -17.67447,-37.84243 -39.46875,-37.875 z"
       id="path3232" />
    <path
       style="fill:#0000ff;fill-opacity:1;fill-rule:evenodd;stroke:#000000;stroke-width:0.88644564px;stroke-linecap:butt;stroke-linejoin:miter;stroke-opacity:1"
       d="m 121.71875,222.5625 c -19.37751,2.43059 -34.34375,18.28867 -34.34375,37.53125 0,20.92457 17.6768,37.90625 39.5,37.90625 21.466,0 38.9339,-16.42393 39.5,-36.875 -19.59888,-6.11584 -35.73513,-20.21829 -44.65625,-38.5625 z"
       id="path3234" />
  </g>
  <g
     inkscape:groupmode="layer"
     id="layer3"
     inkscape:label="Centro"
     style="display:none">
    <path
       sodipodi:type="arc"
       style="fill:#0000ff;fill-opacity:1;fill-rule:evenodd;stroke:#000000;stroke-width:1px;stroke-linecap:butt;stroke-linejoin:miter;stroke-opacity:1;display:inline"
       id="path2821-96"
       sodipodi:cx="196.06779"
       sodipodi:cy="194.03391"
       sodipodi:rx="46.372883"
       sodipodi:ry="41.084747"
       d="m 242.44068,194.03391 a 46.372883,41.084747 0 1 1 -92.74577,0 46.372883,41.084747 0 1 1 92.74577,0 z"
       transform="matrix(0.99918667,0,0,1.1574978,-7.6980458,-32.593818)" />
  </g>
  <g
     inkscape:groupmode="layer"
     id="layer2"
     inkscape:label="Ref circulo"
     style="display:none">
    <path
       transform="matrix(1.3114982,0,0,1.4902058,-137.54934,-168.74368)"
       d="m 242.44068,194.03391 a 46.372883,41.084747 0 1 1 -92.74577,0 46.372883,41.084747 0 1 1 92.74577,0 z"
       sodipodi:ry="41.084747"
       sodipodi:rx="46.372883"
       sodipodi:cy="194.03391"
       sodipodi:cx="196.06779"
       id="path3154"
       style="fill:#ff0000;fill-rule:evenodd;stroke:#000000;stroke-width:1px;stroke-linecap:butt;stroke-linejoin:miter;stroke-opacity:1"
       sodipodi:type="arc" />
  </g>
  <g
     inkscape:groupmode="layer"
     id="layer5"
     inkscape:label="Engranaje"
     style="display:inline">
    <path
       style="fill:#000000;stroke:#00ff00;stroke-width:4;stroke-miterlimit:4;stroke-opacity:1;stroke-dasharray:none"
       d="m 110.29966,362.49427 c -0.97842,-1.00838 -1.68726,-3.13426 -2.66512,-7.99328 -0.73269,-3.64073 -2.16228,-10.64696 -3.17689,-15.56938 l -1.84474,-8.9499 -5.04002,-2.00443 c -2.772005,-1.10245 -6.11996,-2.57223 -7.439905,-3.26621 -1.319922,-0.69401 -2.616268,-1.2618 -2.880722,-1.2618 -0.264466,0 -6.530916,3.7978 -13.925395,8.43953 -7.906278,4.96302 -14.057804,8.44209 -14.933256,8.44571 -1.14422,0.002 -3.480546,-2.06314 -10.097306,-8.93726 -5.597543,-5.81526 -8.608611,-9.38636 -8.608611,-10.20969 0,-0.69646 2.318902,-4.88381 5.153101,-9.30533 2.834196,-4.42149 6.77829,-10.63164 8.764619,-13.80028 l 3.611502,-5.76119 -2.283949,-5.45984 c -1.256184,-3.00294 -2.706522,-6.95784 -3.222963,-8.78872 l -0.938998,-3.32886 -15.053604,-3.76888 c -8.279476,-2.0729 -15.514562,-4.18666 -16.077964,-4.6973 -0.913449,-0.82784 -1.024363,-2.27755 -1.024363,-13.38816 0,-9.40308 0.190613,-12.72842 0.776984,-13.55489 0.596389,-0.84054 4.400584,-1.83722 16.366808,-4.28789 8.574405,-1.75605 15.817065,-3.33754 16.094804,-3.51442 3.345656,-4.15649 4.418721,-9.27449 7.343908,-13.73505 0.51211,-1.42674 -0.301807,-3.09229 -7.959745,-16.28817 -10.805832,-20.66197 -10.055178,-14.52429 -0.408176,-24.37214 4.32612,-4.46773 8.316456,-8.12312 8.867413,-8.12312 0.550955,0 7.21529,4.20776 14.809648,9.35062 7.594355,5.14282 14.024594,9.35061 14.289418,9.35061 0.264837,0 2.476913,-0.95015 4.915714,-2.11143 2.438788,-1.1613 4.846598,-2.11143 5.350598,-2.11143 0.78603,0 0.91638,1.15049 0.91638,8.08955 l 0,8.08955 -4.340037,2.45486 c -8.808618,4.98239 -16.108516,12.18257 -21.633772,21.3381 -3.052427,5.05805 -5.564744,12.51418 -5.976066,14.71138 -0.501891,3.03827 -0.611532,4.06675 -0.692266,6.3672 -0.23659,1.09483 -0.414473,5.65543 -0.395271,10.13467 0.03895,9.06052 1.241558,15.48075 4.309971,23.0073 5.998296,14.71327 18.438801,26.9662 32.958811,32.46175 7.13871,2.70187 10.02342,3.41516 19.47143,4.2207 6.41867,-8.9e-4 9.05548,0.40003 14.93035,-1.48179 4.64972,-0.28427 14.60883,-5.12235 21.0355,-10.21894 4.66258,-3.69756 10.71462,-10.56811 13.66826,-15.51678 1.38642,-2.32292 2.81884,-4.06285 3.27197,-3.97442 0.44326,0.0865 3.88885,4.77228 7.65687,10.4128 6.60368,9.88533 6.9232,10.25576 8.85238,10.26246 1.10074,0.002 2.29713,0.20227 2.65858,0.44061 1.1282,0.74443 10.17177,16.52633 10.17177,17.7507 0,1.12072 -15.62608,17.69603 -16.68261,17.69603 -0.27038,0 -6.74126,-4.21953 -14.37963,-9.37672 l -13.88799,-9.3767 -4.41668,2.2523 c -3.17553,1.77385 -5.96555,3.54754 -9.2147,5.12472 -1.45011,0.44773 -2.61536,1.24619 -2.9044,1.99004 -0.26548,0.68325 -1.95948,7.89327 -3.76442,16.02228 -2.81974,12.69949 -3.48902,14.97108 -4.75465,16.13735 -1.4208,1.30928 -1.87712,1.35735 -12.8813,1.35735 -11.09073,0 -11.44539,-0.0382 -12.74127,-1.37377 z m 66.25716,-78.39391 0,0 z"
       id="path2836"
       sodipodi:nodetypes="cscccsssssssccccccssssccccssssscccsccsssccssssssssccccssssccc" />
  </g>
  <g
     inkscape:groupmode="layer"
     id="layer7"
     inkscape:label="Capa#2"
     style="display:none">
    <path
       sodipodi:nodetypes="cscccsssssssccccccssssccccssssscccsccsssccssssssssccccssssccc"
       id="path3341-4"
       d="m 333.21491,234.35867 c -0.97842,-1.00838 -1.68726,-3.13426 -2.66512,-7.99328 -0.73269,-3.64073 -2.16228,-10.64696 -3.17689,-15.56938 l -1.84474,-8.9499 -5.04002,-2.00443 c -2.77201,-1.10245 -6.11996,-2.57223 -7.43991,-3.26621 -1.31992,-0.69401 -2.61626,-1.2618 -2.88072,-1.2618 -0.26446,0 -6.53091,3.7978 -13.92539,8.43953 -7.90628,4.96302 -14.05781,8.44209 -14.93326,8.44571 -1.14422,0.002 -3.48054,-2.06314 -10.0973,-8.93726 -5.59755,-5.81526 -8.60862,-9.38636 -8.60862,-10.20969 0,-0.69646 2.31891,-4.88381 5.15311,-9.30533 2.83419,-4.42149 6.77829,-10.63164 8.76461,-13.80028 l 3.61151,-5.76119 -2.28395,-5.45984 c -1.25619,-3.00294 -2.70652,-6.95784 -3.22297,-8.78872 l -0.93899,-3.32886 -15.05361,-3.76888 c -8.27947,-2.0729 -15.51456,-4.18666 -16.07796,-4.6973 -0.91345,-0.82784 -1.02436,-2.27755 -1.02436,-13.38816 0,-9.40308 0.19061,-12.72842 0.77698,-13.55489 0.59639,-0.84054 4.40058,-1.83722 16.36681,-4.28789 8.5744,-1.75605 15.81706,-3.33754 16.0948,-3.51442 3.34566,-4.156485 4.41872,-9.274485 7.34391,-13.735045 0.51211,-1.42674 -0.30181,-3.09229 -7.95975,-16.28817 -10.80583,-20.66197 -10.05517,-14.52429 -0.40817,-24.37214 4.32612,-4.46773 8.31645,-8.12312 8.86741,-8.12312 0.55096,0 7.21529,4.20776 14.80965,9.35062 7.59435,5.14282 14.02459,9.35061 14.28942,9.35061 0.26483,0 2.47691,-0.95015 4.91571,-2.11143 2.43879,-1.1613 4.8466,-2.11143 5.3506,-2.11143 0.78603,0 0.91638,1.15049 0.91638,8.08955 l 0,8.08955 -4.34004,2.45486 c -8.80862,4.98239 -16.10851,12.18257 -21.63377,21.3381 -3.05243,5.058045 -5.56474,12.514175 -5.97607,14.711375 -0.50189,3.03827 -0.61153,4.06675 -0.69226,6.3672 -0.23659,1.09483 -0.41447,5.65543 -0.39527,10.13467 0.0389,9.06052 1.24156,15.48075 4.30997,23.0073 5.99829,14.71327 18.4388,26.9662 32.95881,32.46175 7.13871,2.70187 10.02342,3.41516 19.47143,4.2207 6.41867,-8.9e-4 9.05548,0.40003 14.93035,-1.48179 4.64972,-0.28427 14.60883,-5.12235 21.0355,-10.21894 4.66258,-3.69756 10.71462,-10.56811 13.66826,-15.51678 1.38642,-2.32292 2.81884,-4.06285 3.27197,-3.97442 0.44326,0.0865 3.88885,4.77228 7.65687,10.4128 6.60368,9.88533 6.9232,10.25576 8.85238,10.26246 1.10074,0.002 2.29713,0.20227 2.65858,0.44061 1.1282,0.74443 10.17177,16.52633 10.17177,17.7507 0,1.12072 -15.62608,17.69603 -16.68261,17.69603 -0.27038,0 -6.74126,-4.21953 -14.37963,-9.37672 l -13.88799,-9.3767 -4.41668,2.2523 c -3.17553,1.77385 -5.96555,3.54754 -9.2147,5.12472 -1.45011,0.44773 -2.61536,1.24619 -2.9044,1.99004 -0.26548,0.68325 -1.95948,7.89327 -3.76442,16.02228 -2.81974,12.69949 -3.48902,14.97108 -4.75465,16.13735 -1.4208,1.30928 -1.87712,1.35735 -12.8813,1.35735 -11.09073,0 -11.44539,-0.0382 -12.74127,-1.37377 z m 66.25716,-78.39391 0,0 z"
       style="fill:#000000;display:inline" />
  </g>
  <g
     inkscape:groupmode="layer"
     id="layer4"
     inkscape:label="Capa#3"
     style="display:inline" />
  <path
     style="fill:#00ff00;fill-opacity:1"
     d="m 143.3449,313.69382 c -1.54702,-2.24442 -8.87802,-12.96354 -16.29114,-23.82023 l -13.4784,-19.73943 -0.1074,20.86956 c -0.0822,16.00143 -0.22748,20.96858 -0.62208,21.29415 -0.65378,0.53945 -25.246752,4.32189 -26.995805,4.15201 l -1.305043,-0.12672 -0.10512,-55.13552 c -0.07258,-37.99303 0.02995,-55.27134 0.32904,-55.57248 0.648346,-0.65236 27.378598,-3.14903 28.320248,-2.64518 0.72491,0.38787 0.74538,1.35535 0.47116,22.25022 -0.25238,19.23184 -0.21368,21.77029 0.32357,21.22264 0.52967,-0.54 16.15356,-21.42482 28.00015,-37.42848 2.15276,-2.90822 4.14871,-5.28768 4.43539,-5.28768 0.78966,0 28.77223,6.54346 29.25287,6.84051 1.07531,0.66458 -0.0908,2.57276 -6.92388,11.32915 -13.76909,17.64496 -26.0769,33.46039 -27.18946,34.93826 l -1.11058,1.47528 c 28.86054,41.81373 5.87259,10.41156 33.44658,47.71996 1.08592,1.42372 1.09669,1.4893 0.33543,2.04594 -1.15513,1.07604 -1.32486,0.80272 -2.80957,1.5729 0.21325,0.21322 -23.76107,8.126 -24.62038,8.126 -0.2985,0 -1.80844,-1.83636 -3.35545,-4.08081 z"
     id="path2836-4"
     sodipodi:nodetypes="ccccscccsssssssscccccsc" />
</svg>
