<?xml version="1.0" encoding="UTF-8" standalone="no"?>
<!-- Created with Inkscape (http://www.inkscape.org/) -->

<svg
   xmlns:dc="http://purl.org/dc/elements/1.1/"
   xmlns:cc="http://creativecommons.org/ns#"
   xmlns:rdf="http://www.w3.org/1999/02/22-rdf-syntax-ns#"
   xmlns:svg="http://www.w3.org/2000/svg"
   xmlns="http://www.w3.org/2000/svg"
   xmlns:sodipodi="http://sodipodi.sourceforge.net/DTD/sodipodi-0.dtd"
   xmlns:inkscape="http://www.inkscape.org/namespaces/inkscape"
   width="210mm"
   height="297mm"
   id="svg2865"
   version="1.1"
   inkscape:version="0.47pre4 r22446"
   sodipodi:docname="Nuevo documento 5">
  <defs
     id="defs2867">
    <inkscape:perspective
       sodipodi:type="inkscape:persp3d"
       inkscape:vp_x="0 : 526.18109 : 1"
       inkscape:vp_y="0 : 1000 : 0"
       inkscape:vp_z="744.09448 : 526.18109 : 1"
       inkscape:persp3d-origin="372.04724 : 350.78739 : 1"
       id="perspective2873" />
    <inkscape:perspective
       id="perspective2860"
       inkscape:persp3d-origin="0.5 : 0.33333333 : 1"
       inkscape:vp_z="1 : 0.5 : 1"
       inkscape:vp_y="0 : 1000 : 0"
       inkscape:vp_x="0 : 0.5 : 1"
       sodipodi:type="inkscape:persp3d" />
  </defs>
  <sodipodi:namedview
     id="base"
     pagecolor="#ffffff"
     bordercolor="#666666"
     borderopacity="1.0"
     inkscape:pageopacity="0.0"
     inkscape:pageshadow="2"
     inkscape:zoom="1.979899"
     inkscape:cx="350"
     inkscape:cy="520"
     inkscape:document-units="px"
     inkscape:current-layer="layer1"
     showgrid="false"
     inkscape:window-width="1680"
     inkscape:window-height="973"
     inkscape:window-x="0"
     inkscape:window-y="25"
     inkscape:window-maximized="1" />
  <metadata
     id="metadata2870">
    <rdf:RDF>
      <cc:Work
         rdf:about="">
        <dc:format>image/svg+xml</dc:format>
        <dc:type
           rdf:resource="http://purl.org/dc/dcmitype/StillImage" />
        <dc:title></dc:title>
      </cc:Work>
    </rdf:RDF>
  </metadata>
  <g
     inkscape:label="Capa 1"
     inkscape:groupmode="layer"
     id="layer1">
    <path
       style="fill:#000000"
       d="m 187.04469,606.34688 c -12.31414,-2.58892 -22.16993,-6.20235 -34,-12.46542 -12.9779,-6.87075 -19.66418,-8.74424 -31,-8.68619 -14.31018,0.0733 -32.242603,4.84641 -53.865203,14.33746 -5.024136,2.2053 -9.697293,4.2462 -10.384793,4.53533 -0.831183,0.34955 -1.249401,-0.43156 -1.248212,-2.3313 0.0014,-2.27223 0.871293,-3.40633 4.25,-5.54092 9.132603,-5.7698 9.454371,-6.50077 10.043457,-22.81607 0.59159,-16.38464 2.541424,-25.44884 8.029619,-37.32732 9.996922,-21.63702 26.303682,-33.66933 47.924602,-35.36225 5.94868,-0.46578 7.51363,-0.89095 6.73456,-1.82968 -0.5582,-0.67259 -2.3722,-6.52308 -4.0311,-13.00108 -3.46629,-13.53584 -5.13428,-16.86332 -9.4891,-18.92981 -11.12015,-5.27686 -25.987274,14.1585 -18.30319,23.92723 1.97456,2.51025 2.55587,2.68967 6.75,2.08337 7.99092,-1.15515 8.58936,-1.12453 8.58936,0.43954 0,1.97036 -11.37872,7.70931 -16.93845,8.54304 -5.30091,0.79492 -10.745738,-1.45712 -12.42299,-5.13828 -3.133328,-6.87691 0.243137,-20.62803 7.478266,-30.45625 6.568404,-8.92254 8.761014,-9.94028 21.424974,-9.94477 l 10.54179,-0.004 4.16372,4.25 c 2.29004,2.3375 5.47609,6.65385 7.08009,9.59188 l 2.91637,5.34188 3.2923,-4.58445 c 8.98726,-12.51453 21.77198,-14.02266 32.25731,-3.80518 7.4629,7.27226 8.28452,19.01748 1.71693,24.54374 -2.44873,2.06047 -10.29453,4.66213 -14.05953,4.66213 -1.73667,0 -0.98282,-3.66103 1.1516,-5.59265 5.31546,-4.81043 6.31566,-11.14676 2.26276,-14.33477 -7.62153,-5.9951 -17.05989,1.77324 -19.52167,16.06751 -0.60242,3.49795 -1.5105,6.88235 -2.01795,7.52088 -1.15145,1.4489 -0.71567,1.6974 6.67448,3.80626 17.66968,5.04221 28.38865,14.48111 42.81294,37.70017 10.34754,16.65662 17.42141,25.47684 21.19147,26.42306 4.21167,1.05706 10.71987,-3.70998 12.52264,-9.17242 1.75132,-5.30656 -0.22398,-9.96029 -8.66654,-20.41804 -8.50032,-10.52931 -10.36051,-14.08664 -10.36051,-19.81289 0,-9.167 9.244,-10.54573 23.58652,-3.51789 l 5.08652,2.49239 3.73853,-2.53703 c 6.057,-4.1104 14.47807,-6.86174 21.42254,-6.9992 5.61978,-0.11124 6.56181,0.15524 8.35326,2.36293 3.64301,4.48946 1.18716,12.62876 -8.1862,27.13118 -2.20064,3.40482 -4.00117,7.32095 -4.00117,8.7025 0,1.38156 1.60821,5.43769 3.5738,9.01364 1.96558,3.57595 4.41588,9.8715 5.44511,13.99011 1.02922,4.11861 2.45851,7.88402 3.1762,8.36758 2.02802,1.36642 7.2673,0.21141 14.80853,-3.26456 6.36703,-2.93476 9.99636,-3.32746 9.99636,-1.08162 0,0.50045 -2.3625,2.9124 -5.25,5.35988 -17.22071,14.59648 -37.04013,24.1152 -58.81016,28.24491 -11.62624,2.20546 -34.79407,1.96359 -46.43984,-0.48482 l 0,2.6e-4 z m 52.55057,-5.25224 c 11.71554,-3.06486 21.72199,-7.25468 32.19231,-13.47931 l 7.96557,-4.73556 -4.75754,-0.68903 c -2.61665,-0.37897 -5.38791,-1.31939 -6.15834,-2.08983 -0.77044,-0.77044 -2.24821,-4.73537 -3.28393,-8.81097 -1.03572,-4.07559 -3.47615,-10.33517 -5.42317,-13.91017 -4.78935,-8.7939 -4.82211,-13.62882 -0.1426,-21.04424 8.35339,-13.23723 11.49265,-21.35358 9.16101,-23.68521 -2.52396,-2.52396 -16.74081,1.39778 -25.07203,6.91615 l -4.75759,3.1513 -6.13713,-3.08274 c -8.08203,-4.05968 -13.16875,-5.38384 -16.22224,-4.2229 -4.92052,1.87078 -2.62359,7.89848 7.9207,20.78584 8.13409,9.94157 10.24786,14.79516 9.35206,21.47389 -1.01447,7.56339 -8.60372,14.70791 -15.62346,14.70791 -7.37452,0 -11.649,-4.51851 -25.72377,-27.19234 -14.35637,-23.12747 -24.25016,-31.91162 -42.17014,-37.44055 -29.04523,-8.96145 -53.859903,1.81293 -67.220785,29.18687 -5.867867,12.02216 -7.99407,21.47757 -8.645207,38.44602 -0.414132,10.79216 -0.937504,14.93659 -2.046718,16.20733 -1.137687,1.30336 0.328159,1.0071 6.195266,-1.25213 18.293852,-7.04433 36.831934,-10.65838 48.547164,-9.4644 9.868,1.00571 16.51442,3.19267 27.57437,9.07317 11.36967,6.04517 24.35304,10.69193 36.02271,12.89254 12.32488,2.32417 36.19095,1.46631 48.45349,-1.74164 z m -42.55057,-1.6913 c -15.61964,-2.22738 -27.07687,-6.09512 -40.62575,-13.71447 -4.4151,-2.48288 -10.58048,-5.43278 -13.70085,-6.55535 -8.12406,-2.92266 -23.89936,-3.46935 -36.1734,-1.25357 -22.569911,4.07444 -22.510365,4.10047 -21.691282,-9.48267 1.432751,-23.75983 11.3167,-41.76931 27.243912,-49.64097 6.66536,-3.2942 8.47646,-3.73042 17.23988,-4.15241 11.36082,-0.54706 22.33554,1.72503 30.70749,6.35735 7.65842,4.23751 20.02239,17.44268 28.94894,30.91852 14.54509,21.95779 23.67907,29.15825 33.59943,26.48697 6.06887,-1.63417 13.23779,-9.09498 14.83532,-15.43934 2.3349,-9.27271 -0.24258,-16.35419 -9.91432,-27.23907 -6.0305,-6.78691 -7.45762,-9.51119 -6.7993,-12.97946 0.25527,-1.34487 1.40385,-1.90617 4.33856,-2.1202 3.08871,-0.22527 5.25624,0.47184 9.58437,3.0825 l 5.59299,3.3736 6.38473,-3.86058 c 11.09242,-6.70715 16.98251,-7.43532 16.87163,-2.0858 -0.0562,2.71246 -0.68568,3.81502 -7.94235,13.91163 -5.13588,7.14584 -4.8512,11.81157 1.54825,25.37481 4.16388,8.82509 4.94631,11.40178 4.91754,16.19438 -0.029,4.8297 -0.50003,6.27941 -3.08682,9.5 -3.74992,4.66871 -13.38495,9.67467 -22.85718,11.87566 -8.10751,1.88387 -30.21408,2.70445 -39.02179,1.44847 z m 38.91839,-6.0027 c 8.96009,-2.2916 14.00603,-4.78305 18.33161,-9.05128 5.02314,-4.95654 4.75424,-8.91986 -1.52453,-22.46959 -7.49525,-16.17491 -7.12475,-21.47733 2.39986,-34.3457 l 4.69681,-6.34571 -5.91107,3.04363 c -3.25109,1.674 -7.26107,3.9641 -8.91107,5.08912 -4.06218,2.7697 -5.32789,2.61856 -12.07002,-1.44134 -3.19678,-1.925 -6.4564,-3.5 -7.2436,-3.5 -1.64382,0 -1.82622,-0.27135 6.52987,9.71403 7.12775,8.51754 9.30705,13.17595 9.99328,21.3613 0.53041,6.32663 0.31764,7.42717 -2.56972,13.29225 -5.72018,11.61932 -16.92319,16.85798 -28.10717,13.14326 -7.1183,-2.36432 -14.703,-10.03992 -24.71465,-25.01084 -16.0529,-24.00471 -25.91828,-32.72506 -41.47156,-36.65816 -25.83348,-6.53274 -46.268794,6.05591 -53.769568,33.12336 -2.777903,10.0244 -3.891191,23.03594 -1.970635,23.03177 0.766577,-0.002 6.118776,-0.96466 11.893773,-2.13999 6.81733,-1.38747 14.35804,-2.15136 21.5,-2.17801 13.47143,-0.0503 21.89775,2.21474 34.7995,9.35407 14.79414,8.18652 25.13379,11.66456 41.30867,13.89537 9.54882,1.31695 27.92615,0.36462 36.81022,-1.90754 z m -111.16839,-19.7266 c -1.2375,-0.23836 -3.2625,-0.23836 -4.5,0 -1.2375,0.23835 -0.225,0.43337 2.25,0.43337 2.475,0 3.4875,-0.19502 2.25,-0.43337 z m 76.75,-1.67183 c 0,-0.20765 -0.7875,-0.99515 -1.75,-1.75 -1.58606,-1.24387 -1.62143,-1.2085 -0.37756,0.37756 1.30637,1.66575 2.12756,2.19548 2.12756,1.37244 z m -25,-33.99999 c 0,-0.20766 -0.7875,-0.99516 -1.75,-1.75 -1.58606,-1.24388 -1.62143,-1.20851 -0.37756,0.37755 1.30637,1.66575 2.12756,2.19548 2.12756,1.37245 z m 54,-2.96746 c 0,-0.18976 -1.0125,-1.20226 -2.25,-2.25 l -2.25,-1.90499 1.90499,2.25 c 1.79022,2.11445 2.59501,2.70524 2.59501,1.90499 z m -125,-9.15499 c 0.68469,-0.825 1.01989,-1.5 0.74489,-1.5 -0.275,0 -1.0602,0.675 -1.74489,1.5 -0.68469,0.825 -1.01989,1.5 -0.74489,1.5 0.275,0 1.0602,-0.675 1.74489,-1.5 z m 13.1875,56.81689 c -0.72187,-0.28887 -1.58437,-0.25335 -1.91666,0.0789 -0.33229,0.3323 0.25833,0.56864 1.3125,0.52522 1.16494,-0.048 1.4019,-0.28494 0.60416,-0.60416 l 0,4e-5 z m 60.3125,-61.31689 c -1.5808,-1.65 -3.09918,-3 -3.37418,-3 -0.275,0 0.79338,1.35 2.37418,3 1.5808,1.65 3.09918,3 3.37418,3 0.275,0 -0.79338,-1.35 -2.37418,-3 z m -87.499997,-0.5 c 0.684689,-0.825 1.019889,-1.5 0.744889,-1.5 -0.275,0 -1.0602,0.675 -1.744889,1.5 -0.684689,0.825 -1.019889,1.5 -0.744889,1.5 0.275,0 1.0602,-0.675 1.744889,-1.5 z m 7.25,-21.16228 c -0.6875,-0.27741 -1.8125,-0.27741 -2.5,0 -0.6875,0.27741 -0.125,0.50439 1.25,0.50439 1.375,0 1.9375,-0.22698 1.25,-0.50439 z m 1.499977,-3.41783 c -2.874529,-1.67426 -4.751365,-6.48551 -4.728015,-12.12023 0.08232,-19.86414 24.066165,-30.74549 33.240665,-15.08112 0.96945,1.65521 2.95073,7.86446 4.40285,13.79832 2.67131,10.91589 4.69241,14.48314 8.20569,14.48314 1.50241,0 2.00808,-1.03466 2.56586,-5.25 1.75865,-13.29085 8.97828,-21.75 18.56297,-21.75 5.55514,0 9.38773,2.18995 11.45436,6.54506 1.58021,3.33004 1.59662,4.02022 0.19669,8.27257 -0.84004,2.55167 -1.35746,4.8093 -1.14981,5.01695 0.20765,0.20765 1.52982,-0.77473 2.93815,-2.18306 5.8314,-5.8314 1.46008,-17.59671 -8.11094,-21.83043 -3.07755,-1.36135 -5.58778,-1.80742 -7.81733,-1.38915 -4.30345,0.80733 -11.53584,7.25353 -14.58328,12.99802 -3.3991,6.40736 -5.18271,5.99036 -9.32436,-2.17996 -7.02793,-13.86417 -15.27903,-19.86221 -23.80792,-17.30689 -5.52899,1.65652 -15.071298,11.23322 -18.368019,18.4342 -3.387552,7.39939 -4.218339,14.76683 -2.040059,18.09131 1.348895,2.05867 2.447968,2.5257 5.885574,2.50097 3.357494,-0.0242 3.866974,-0.24007 2.476924,-1.0497 z m 80.85419,-16.64906 c -0.3323,-0.33229 -0.56864,0.25834 -0.52522,1.3125 0.048,1.16495 0.28494,1.4019 0.60416,0.60417 0.28887,-0.72187 0.25335,-1.58437 -0.0789,-1.91667 l -4e-5,0 z m -79.60417,-16.77083 c 1.29175,-1.375 2.12363,-2.5 1.84863,-2.5 -0.275,0 -1.55688,1.125 -2.84863,2.5 -1.291742,1.375 -2.123625,2.5 -1.848625,2.5 0.275,0 1.556885,-1.125 2.848625,-2.5 z"
       id="path2818"
       sodipodi:nodetypes="cssssssssssssssssssccccccssssssssssssscccsssssssssssccccccssssscccsssssssssssssccssssssssssssscccssssssccsscccsssssssssssssssccssccssccsscccccccsssccsscccsssccsssccssccssssssssssssssssssccsscccsssc" />
  </g>
</svg>
