<?xml version="1.0" encoding="UTF-8" standalone="no"?>
<!-- Created with Inkscape (http://www.inkscape.org/) -->

<svg
   xmlns:dc="http://purl.org/dc/elements/1.1/"
   xmlns:cc="http://creativecommons.org/ns#"
   xmlns:rdf="http://www.w3.org/1999/02/22-rdf-syntax-ns#"
   xmlns:svg="http://www.w3.org/2000/svg"
   xmlns="http://www.w3.org/2000/svg"
   xmlns:sodipodi="http://sodipodi.sourceforge.net/DTD/sodipodi-0.dtd"
   xmlns:inkscape="http://www.inkscape.org/namespaces/inkscape"
   width="210mm"
   height="297mm"
   id="svg2883"
   version="1.1"
   inkscape:version="0.47pre4 r22446"
   sodipodi:docname="Nuevo documento 5">
  <defs
     id="defs2885">
    <inkscape:perspective
       sodipodi:type="inkscape:persp3d"
       inkscape:vp_x="0 : 526.18109 : 1"
       inkscape:vp_y="0 : 1000 : 0"
       inkscape:vp_z="744.09448 : 526.18109 : 1"
       inkscape:persp3d-origin="372.04724 : 350.78739 : 1"
       id="perspective2891" />
    <inkscape:perspective
       id="perspective2878"
       inkscape:persp3d-origin="0.5 : 0.33333333 : 1"
       inkscape:vp_z="1 : 0.5 : 1"
       inkscape:vp_y="0 : 1000 : 0"
       inkscape:vp_x="0 : 0.5 : 1"
       sodipodi:type="inkscape:persp3d" />
  </defs>
  <sodipodi:namedview
     id="base"
     pagecolor="#ffffff"
     bordercolor="#666666"
     borderopacity="1.0"
     inkscape:pageopacity="0.0"
     inkscape:pageshadow="2"
     inkscape:zoom="1.4"
     inkscape:cx="321.07234"
     inkscape:cy="486.09878"
     inkscape:document-units="px"
     inkscape:current-layer="layer1"
     showgrid="false"
     inkscape:window-width="889"
     inkscape:window-height="702"
     inkscape:window-x="452"
     inkscape:window-y="260"
     inkscape:window-maximized="0" />
  <metadata
     id="metadata2888">
    <rdf:RDF>
      <cc:Work
         rdf:about="">
        <dc:format>image/svg+xml</dc:format>
        <dc:type
           rdf:resource="http://purl.org/dc/dcmitype/StillImage" />
        <dc:title></dc:title>
      </cc:Work>
    </rdf:RDF>
  </metadata>
  <g
     inkscape:label="Capa 1"
     inkscape:groupmode="layer"
     id="layer1">
    <path
       style="fill:#000000"
       d="m 322.7154,724.57763 c -1.67159,-1.67159 -2.88248,-5.19544 -4.55306,-13.25 -1.25171,-6.03504 -3.69401,-17.64888 -5.42733,-25.80854 l -3.15149,-14.83575 -8.61025,-3.32263 c -4.73564,-1.82745 -10.45521,-4.26386 -12.71016,-5.41425 -2.25495,-1.15039 -4.46957,-2.09162 -4.92137,-2.09162 -0.4518,0 -11.15723,6.2954 -23.78984,13.98978 -13.50691,8.2269 -24.01603,13.99398 -25.51161,14 -1.95478,0.008 -5.94607,-3.41998 -17.25,-14.81482 -9.56273,-9.63963 -14.70676,-15.55921 -14.70676,-16.92404 0,-1.15445 3.96154,-8.09568 8.80343,-15.42496 4.8419,-7.32928 11.57987,-17.62347 14.97327,-22.87598 l 6.16983,-9.55001 -3.90187,-9.05046 c -2.14603,-4.97776 -4.62373,-11.53361 -5.50602,-14.56856 l -1.60415,-5.51809 -25.71725,-6.24745 c -14.14448,-3.4361 -26.50474,-6.93999 -27.46724,-7.78642 -1.56051,-1.37232 -1.75,-3.77542 -1.75,-22.19285 0,-15.58697 0.32564,-21.09922 1.32739,-22.4692 1.01886,-1.39338 7.51786,-3.04547 27.96069,-7.10782 14.6483,-2.91087 27.02151,-5.53243 27.49599,-5.82568 5.71563,-6.89 7.54886,-15.37377 12.54615,-22.76783 0.87489,-2.36501 -0.51559,-5.12587 -13.59823,-27 -18.46045,-34.2502 -17.17802,-24.0761 -0.69732,-40.40037 7.39064,-7.40588 14.20764,-13.46524 15.14887,-13.46524 0.94124,0 12.32646,6.975 25.30049,15.5 12.97403,8.525 23.9593,15.5 24.41172,15.5 0.45242,0 4.23146,-1.575 8.39787,-3.5 4.16641,-1.925 8.27978,-3.5 9.14083,-3.5 1.34289,0 1.56554,1.90712 1.56554,13.40961 l 0,13.40962 -7.41444,4.06927 c -15.04841,8.25905 -27.51942,20.19438 -36.95861,35.37105 -5.2147,8.38439 -9.5067,20.74404 -10.20938,24.38623 -0.85739,5.03637 -1.04471,6.74119 -1.18263,10.55451 -0.40422,1.81484 -0.7081,9.37471 -0.67529,16.79971 0.0664,15.01913 2.12104,25.66157 7.36305,38.13793 10.24736,24.38946 31.50041,44.70038 56.3061,53.81009 12.19557,4.47873 17.12377,5.6611 33.26454,6.9964 10.9655,-0.002 15.47013,0.66312 25.50666,-2.45623 7.94345,-0.47125 24.95737,-8.49108 35.93659,-16.9394 7.96544,-6.12926 18.30458,-17.51816 23.35049,-25.72132 2.36858,-3.85061 4.81568,-6.73481 5.58977,-6.58821 0.75726,0.14341 6.64366,7.91074 13.08087,17.26074 11.28159,16.3864 11.82744,17.00042 15.12316,17.01154 1.88051,0.006 3.92435,0.33501 4.54186,0.73036 1.92739,1.23401 17.37726,27.39477 17.37726,29.42436 0,1.85774 -26.69524,29.33374 -28.5002,29.33374 -0.46198,0 -11.51662,-6.99448 -24.56587,-15.54328 l -23.7259,-15.54328 -7.54542,3.73357 c -5.42496,2.94041 -10.19133,5.88054 -15.7421,8.49495 -2.47735,0.74223 -4.46806,2.06572 -4.96185,3.29879 -0.45355,1.13259 -3.34751,13.08425 -6.43102,26.55925 -4.8172,21.05124 -5.96061,24.81672 -8.12278,26.75 -2.42724,2.17029 -3.20681,2.25 -22.00608,2.25 -18.9472,0 -19.55307,-0.0634 -21.7669,-2.27721 z m 113.19223,-129.94928 0,0 z"
       id="path2836"
       sodipodi:nodetypes="cscccsssssssccccccssssccccssssscccsccsssccssssssssccccssssccc" />
  </g>
</svg>
