<?xml version="1.0" encoding="UTF-8" standalone="no"?>
<!-- Created with Inkscape (http://www.inkscape.org/) -->

<svg
   xmlns:dc="http://purl.org/dc/elements/1.1/"
   xmlns:cc="http://creativecommons.org/ns#"
   xmlns:rdf="http://www.w3.org/1999/02/22-rdf-syntax-ns#"
   xmlns:svg="http://www.w3.org/2000/svg"
   xmlns="http://www.w3.org/2000/svg"
   xmlns:sodipodi="http://sodipodi.sourceforge.net/DTD/sodipodi-0.dtd"
   xmlns:inkscape="http://www.inkscape.org/namespaces/inkscape"
   width="210mm"
   height="297mm"
   id="svg2910"
   version="1.1"
   inkscape:version="0.47pre4 r22446"
   sodipodi:docname="Nuevo documento 8">
  <defs
     id="defs2912">
    <inkscape:perspective
       sodipodi:type="inkscape:persp3d"
       inkscape:vp_x="0 : 526.18109 : 1"
       inkscape:vp_y="0 : 1000 : 0"
       inkscape:vp_z="744.09448 : 526.18109 : 1"
       inkscape:persp3d-origin="372.04724 : 350.78739 : 1"
       id="perspective2918" />
    <inkscape:perspective
       id="perspective2905"
       inkscape:persp3d-origin="0.5 : 0.33333333 : 1"
       inkscape:vp_z="1 : 0.5 : 1"
       inkscape:vp_y="0 : 1000 : 0"
       inkscape:vp_x="0 : 0.5 : 1"
       sodipodi:type="inkscape:persp3d" />
  </defs>
  <sodipodi:namedview
     id="base"
     pagecolor="#ffffff"
     bordercolor="#666666"
     borderopacity="1.0"
     inkscape:pageopacity="0.0"
     inkscape:pageshadow="2"
     inkscape:zoom="0.7"
     inkscape:cx="350"
     inkscape:cy="520"
     inkscape:document-units="px"
     inkscape:current-layer="layer1"
     showgrid="false"
     inkscape:window-width="607"
     inkscape:window-height="488"
     inkscape:window-x="363"
     inkscape:window-y="245"
     inkscape:window-maximized="0" />
  <metadata
     id="metadata2915">
    <rdf:RDF>
      <cc:Work
         rdf:about="">
        <dc:format>image/svg+xml</dc:format>
        <dc:type
           rdf:resource="http://purl.org/dc/dcmitype/StillImage" />
        <dc:title></dc:title>
      </cc:Work>
    </rdf:RDF>
  </metadata>
  <g
     inkscape:label="Capa 1"
     inkscape:groupmode="layer"
     id="layer1">
    <path
       style="fill:#000000"
       d="m 541.68956,597.84821 c -2.82213,-2.37466 -3.2942,-2.45963 -7.61721,-1.37109 -7.91554,1.99316 -18.18587,0.7351 -25.40332,-3.11176 -13.93036,-7.42481 -21.07429,-21.64713 -21.10956,-42.02549 -0.033,-19.07178 7.46085,-33.60328 21.15921,-41.03026 5.94236,-3.22183 6.90215,-3.42984 15.82601,-3.42984 8.21539,0 10.27351,0.36254 15.22034,2.6811 10.01056,4.6919 17.07645,13.74117 20.35987,26.07483 1.69336,6.36087 1.992,51.14362 0.37977,56.94858 -1.44569,5.20531 -5.10665,7.79549 -11.01811,7.79549 -3.66461,0 -5.49451,-0.59414 -7.797,-2.53156 z m 11.87712,-2.48021 c 3.18623,-1.70522 3.96723,-7.62301 3.95765,-29.98823 -0.0128,-29.92019 -2.08251,-37.63916 -12.56674,-46.86775 -22.20533,-19.54591 -53.49021,-0.60476 -53.39554,32.32785 0.0218,7.57367 2.29303,18.48392 5.02108,24.1193 6.54751,13.52535 23.55801,21.39947 36.84252,17.05433 6.59715,-2.15782 6.86023,-2.1223 10.11904,1.36627 2.9285,3.13497 6.5404,3.85152 10.02199,1.98823 z m -32.83732,-18.95615 c -6.76488,-1.64505 -10.51916,-7.11698 -12.30589,-17.93606 -1.30821,-7.92153 -0.26714,-17.36802 2.57391,-23.35509 3.45843,-7.28808 15.54336,-10.21081 22.64943,-5.47773 5.7205,3.8102 7.1747,8.2203 7.29394,22.12013 0.0922,10.74646 -0.15605,12.64445 -2.19517,16.78384 -1.26451,2.56694 -3.29933,5.32254 -4.52183,6.12355 -2.9278,1.91837 -9.35556,2.74783 -13.49439,1.74136 z m 6.00283,-1.71519 c -0.72188,-0.28887 -1.58438,-0.25335 -1.91667,0.0789 -0.33229,0.3323 0.25834,0.56864 1.3125,0.52522 1.16495,-0.048 1.4019,-0.28494 0.60417,-0.60416 l 0,4e-5 z m 6.18382,-5.34633 c 3.29456,-3.91536 3.9434,-7.71307 3.45632,-20.23003 -0.44379,-11.40455 -1.77739,-14.64865 -6.89291,-16.76756 -3.81061,-1.57841 -9.59984,-0.63621 -12.43052,2.02307 -2.98459,2.80388 -4.68068,8.95674 -4.68068,16.97994 0,8.75784 1.69092,14.69232 5.18064,18.18204 2.36296,2.36296 3.68272,2.84198 7.83001,2.84198 4.3254,0 5.32667,-0.40244 7.53714,-3.02944 z m 6.34321,-18.73847 c -0.22818,-1.50265 -0.41027,-0.0321 -0.40466,3.26791 0.006,3.3 0.1923,4.52944 0.41486,2.73209 0.22256,-1.79735 0.21797,-4.49735 -0.0102,-6 z m -29.11036,3.03874 c -0.33229,-0.33229 -0.56864,0.25834 -0.52522,1.3125 0.048,1.16495 0.28494,1.4019 0.60416,0.60417 0.28887,-0.72187 0.25335,-1.58437 -0.0789,-1.91667 l -4e-5,0 z m -7.60417,-35.77083 c 1.29175,-1.375 2.12363,-2.5 1.84863,-2.5 -0.275,0 -1.55688,1.125 -2.84863,2.5 -1.29175,1.375 -2.12363,2.5 -1.84863,2.5 0.275,0 1.55688,-1.125 2.84863,-2.5 z m 47,1.12245 c 0,-0.20766 -0.7875,-0.99516 -1.75,-1.75 -1.58606,-1.24388 -1.62143,-1.20851 -0.37756,0.37755 1.30637,1.66575 2.12756,2.19548 2.12756,1.37245 z m -236.5551,78.29891 c -1.68031,-0.48264 -4.15531,-2.0482 -5.5,-3.47901 l -2.4449,-2.60148 -0.28332,-39.44908 c -0.25237,-35.13925 -0.10108,-39.83315 1.38484,-42.96449 3.81186,-8.03289 15.76808,-8.61693 20.74998,-1.01359 1.46185,2.23107 1.6485,7.04009 1.6485,42.47438 l 0,39.95846 -2.54392,3.02328 c -3.38148,4.01865 -8.05701,5.47456 -13.01118,4.05153 z m 9.10055,-6.37591 2.45455,-2.45454 0,-38.45656 0,-38.45656 -3.07673,-2.5889 c -4.63287,-3.8983 -8.58917,-3.06943 -11.41292,2.39109 -2.22112,4.29518 -2.24905,73.69084 -0.0314,77.97933 2.46792,4.77244 8.13523,5.51741 12.06649,1.58614 l 1e-5,0 z m 3.45455,-81.89046 c 0,-0.18976 -1.0125,-1.20226 -2.25,-2.25 l -2.25,-1.90499 1.90499,2.25 c 1.79022,2.11445 2.59501,2.70524 2.59501,1.90499 z m 49.04494,88.31289 c -9.3595,-1.96138 -18.07777,-10.11394 -21.16384,-19.79057 -0.69251,-2.17143 -1.35612,-13.19833 -1.6205,-26.92731 l -0.44773,-23.25 -4.18393,0 c -4.81496,0 -8.00449,-1.89176 -10.13465,-6.01104 -4.32615,-8.36586 1.31381,-17.86292 10.66195,-17.95352 l 3.65623,-0.0354 0.3631,-14.25 c 0.39815,-15.62534 1.49073,-19.36566 6.29649,-21.55531 3.59507,-1.63803 9.04006,-1.49834 12.56067,0.32224 5.08267,2.62835 5.96727,5.80567 5.96727,21.43341 l 0,14.04966 7.04966,0 c 4.34547,0 8.17489,0.58188 9.98307,1.51693 5.45881,2.82285 7.54963,10.52244 4.47298,16.47203 -2.51556,4.86455 -5.13395,6.01104 -13.72822,6.01104 l -7.77749,0 0,21.47695 0,21.47694 2.38496,1.56269 c 1.85563,1.21585 3.82706,1.41494 8.88234,0.89702 5.32487,-0.54555 7.05707,-0.33506 9.59888,1.16642 8.409,4.96732 7.57485,18.24863 -1.38116,21.99069 -4.38986,1.8342 -15.80493,2.57808 -21.44008,1.39717 l 0,-4e-5 z m 10.1934,-1.67514 c -1.24391,-0.23919 -3.04391,-0.23011 -4,0.0202 -0.95609,0.25029 0.0617,0.446 2.26166,0.4349 2.2,-0.0111 2.98225,-0.21589 1.73834,-0.45508 l 0,-2e-5 z m 8.72001,-3.42806 c 3.93759,-1.37266 6.52534,-6.46227 5.13926,-10.10795 -1.67512,-4.40589 -3.81384,-5.25673 -13.21357,-5.25673 -13.09386,0 -12.38404,1.6212 -12.38404,-28.28441 l 0,-24.71559 7.5,-0.25303 c 10.21567,-0.34465 11.72603,-0.8165 13.48181,-4.2118 2.06852,-4.00006 1.91977,-5.4561 -0.89176,-8.72941 -2.22227,-2.58725 -3.09842,-2.8447 -11.25,-3.30576 l -8.84005,-0.5 -0.5,-15.83964 -0.5,-15.83965 -2.80576,-2.41035 c -3.44208,-2.957 -6.59499,-3.06287 -10.05938,-0.33778 l -2.63486,2.07258 0,14.84563 c 0,8.1651 -0.27314,15.55744 -0.60699,16.42742 -0.44083,1.14878 -1.96748,1.58179 -5.57692,1.58179 -4.15975,0 -5.44645,0.47651 -7.89301,2.92308 -3.29556,3.29555 -3.56222,4.94028 -1.46007,9.0054 1.7784,3.43904 3.26966,4.07152 9.59973,4.07152 4.26391,0 4.96481,0.29175 5.40552,2.25 0.2785,1.2375 0.62458,13.05 0.76905,26.25 0.24546,22.426 0.40451,24.26233 2.42506,28 2.7265,5.04353 7.80988,9.94992 12.33763,11.90806 4.19221,1.81302 17.28627,2.08531 21.95835,0.45662 z m -39.21159,-54.56033 c -0.1771,-5.94239 -0.32266,-1.35435 -0.32348,10.19565 -8.2e-4,11.55 0.14408,16.41196 0.322,10.80435 0.17792,-5.60761 0.17859,-15.05761 0.001,-21 l 4.8e-4,0 z m -12.74676,-29.80435 c 0.68469,-0.825 1.01989,-1.5 0.74489,-1.5 -0.275,0 -1.0602,0.675 -1.74489,1.5 -0.68469,0.825 -1.01989,1.5 -0.74489,1.5 0.275,0 1.0602,-0.675 1.74489,-1.5 z m 12.74155,-24.25 c -0.19241,-3.7125 -0.34983,-0.675 -0.34983,6.75 0,7.425 0.15742,10.4625 0.34983,6.75 0.19241,-3.7125 0.19241,-9.7875 0,-13.5 z m 68.45635,111.7701 c -19.095,-6.87058 -25.57756,-23.86674 -11.62788,-30.4863 4.82611,-2.29014 9.23489,-1.37418 14.48056,3.00846 5.11896,4.27677 7.01118,4.77422 16.36393,4.30192 5.48444,-0.27695 7.951,-0.86499 9.49704,-2.26413 4.98992,-4.51582 0.9406,-7.25519 -11.88993,-8.04356 -14.61041,-0.89773 -20.55271,-2.93886 -27.35635,-9.39667 -5.23625,-4.97009 -7.83905,-10.43568 -8.42077,-17.68263 -0.75877,-9.45269 1.68973,-16.41473 8.05424,-22.90139 7.26074,-7.40009 13.41121,-9.5558 27.26376,-9.5558 15.59505,0 24.98727,3.93171 31.27662,13.09283 1.88117,2.74012 2.2519,4.34351 1.89365,8.1898 -0.53463,5.74006 -3.45483,9.29617 -8.82018,10.74091 -4.74519,1.27774 -8.21236,0.0234 -13.12317,-4.74754 -3.10555,-3.01711 -4.57306,-3.67394 -9,-4.02821 -6.2648,-0.50134 -10.10036,0.77094 -12.25981,4.06667 -1.75574,2.6796 -1.2333,5.18087 1.29771,6.21303 0.91997,0.37517 7.03937,1.0709 13.59867,1.54607 9.65831,0.69967 12.93343,1.35684 17.22424,3.45614 5.62948,2.75425 11.08119,8.3351 13.994,14.32551 2.54759,5.23929 3.0233,17.10836 0.90773,22.64791 -2.00565,5.25172 -7.96863,11.64848 -13.47921,14.45977 -10.09104,5.14806 -29.85291,6.6632 -39.87485,3.05721 z m 27.78857,-3.57844 c 11.13888,-2.62529 19.38993,-8.99208 22.03334,-17.00168 1.87853,-5.69202 0.70457,-14.74698 -2.54943,-19.66411 -6.31121,-9.53688 -12.38053,-12.69198 -25.76843,-13.39557 -13.16086,-0.69166 -15.63024,-1.21768 -18.31368,-3.90112 -3.47861,-3.47861 -3.14457,-7.68328 0.96681,-12.16957 3.02049,-3.29593 3.96445,-3.7051 9.46576,-4.10303 9.01341,-0.65197 12.44683,0.31676 17.08871,4.82155 4.57269,4.43764 8.44307,5.15567 11.97665,2.22187 5.23906,-4.34978 2.80805,-11.95123 -5.50894,-17.2257 -6.0153,-3.81479 -13.72778,-5.34851 -24.32859,-4.83802 -7.08856,0.34135 -9.48199,0.9157 -14.01311,3.36269 -15.61373,8.43207 -18.4474,28.98014 -5.55725,40.29785 5.49394,4.82374 9.9527,6.22962 22.6525,7.1425 11.82395,0.84993 17.05323,2.44195 18.24801,5.55548 2.1988,5.72999 -1.58461,11.77526 -8.2409,13.16759 -4.61465,0.96528 -14.84705,0.99641 -18.21708,0.0554 -1.41854,-0.39609 -4.56854,-2.30151 -7,-4.23428 -5.49617,-4.3689 -9.53967,-4.64197 -13.28448,-0.89717 -1.45,1.45 -2.63636,3.27235 -2.63636,4.04966 0,4.0349 6.50785,11.45676 12.981,14.80415 7.04331,3.64224 19.41718,4.44701 30.00547,1.95149 l 0,2e-5 z m -37.98647,-4.78667 c 0,-0.18976 -1.0125,-1.20226 -2.25,-2.25 l -2.25,-1.90499 1.90499,2.25 c 1.79022,2.11444 2.59501,2.70524 2.59501,1.90499 z m 33.1875,-27.3381 c -0.72188,-0.28887 -1.58438,-0.25335 -1.91667,0.0789 -0.33229,0.3323 0.25834,0.56864 1.3125,0.52522 1.16495,-0.048 1.4019,-0.28494 0.60417,-0.60416 l 0,4e-5 z m 144.3125,36.28429 c -8.4076,-2.65898 -16.26261,-8.30765 -19.05108,-13.69996 -3.64338,-7.04551 -0.30946,-15.47202 7.08727,-17.91316 4.66,-1.53794 8.09827,-0.62327 13.38465,3.56068 5.47281,4.33151 7.16672,4.76643 16.69064,4.2855 6.50534,-0.32851 7.8792,-0.72198 9.49705,-2.71994 1.04031,-1.28473 1.89147,-2.72564 1.89147,-3.20203 0,-2.32713 -5.09903,-3.84008 -14.89467,-4.41944 -11.763,-0.69572 -17.72462,-2.38706 -23.81845,-6.75738 -8.28691,-5.94312 -11.79966,-13.91663 -11.06769,-25.12232 0.53756,-8.22951 2.98215,-13.77002 8.39513,-19.02704 6.53831,-6.34992 11.38626,-8.01274 24.56666,-8.42622 12.61767,-0.39583 18.69118,0.87097 25.90192,5.40257 12.70346,7.98351 13.21833,22.90962 0.912,26.43902 -4.65796,1.33589 -7.83804,0.30462 -12.68579,-4.11388 -4.85505,-4.42515 -7.63849,-5.33599 -14.08563,-4.6093 -3.39525,0.38269 -5.27621,1.24427 -6.94048,3.17911 -4.90483,5.70219 -2.15268,7.50777 13.1615,8.63473 6.08052,0.44747 12.68108,1.28885 14.6679,1.86974 7.61135,2.22534 15.3633,10.10021 18.44366,18.73613 1.69682,4.75708 1.81484,13.33202 0.25514,18.53783 -2.64097,8.81476 -13.42108,17.0858 -25.61042,19.64959 -6.96796,1.46558 -21.66255,1.30915 -26.70078,-0.28423 z m 24.70078,-3.71577 c 16.57645,-3.48653 26.24485,-14.32177 24.45188,-27.40291 -0.85151,-6.21241 -3.69168,-11.34198 -8.97774,-16.2145 -5.3937,-4.97174 -9.57701,-6.24259 -23.67492,-7.19221 -13.56156,-0.91349 -16.95302,-2.58588 -16.98469,-8.37545 -0.0414,-7.57092 5.60629,-11.70034 16.00223,-11.70034 6.78318,0 10.08792,1.35465 14.41955,5.91072 4.61782,4.85709 11.10675,4.01897 13.49336,-1.74282 2.64296,-6.38066 -4.38248,-14.14588 -15.89003,-17.56326 -6.76201,-2.0081 -19.11265,-2.06933 -25.6526,-0.12717 -17.35933,5.15517 -23.97055,26.62651 -12.28588,39.901 6.01841,6.83727 11.00725,8.77426 24.87929,9.65973 14.75735,0.94199 19.01877,2.96247 19.01877,9.01745 0,4.86829 -4.4751,8.78109 -11.49613,10.05164 -10.12442,1.83214 -18.63172,-0.18242 -24.68906,-5.84645 -3.15004,-2.94551 -6.46109,-3.19394 -10.17096,-0.76313 -7.0014,4.58749 -2.82207,13.73638 9.07365,19.86295 6.87435,3.54045 18.67926,4.58684 28.48328,2.52475 z m -12.01328,-17.56852 c -0.72187,-0.28887 -1.58438,-0.25335 -1.91667,0.0789 -0.33229,0.3323 0.25834,0.56864 1.3125,0.52522 1.16495,-0.048 1.4019,-0.28494 0.60417,-0.60416 l 0,4e-5 z m 5,0 c -0.72187,-0.28887 -1.58438,-0.25335 -1.91667,0.0789 -0.33229,0.3323 0.25834,0.56864 1.3125,0.52522 1.16495,-0.048 1.4019,-0.28494 0.60417,-0.60416 l 0,4e-5 z m -16.1875,-3.69445 c 0,-0.20765 -0.7875,-0.99515 -1.75,-1.75 -1.58606,-1.24387 -1.62143,-1.2085 -0.37756,0.37756 1.30637,1.66575 2.12756,2.19548 2.12756,1.37244 z m 20.1875,-11.30555 c -0.72187,-0.28887 -1.58438,-0.25335 -1.91667,0.0789 -0.33229,0.3323 0.25834,0.56864 1.3125,0.52522 1.16495,-0.048 1.4019,-0.28494 0.60417,-0.60416 l 0,4e-5 z m 22.8125,-10.6619 c 0,-0.18976 -1.0125,-1.20226 -2.25,-2.25 l -2.25,-1.90499 1.90499,2.25 c 1.79022,2.11445 2.59501,2.70524 2.59501,1.90499 z m -326.1127,-60.46438 c -6.259,-5.59242 -4.59956,-18.74158 2.7529,-21.81364 5.8065,-2.42611 10.13844,-1.79833 13.9598,2.02303 3.13548,3.13548 3.4,3.88235 3.4,9.6 0,5.71765 -0.26452,6.46452 -3.4,9.6 -2.97502,2.97502 -4.0355,3.4 -8.48422,3.4 -4.15969,0 -5.65599,-0.51087 -8.22848,-2.80939 z m 13.65815,-3.64515 c 5.56332,-5.56332 1.34937,-16.57442 -5.79612,-15.14533 -4.16756,0.83352 -6.58073,3.18424 -7.32131,7.13186 -1.55793,8.3045 7.37143,13.75947 13.11743,8.01347 z"
       id="path2818"
       sodipodi:nodetypes="csssssssssccssssssccssssssccsscccssssssccssccsscccsssccsscccccsscccccccccssccccccccscccscccsscccsscccccssscccsscccsscccssccccccccsssssssssccsscccsssccssccsssssssssssssssssssssccssssssssssssssssssssccccccccsscccsssssssssssssssssssssccssssssssssssssssccsscccsscccssccssccccccccsssssccssc" />
  </g>
</svg>
