<?xml version="1.0" encoding="UTF-8" standalone="no"?>
<!-- Created with Inkscape (http://www.inkscape.org/) -->

<svg
   xmlns:dc="http://purl.org/dc/elements/1.1/"
   xmlns:cc="http://creativecommons.org/ns#"
   xmlns:rdf="http://www.w3.org/1999/02/22-rdf-syntax-ns#"
   xmlns:svg="http://www.w3.org/2000/svg"
   xmlns="http://www.w3.org/2000/svg"
   xmlns:sodipodi="http://sodipodi.sourceforge.net/DTD/sodipodi-0.dtd"
   xmlns:inkscape="http://www.inkscape.org/namespaces/inkscape"
   width="210mm"
   height="297mm"
   id="svg2964"
   version="1.1"
   inkscape:version="0.47pre4 r22446"
   sodipodi:docname="Nuevo documento 10">
  <defs
     id="defs2966">
    <inkscape:perspective
       sodipodi:type="inkscape:persp3d"
       inkscape:vp_x="0 : 526.18109 : 1"
       inkscape:vp_y="0 : 1000 : 0"
       inkscape:vp_z="744.09448 : 526.18109 : 1"
       inkscape:persp3d-origin="372.04724 : 350.78739 : 1"
       id="perspective2972" />
    <inkscape:perspective
       id="perspective2959"
       inkscape:persp3d-origin="0.5 : 0.33333333 : 1"
       inkscape:vp_z="1 : 0.5 : 1"
       inkscape:vp_y="0 : 1000 : 0"
       inkscape:vp_x="0 : 0.5 : 1"
       sodipodi:type="inkscape:persp3d" />
  </defs>
  <sodipodi:namedview
     id="base"
     pagecolor="#ffffff"
     bordercolor="#666666"
     borderopacity="1.0"
     inkscape:pageopacity="0.0"
     inkscape:pageshadow="2"
     inkscape:zoom="0.98994949"
     inkscape:cx="520.88687"
     inkscape:cy="455.13232"
     inkscape:document-units="px"
     inkscape:current-layer="layer1"
     showgrid="false"
     inkscape:window-width="974"
     inkscape:window-height="814"
     inkscape:window-x="275"
     inkscape:window-y="98"
     inkscape:window-maximized="0" />
  <metadata
     id="metadata2969">
    <rdf:RDF>
      <cc:Work
         rdf:about="">
        <dc:format>image/svg+xml</dc:format>
        <dc:type
           rdf:resource="http://purl.org/dc/dcmitype/StillImage" />
        <dc:title></dc:title>
      </cc:Work>
    </rdf:RDF>
  </metadata>
  <g
     inkscape:label="Capa 1"
     inkscape:groupmode="layer"
     id="layer1">
    <path
       style="fill:#000000"
       d="m 455.36575,605.01494 c -3.73023,-5.41194 -21.40723,-31.25855 -39.28223,-57.43692 l -32.5,-47.59702 -0.2591,50.32203 c -0.19866,38.58371 -0.54856,50.56086 -1.5,51.3459 -1.57648,1.30077 -60.87663,10.42123 -65.09405,10.01158 l -3.14685,-0.30567 -0.25368,-132.94632 c -0.1748,-91.61132 0.0719,-133.27392 0.79349,-134 1.56328,-1.57301 66.017,-7.59317 68.28758,-6.37825 1.74793,0.93526 1.79733,3.26806 1.13611,53.65117 -0.60859,46.3731 -0.51528,52.49398 0.78015,51.1734 1.27722,-1.30202 38.95058,-51.66091 67.51581,-90.25 5.19094,-7.0125 10.00367,-12.75 10.69495,-12.75 1.90407,0 69.37749,15.77808 70.53641,16.49433 2.59285,1.60247 -0.21913,6.20357 -16.6953,27.31758 -33.20096,42.54665 -62.87832,80.68185 -65.56098,84.24538 l -2.67795,3.5573 c 69.59045,100.82402 14.16037,25.10506 80.64858,115.06552 2.61844,3.43295 2.64438,3.59113 0.80887,4.93328 -2.78535,2.5946 -3.19462,1.93558 -6.77468,3.79266 0.51419,0.51417 -57.29423,19.59395 -59.36623,19.59395 -0.71977,0 -4.36068,-4.42795 -8.0909,-9.8399 z"
       id="path2836"
       sodipodi:nodetypes="ccccscccsssssssscccccsc" />
  </g>
</svg>
