<?xml version="1.0" encoding="UTF-8" standalone="no"?>
<!-- Created with Inkscape (http://www.inkscape.org/) -->

<svg
   xmlns:dc="http://purl.org/dc/elements/1.1/"
   xmlns:cc="http://creativecommons.org/ns#"
   xmlns:rdf="http://www.w3.org/1999/02/22-rdf-syntax-ns#"
   xmlns:svg="http://www.w3.org/2000/svg"
   xmlns="http://www.w3.org/2000/svg"
   xmlns:sodipodi="http://sodipodi.sourceforge.net/DTD/sodipodi-0.dtd"
   xmlns:inkscape="http://www.inkscape.org/namespaces/inkscape"
   width="210mm"
   height="297mm"
   id="svg2851"
   version="1.1"
   inkscape:version="0.47pre4 r22446"
   sodipodi:docname="Nuevo documento 3">
  <defs
     id="defs2853">
    <inkscape:perspective
       sodipodi:type="inkscape:persp3d"
       inkscape:vp_x="0 : 526.18109 : 1"
       inkscape:vp_y="0 : 1000 : 0"
       inkscape:vp_z="744.09448 : 526.18109 : 1"
       inkscape:persp3d-origin="372.04724 : 350.78739 : 1"
       id="perspective2859" />
    <inkscape:perspective
       id="perspective2846"
       inkscape:persp3d-origin="0.5 : 0.33333333 : 1"
       inkscape:vp_z="1 : 0.5 : 1"
       inkscape:vp_y="0 : 1000 : 0"
       inkscape:vp_x="0 : 0.5 : 1"
       sodipodi:type="inkscape:persp3d" />
  </defs>
  <sodipodi:namedview
     id="base"
     pagecolor="#ffffff"
     bordercolor="#666666"
     borderopacity="1.0"
     inkscape:pageopacity="0.0"
     inkscape:pageshadow="2"
     inkscape:zoom="1.979899"
     inkscape:cx="449.2351"
     inkscape:cy="520"
     inkscape:document-units="px"
     inkscape:current-layer="layer1"
     showgrid="false"
     inkscape:window-width="948"
     inkscape:window-height="785"
     inkscape:window-x="393"
     inkscape:window-y="136"
     inkscape:window-maximized="0" />
  <metadata
     id="metadata2856">
    <rdf:RDF>
      <cc:Work
         rdf:about="">
        <dc:format>image/svg+xml</dc:format>
        <dc:type
           rdf:resource="http://purl.org/dc/dcmitype/StillImage" />
        <dc:title></dc:title>
      </cc:Work>
    </rdf:RDF>
  </metadata>
  <g
     inkscape:label="Capa 1"
     inkscape:groupmode="layer"
     id="layer1">
    <path
       style="fill:#000000"
       d="m 318.64385,729.11415 c -1.67159,-1.67159 -2.88248,-5.19544 -4.55306,-13.25 -1.25171,-6.03504 -3.69401,-17.64888 -5.42733,-25.80854 l -3.15149,-14.83575 -8.61025,-3.32263 c -4.73564,-1.82745 -10.45521,-4.26386 -12.71016,-5.41425 -2.25495,-1.15039 -4.46957,-2.09162 -4.92137,-2.09162 -0.4518,0 -11.15723,6.2954 -23.78984,13.98978 -13.50691,8.2269 -24.01603,13.99398 -25.51161,14 -1.95478,0.008 -5.94607,-3.41998 -17.25,-14.81482 -9.56273,-9.63963 -14.70676,-15.55921 -14.70676,-16.92404 0,-1.15445 3.96154,-8.09568 8.80343,-15.42496 4.8419,-7.32928 11.57987,-17.62347 14.97327,-22.87598 l 6.16983,-9.55001 -3.90187,-9.05046 c -2.14603,-4.97776 -4.62373,-11.53361 -5.50602,-14.56856 l -1.60415,-5.51809 -25.71725,-6.24745 c -14.14448,-3.4361 -26.50474,-6.93999 -27.46724,-7.78642 -1.56051,-1.37232 -1.75,-3.77542 -1.75,-22.19285 0,-15.58697 0.32564,-21.09922 1.32739,-22.4692 1.01886,-1.39338 7.51786,-3.04547 27.96069,-7.10782 14.6483,-2.91087 27.02151,-5.53243 27.49599,-5.82568 0.47449,-0.29325 1.47166,-2.3783 2.21592,-4.63344 0.74426,-2.25514 1.72238,-4.32842 2.17358,-4.60728 0.45121,-0.27886 0.35914,0.70611 -0.20458,2.18882 -1.9422,5.10837 -0.32266,3.38378 1.93299,-2.05836 1.24292,-2.99877 1.92891,-5.98778 1.52442,-6.64225 -0.43727,-0.70751 -0.30984,-0.92692 0.3143,-0.54118 1.2,0.74164 2.56074,-2.04298 1.6882,-3.45477 -0.31766,-0.51399 -0.0141,-0.81088 0.6746,-0.65976 0.6887,0.15113 1.69072,-0.9107 2.22672,-2.35961 0.87489,-2.36501 -0.51559,-5.12587 -13.59823,-27 -8.01502,-13.40109 -14.83536,-25.28812 -15.15631,-26.41564 -0.43063,-1.51287 0.4001,-2.95402 3.17039,-5.5 l 3.75392,-3.44997 -3.43165,3.73502 c -1.8874,2.05426 -3.21554,3.95112 -2.95142,4.21524 0.26412,0.26413 6.52711,-5.57913 13.91775,-12.98502 7.39064,-7.40588 14.20764,-13.46524 15.14887,-13.46524 0.94124,0 12.32646,6.975 25.30049,15.5 12.97403,8.525 23.9593,15.5 24.41172,15.5 0.45242,0 4.23146,-1.575 8.39787,-3.5 4.16641,-1.925 8.27978,-3.5 9.14083,-3.5 1.34289,0 1.56554,1.90712 1.56554,13.40961 l 0,13.40962 -7.41444,4.06927 c -15.04841,8.25905 -27.51942,20.19438 -36.95861,35.37105 -5.2147,8.38439 -11.02456,22.2619 -10.20938,24.38623 0.35467,0.92426 0.14045,1.19909 -0.58512,0.75067 -0.81387,-0.503 -0.9594,0.21879 -0.50361,2.49777 0.40054,2.00268 0.27152,2.97682 -0.3439,2.59647 -0.54172,-0.3348 -0.98494,0.11939 -0.98494,1.00931 0,0.88992 0.44322,1.34411 0.98494,1.00931 0.62422,-0.38579 0.71578,0.59975 0.25,2.69098 -0.40422,1.81484 -0.7081,9.37471 -0.67529,16.79971 0.0664,15.01913 2.12104,25.66157 7.36305,38.13793 10.24736,24.38946 31.50041,44.70038 56.3061,53.81009 12.19557,4.47873 17.88138,5.40856 33.51708,5.48117 8.38524,0.0389 15.24774,0.40831 15.25,0.82081 0.002,0.4125 1.01662,0.71837 2.25412,0.67971 2.1469,-0.0671 2.15836,-0.10966 0.25,-0.92971 -2.22244,-0.95501 -2.3629,-0.9267 7.5,-1.51181 7.94345,-0.47125 24.95737,-8.49108 35.93659,-16.9394 7.96544,-6.12926 18.30458,-17.51816 23.35049,-25.72132 2.36858,-3.85061 4.81568,-6.73481 5.58977,-6.58821 0.75726,0.14341 6.64366,7.91074 13.08087,17.26074 11.28159,16.3864 11.82744,17.00042 15.12316,17.01154 1.88051,0.006 3.92435,0.33501 4.54186,0.73036 1.92739,1.23401 17.37726,27.39477 17.37726,29.42436 0,1.85774 -26.69524,29.33374 -28.5002,29.33374 -0.46198,0 -11.51662,-6.99448 -24.56587,-15.54328 L 405.22,660.3048 l -7.54542,3.73357 c -4.14999,2.05347 -7.34617,4.05598 -7.10264,4.45002 0.24353,0.39405 -0.5282,0.46253 -1.71496,0.15219 -1.46765,-0.3838 -1.93122,-0.19773 -1.44944,0.5818 0.47377,0.76658 0.1401,0.92803 -1.00768,0.48759 -1.12985,-0.43357 -1.4793,-0.27553 -1.02307,0.46266 0.43608,0.7056 -0.84053,1.58058 -3.44431,2.36069 -2.47735,0.74223 -4.46806,2.06572 -4.96185,3.29879 -0.45355,1.13259 -3.34751,13.08425 -6.43102,26.55925 -4.8172,21.05124 -5.96061,24.81672 -8.12278,26.75 -2.42724,2.17029 -3.20681,2.25 -22.00608,2.25 -18.9472,0 -19.55307,-0.0634 -21.7669,-2.27721 z m 31.67006,-0.46717 c -5.05893,-0.18111 -13.60893,-0.1819 -19,-0.002 -5.39107,0.18015 -1.25194,0.32834 9.19806,0.3293 10.45,9.6e-4 14.86087,-0.14644 9.80194,-0.32755 l 0,2.5e-4 z m 9.34903,-3.4999 c 0.42296,-0.68435 3.71201,-13.11346 7.30902,-27.62023 l 6.54001,-26.37594 9,-3.21824 c 4.95,-1.77003 11.79967,-4.64093 15.22148,-6.37977 3.42182,-1.73885 6.75713,-3.16154 7.4118,-3.16154 0.65467,0 11.45361,6.75 23.99765,15 12.54405,8.25 23.37748,15 24.07431,15 1.64499,0 26.79476,-25.0805 26.79476,-26.72096 0,-0.68739 -3.70871,-7.32721 -8.24159,-14.75514 -7.06941,-11.58451 -8.52724,-13.41422 -10.25,-12.86475 -4.78411,1.52586 -3.9459,2.46026 -24.34635,-27.14039 l -5.33795,-7.74525 -5.03609,7.86325 c -5.8745,9.17229 -18.60332,22.21372 -27.58229,28.25967 -9.40705,6.3342 -21.499,11.78346 -32.70573,14.73891 -8.67569,2.28797 -11.98647,2.63722 -25,2.63722 -12.91824,0 -16.34701,-0.35633 -24.70581,-2.56747 -30.66207,-8.11101 -55.16794,-28.58866 -68.34645,-57.11182 -6.52489,-14.12227 -7.95425,-21.83424 -7.8944,-42.59327 0.0498,-17.28101 0.23535,-19.09302 2.81573,-27.5 8.10471,-26.40544 25.3546,-48.06416 48.3177,-60.66704 l 7.31323,-4.01373 0,-11.90962 c 0,-6.55028 -0.25449,-11.90961 -0.56554,-11.90961 -0.31105,0 -3.97442,1.575 -8.14083,3.5 -4.16641,1.925 -8.03266,3.5 -8.59165,3.5 -0.559,0 -11.66068,-6.975 -24.6704,-15.5 -13.00973,-8.525 -24.07046,-15.5 -24.57941,-15.5 -0.50894,0 -6.86527,5.92769 -14.12517,13.17264 l -13.19981,13.17264 1.497,2.89488 c 0.82335,1.59219 7.57536,12.84537 15.00446,25.00707 l 13.50745,22.11218 -4.43676,9.0703 c -2.44022,4.98866 -5.20525,11.4275 -6.14451,14.30853 -0.93926,2.88103 -2.06493,5.45899 -2.50149,5.72879 -0.72629,0.44888 -53.05447,11.53297 -54.44733,11.53297 -0.3333,0 -0.606,8.73336 -0.606,19.40747 l 0,19.40747 25.25,6.15668 c 13.88749,3.38618 25.98912,6.36779 26.89251,6.62581 1.05181,0.30041 2.61492,3.58796 4.34641,9.14146 1.48714,4.76978 4.46315,12.23493 6.61334,16.58921 l 3.90944,7.91688 -2.2264,3.62751 c -1.22451,1.99513 -8.24473,12.80788 -15.60048,24.02834 l -13.37408,20.40083 13.54148,13.54148 13.54148,13.54148 24.56089,-14.84702 24.56089,-14.84703 5.01282,2.72832 c 2.75705,1.50057 9.60562,4.46133 15.21906,6.57946 6.47872,2.44463 10.47008,4.51777 10.92862,5.6764 0.39729,1.00389 3.04213,13.07525 5.87742,26.82525 2.83528,13.75 5.35971,25.3375 5.60984,25.75 0.25013,0.4125 8.72667,0.75 18.83675,0.75 13.58181,0 18.58278,-0.32492 19.15097,-1.24428 z M 231.19947,689.70825 c -0.72188,-0.28887 -1.58438,-0.25335 -1.91667,0.0789 -0.33229,0.33229 0.25834,0.56864 1.3125,0.52522 1.16495,-0.048 1.4019,-0.28494 0.60417,-0.60416 l 0,4e-5 z m 141.41667,-5.04606 c -0.33229,-0.33229 -0.56864,0.25834 -0.52522,1.3125 0.048,1.16495 0.28494,1.4019 0.60416,0.60417 0.28887,-0.72188 0.25335,-1.58438 -0.0789,-1.91667 l -4e-5,0 z m 1,-4 c -0.33229,-0.33229 -0.56864,0.25834 -0.52522,1.3125 0.048,1.16495 0.28494,1.4019 0.60416,0.60417 0.28887,-0.72188 0.25335,-1.58438 -0.0789,-1.91667 l -4e-5,0 z m 1,-4 c -0.33229,-0.33229 -0.56864,0.25834 -0.52522,1.3125 0.048,1.16495 0.28494,1.4019 0.60416,0.60417 0.28887,-0.72188 0.25335,-1.58438 -0.0789,-1.91667 l -4e-5,0 z m 2.82413,-3.52083 c 0.49777,-0.4125 0.15503,-0.75 -0.76163,-0.75 -0.92647,0 -1.65987,0.77721 -1.65136,1.75 0.009,0.99868 0.33573,1.32068 0.76164,0.75 0.41047,-0.55 1.15358,-1.3375 1.65135,-1.75 z m -45.69733,-23.44299 c -0.97297,-0.25354 -2.32297,-0.23687 -3,0.0371 -0.67703,0.27393 0.11903,0.48137 1.76903,0.46099 1.65,-0.0204 2.20394,-0.2445 1.23097,-0.49804 l 0,-5e-5 z m 22.01903,0.004 c -0.9625,-0.25152 -2.5375,-0.25152 -3.5,0 -0.9625,0.25153 -0.175,0.45733 1.75,0.45733 1.925,0 2.7125,-0.2058 1.75,-0.45733 z m -29.5625,-0.99378 c -0.72188,-0.28887 -1.58438,-0.25335 -1.91667,0.0789 -0.33229,0.33229 0.25834,0.56864 1.3125,0.52522 1.16495,-0.048 1.4019,-0.28494 0.60417,-0.60416 l 0,4e-5 z m 41,-1 c -0.72188,-0.28887 -1.58438,-0.25335 -1.91667,0.0789 -0.33229,0.33229 0.25834,0.56864 1.3125,0.52522 1.16495,-0.048 1.4019,-0.28494 0.60417,-0.60416 l 0,4e-5 z m -80.1875,-14.69479 c 0,-0.20765 -0.7875,-0.99515 -1.75,-1.75 -1.58606,-1.24387 -1.62143,-1.2085 -0.37756,0.37756 1.30637,1.66575 2.12756,2.19548 2.12756,1.37244 z m -4,-2.96745 c 0,-0.18976 -1.0125,-1.20226 -2.25,-2.25 l -2.25,-1.90499 1.90499,2.25 c 1.79022,2.11444 2.59501,2.70524 2.59501,1.90499 z m -9.5,-8.65499 c -2.14824,-2.2 -4.1309,-4 -4.4059,-4 -0.275,0 1.25766,1.8 3.4059,4 2.14824,2.2 4.1309,4 4.4059,4 0.275,0 -1.25766,-1.8 -3.4059,-4 z m -40.71224,-9.13671 c -0.24965,-0.74895 -0.70294,-0.29565 -1.05655,1.05655 -0.43497,1.66335 -0.30483,2.05378 0.43724,1.31171 0.5811,-0.5811 0.85979,-1.64682 0.61931,-2.36826 z m 35.21224,2.7917 c 0,-0.18976 -1.0125,-1.20226 -2.25,-2.25 l -2.25,-1.90499 1.90499,2.25 c 1.79022,2.11444 2.59501,2.70524 2.59501,1.90499 z M 167.01198,569.0138 c 0,-0.20765 -0.7875,-0.99515 -1.75,-1.75 -1.58606,-1.24387 -1.62143,-1.2085 -0.37756,0.37756 1.30637,1.66575 2.12756,2.19548 2.12756,1.37244 z m 76.60416,-2.35161 c -0.3323,-0.33229 -0.56864,0.25834 -0.52522,1.3125 0.048,1.16495 0.28494,1.4019 0.60416,0.60417 0.28887,-0.72188 0.25335,-1.58438 -0.0789,-1.91667 l -4e-5,0 z m -0.91484,-9.02083 c -0.25153,-0.9625 -0.45733,-0.175 -0.45733,1.75 0,1.925 0.2058,2.7125 0.45733,1.75 0.25152,-0.9625 0.25152,-2.5375 0,-3.5 z m -0.002,-17.01166 c -0.25029,-0.95609 -0.446,0.0617 -0.4349,2.26166 0.0111,2.2 0.21589,2.98225 0.45508,1.73834 0.23919,-1.24391 0.23011,-3.04391 -0.0202,-4 l 2e-5,0 z m 0.9752,-7.48834 c -0.27741,-0.6875 -0.50439,-0.125 -0.50439,1.25 0,1.375 0.22698,1.9375 0.50439,1.25 0.27741,-0.6875 0.27741,-1.8125 0,-2.5 z m -78.28072,-6.30194 c 0.3415,-0.88992 0.17385,-1.29132 -0.39301,-0.94098 -0.54395,0.33602 -0.98879,1.0344 -0.98879,1.55194 0,1.43843 0.71676,1.12146 1.38155,-0.61096 l 2.5e-4,0 z m 16.8057,-5.13117 c -0.72188,-0.28887 -1.58438,-0.25335 -1.91667,0.0789 -0.33229,0.33229 0.25833,0.56864 1.3125,0.52522 1.16494,-0.048 1.4019,-0.28494 0.60417,-0.60416 l 0,4e-5 z m 5,-1 c -0.72188,-0.28887 -1.58438,-0.25335 -1.91667,0.0789 -0.33229,0.33229 0.25833,0.56864 1.3125,0.52522 1.16494,-0.048 1.4019,-0.28494 0.60417,-0.60416 l 0,4e-5 z m 18.99999,-4 c -0.72187,-0.28887 -1.58437,-0.25335 -1.91667,0.0789 -0.33229,0.33229 0.25834,0.56864 1.3125,0.52522 1.16495,-0.048 1.4019,-0.28494 0.60417,-0.60416 l 0,4e-5 z m 5,-1 c -0.72187,-0.28887 -1.58437,-0.25335 -1.91667,0.0789 -0.33229,0.33229 0.25834,0.56864 1.3125,0.52522 1.16495,-0.048 1.4019,-0.28494 0.60417,-0.60416 l 0,4e-5 z m 9.8125,-2.28551 c 0,-0.53273 -0.675,-0.70959 -1.5,-0.39301 -0.825,0.31659 -1.5,0.75246 -1.5,0.96862 0,0.21615 0.675,0.39301 1.5,0.39301 0.825,0 1.5,-0.43588 1.5,-0.96862 z m 257,156.8428 c 0,-0.275 1.35,-1.79338 3,-3.37418 1.65,-1.5808 3,-2.64918 3,-2.37418 0,0.275 -1.35,1.79338 -3,3.37418 -1.65,1.5808 -3,2.64918 -3,2.37418 z m -3.51787,-25.31899 c -7.15129,-11.85303 -9.18752,-14.52554 -11.34856,-14.89475 -2.30336,-0.39351 -2.25835,-0.43178 0.35898,-0.30518 2.68836,0.13003 3.67433,1.26286 9.69987,11.14474 8.33344,13.66682 11.06879,18.5 10.47012,18.5 -0.25599,0 -4.38717,-6.50017 -9.18041,-14.44481 z m -18.27007,-16.30519 c -1.05828,-1.5125 -4.54241,-6.575 -7.74253,-11.25 -11.89733,-17.38062 -14.85594,-21.51806 -15.89958,-22.23469 -0.72858,-0.50028 -0.68854,-0.73957 0.1255,-0.75 0.6575,-0.008 6.45931,7.74719 12.8929,17.23469 6.43359,9.4875 12.39415,17.8125 13.24567,18.5 0.85153,0.6875 1.04287,1.25 0.4252,1.25 -0.61767,0 -1.98889,-1.2375 -3.04716,-2.75 z m -4.92983,-19.0899 c -3.73023,-5.41194 -21.40723,-31.25855 -39.28223,-57.43692 l -32.5,-47.59702 -0.2591,50.32203 c -0.19866,38.58371 -0.54856,50.56086 -1.5,51.3459 -1.57648,1.30077 -60.87663,10.42123 -65.09405,10.01158 l -3.14685,-0.30567 -0.25368,-132.94632 c -0.1748,-91.61132 0.0719,-133.27392 0.79349,-134 1.56328,-1.57301 66.017,-7.59317 68.28758,-6.37825 1.74793,0.93526 1.79733,3.26806 1.13611,53.65117 -0.60859,46.3731 -0.51528,52.49398 0.78015,51.1734 1.27722,-1.30202 38.95058,-51.66091 67.51581,-90.25 5.19094,-7.0125 10.00367,-12.75 10.69495,-12.75 1.90407,0 69.37749,15.77808 70.53641,16.49433 2.59285,1.60247 -0.21913,6.20357 -16.6953,27.31758 -33.20096,42.54665 -62.87832,80.68185 -65.56098,84.24538 l -2.67795,3.5573 10.52766,14.69765 c 5.79022,8.08371 10.23875,15.16514 9.88562,15.73651 -0.76979,1.24554 1.40939,4.1439 2.57434,3.42393 0.44968,-0.27792 1.14322,0.0216 1.5412,0.66552 0.47801,0.77343 0.28773,0.90143 -0.56063,0.37711 -0.85608,-0.52908 -1.12986,-0.33054 -0.82118,0.59549 0.25469,0.76406 0.95057,1.3892 1.5464,1.3892 0.59583,0 1.45833,0.40965 1.91667,0.91033 0.492,0.53745 0.26819,0.58284 -0.5464,0.1108 -0.9493,-0.5501 -1.22227,-0.36614 -0.875,0.58967 0.2776,0.76406 1.04443,1.26555 1.70406,1.11442 0.65963,-0.15112 0.94329,0.1395 0.63036,0.64584 -0.31293,0.50634 0.3295,1.97999 1.42764,3.27478 1.76027,2.0755 1.92602,2.11742 1.4003,0.35416 -0.46795,-1.56952 -0.37495,-1.68742 0.43205,-0.54775 0.5656,0.79874 0.80584,1.81229 0.53388,2.25234 -0.67834,1.09758 5.71866,9.85645 6.73834,9.22625 0.45011,-0.27818 3.22065,2.77358 6.15677,6.78169 8.33761,11.38173 10.21843,14.20655 8.928,13.40902 -0.65817,-0.40677 -1.19667,-0.31813 -1.19667,0.19699 0,1.25332 2.54006,3.30806 3.23292,2.61521 0.30189,-0.3019 1.59291,0.93951 2.86892,2.75867 1.50338,2.14332 1.71777,2.82448 0.60909,1.93514 -0.94101,-0.75485 -1.71093,-0.92245 -1.71093,-0.37245 0,1.2682 2.51312,3.39844 3.19951,2.71205 0.28352,-0.28352 1.14211,0.28288 1.90799,1.25867 1.26621,1.61326 1.23378,1.64969 -0.3575,0.40173 -0.9625,-0.75485 -1.75,-1.04014 -1.75,-0.63398 0,1.48266 7.20082,10.50034 7.99354,10.01041 0.44922,-0.27763 3.84877,3.65789 7.55455,8.74561 3.70578,5.08772 5.77346,8.39316 4.59485,7.34541 -2.94962,-2.62209 -2.68552,-1.17292 0.56223,3.0851 2.61844,3.43295 2.64438,3.59113 0.80887,4.93328 -1.04296,0.76263 -2.59779,1.3935 -3.45517,1.40192 -1.37334,0.0135 -1.38035,0.13612 -0.0589,1.03038 1.14112,0.77221 0.90187,0.87858 -1,0.4446 -1.375,-0.31375 -4.3,0.0909 -6.5,0.89917 -2.2,0.80829 -3.46679,1.50132 -2.8151,1.54008 0.6517,0.0388 2.40161,-0.39213 3.88869,-0.95752 1.48708,-0.56539 2.91169,-0.82007 3.1658,-0.56597 0.51419,0.51417 -57.29423,19.59395 -59.36623,19.59395 -0.71977,0 -4.36068,-4.42795 -8.0909,-9.8399 z m 9.96777,7.17762 c -0.6875,-0.27741 -1.8125,-0.27741 -2.5,0 -0.6875,0.27741 -0.125,0.50439 1.25,0.50439 1.375,0 1.9375,-0.22698 1.25,-0.50439 z m 31.94279,-12.81638 c 16.57733,-5.23677 30.26218,-9.64297 30.41077,-9.79156 0.14859,-0.14859 -18.85391,-26.5692 -42.22777,-58.71245 -27.01358,-37.14854 -42.33691,-59.05802 -42.056,-60.1322 0.24305,-0.92945 19.43928,-26.06509 42.65827,-55.85698 23.21899,-29.79189 41.91647,-54.46695 41.54995,-54.83347 -0.67187,-0.67187 -63.73627,-15.36693 -64.07145,-14.92972 -0.0991,0.12927 -18.73049,25.09754 -41.40308,55.48504 -22.67258,30.3875 -41.86274,55.25 -42.64479,55.25 -1.22041,0 -1.32699,-8.07232 -0.75212,-56.96361 l 0.66979,-56.96361 -3.41318,0.47034 c -3.92706,0.54115 -55.07812,5.45688 -56.78204,5.45688 -0.8357,0 -1.13114,33.82428 -1.13114,129.5 0,71.225 0.3375,129.50095 0.75,129.50211 1.18987,0.003 54.50276,-7.98375 57,-8.53949 l 2.25,-0.50072 0,-54.87396 c 0,-47.64281 0.19597,-54.94916 1.4871,-55.44462 0.90785,-0.34837 1.97902,0.31847 2.75,1.71199 0.6946,1.25545 19.47672,28.92336 41.73805,61.48425 26.07999,38.14631 40.93784,59.02407 41.77609,58.7024 0.71552,-0.27457 14.86421,-4.78384 31.44155,-10.02062 z m -169.00529,8.79555 c -0.72188,-0.28887 -1.58438,-0.25335 -1.91667,0.0789 -0.33229,0.33229 0.25834,0.56864 1.3125,0.52522 1.16495,-0.048 1.4019,-0.28494 0.60417,-0.60416 l 0,4e-5 z m 13,-2 c -0.72188,-0.28887 -1.58438,-0.25335 -1.91667,0.0789 -0.33229,0.33229 0.25834,0.56864 1.3125,0.52522 1.16495,-0.048 1.4019,-0.28494 0.60417,-0.60416 l 0,4e-5 z m 7,-1 c -0.72188,-0.28887 -1.58438,-0.25335 -1.91667,0.0789 -0.33229,0.33229 0.25834,0.56864 1.3125,0.52522 1.16495,-0.048 1.4019,-0.28494 0.60417,-0.60416 l 0,4e-5 z m 13,-2 c -0.72188,-0.28887 -1.58438,-0.25335 -1.91667,0.0789 -0.33229,0.33229 0.25834,0.56864 1.3125,0.52522 1.16495,-0.048 1.4019,-0.28494 0.60417,-0.60416 l 0,4e-5 z m 7,-1 c -0.72188,-0.28887 -1.58438,-0.25335 -1.91667,0.0789 -0.33229,0.33229 0.25834,0.56864 1.3125,0.52522 1.16495,-0.048 1.4019,-0.28494 0.60417,-0.60416 l 0,4e-5 z m 136,-2 c -0.72188,-0.28887 -1.58438,-0.25335 -1.91667,0.0789 -0.33229,0.33229 0.25834,0.56864 1.3125,0.52522 1.16495,-0.048 1.4019,-0.28494 0.60417,-0.60416 l 0,4e-5 z m -52.1875,-4.69445 c 0,-0.20765 -0.7875,-0.99515 -1.75,-1.75 -1.58606,-1.24387 -1.62143,-1.2085 -0.37756,0.37756 1.30637,1.66575 2.12756,2.19548 2.12756,1.37244 z m 69.34783,-20.97027 c -2.62029,-3.61304 -4.92544,-6.40789 -5.12256,-6.21077 -0.19712,0.19712 1.77542,3.32457 4.38343,6.9499 2.608,3.62534 4.91315,6.42018 5.12255,6.21078 0.20941,-0.2094 -1.76313,-3.33686 -4.38342,-6.94991 z m -82.34783,1.97027 c 0,-0.20765 -0.7875,-0.99515 -1.75,-1.75 -1.58606,-1.24387 -1.62143,-1.2085 -0.37756,0.37756 1.30637,1.66575 2.12756,2.19548 2.12756,1.37244 z m -15,-21.62244 c -1.1749,-1.65 -2.36119,-3 -2.63619,-3 -0.275,0 0.46129,1.35 1.63619,3 1.1749,1.65 2.36119,3 2.63619,3 0.275,0 -0.46129,-1.35 -1.63619,-3 z m 80.18333,-4.21667 c -0.71756,-0.71756 -1.18333,-0.7766 -1.18333,-0.15 0,1.33478 1.18261,2.51739 1.85,1.85 0.28417,-0.28416 -0.0158,-1.04916 -0.66667,-1.7 z m -4.82453,-6.03333 c -2.16616,-3.56636 -12.52764,-17.75 -12.9668,-17.75 -0.28052,0 -0.18183,0.5625 0.21932,1.25 1.58773,2.72113 12.64923,17.75 13.0643,17.75 0.24333,0 0.10076,-0.5625 -0.31682,-1.25 z m -90.3588,-11.75 c -1.1749,-1.65 -2.36119,-3 -2.63619,-3 -0.275,0 0.46129,1.35 1.63619,3 1.1749,1.65 2.36119,3 2.63619,3 0.275,0 -0.46129,-1.35 -1.63619,-3 z m -13,-19 c -1.1749,-1.65 -2.36119,-3 -2.63619,-3 -0.275,0 0.46129,1.35 1.63619,3 1.1749,1.65 2.36119,3 2.63619,3 0.275,0 -0.46129,-1.35 -1.63619,-3 z m 70,-15 c -1.1749,-1.65 -2.36119,-3 -2.63619,-3 -0.275,0 0.46129,1.35 1.63619,3 1.1749,1.65 2.36119,3 2.63619,3 0.275,0 -0.46129,-1.35 -1.63619,-3 z m -82.79063,-3.80322 c -0.90776,-1.38542 -1.78951,-1.95637 -2.00818,-1.30034 -0.61497,1.84489 0.46628,3.77023 2.11732,3.77023 1.31612,0 1.30216,-0.31596 -0.10914,-2.46989 z m 76.62417,-4.77904 c -1.8099,-2.52025 -3.75037,-4.86006 -4.31214,-5.19959 -0.56177,-0.33953 0.29074,1.15999 1.89447,3.33227 4.4429,6.01798 4.79548,6.44958 5.26871,6.44958 0.24183,0 -1.04114,-2.06202 -2.85104,-4.58226 z m -8,-11 c -1.8099,-2.52025 -3.63787,-4.79681 -4.06214,-5.05902 -1.70508,-1.0538 -0.57647,-4.42819 3.0165,-9.01892 12.74608,-16.28567 17.32008,-22.3398 16.8781,-22.3398 -0.38015,0 -13.39862,16.46117 -21.81463,27.58347 -0.71602,0.94626 7.47164,13.41653 8.80895,13.41653 0.25517,0 -1.01688,-2.06202 -2.82678,-4.58226 z m -68.08245,-31.29494 2.1272,-2.87719 -2.43134,1.12719 c -1.33724,0.61996 -2.43486,1.9147 -2.43915,2.8772 -0.0104,2.34384 0.25885,2.23318 2.74329,-1.1272 z m 4.24891,-5.6228 c 0.68469,-0.825 1.01989,-1.5 0.74489,-1.5 -0.275,0 -1.0602,0.675 -1.74489,1.5 -0.68469,0.825 -1.01989,1.5 -0.74489,1.5 0.275,0 1.0602,-0.675 1.74489,-1.5 z m 84,-4.5 c 1.74243,-2.2 2.94306,-4 2.66806,-4 -0.275,0 -1.92563,1.8 -3.66806,4 -1.74243,2.2 -2.94306,4 -2.66806,4 0.275,0 1.92563,-1.8 3.66806,-4 z m -81,0.5 c 0.68469,-0.825 1.01989,-1.5 0.74489,-1.5 -0.275,0 -1.0602,0.675 -1.74489,1.5 -0.68469,0.825 -1.01989,1.5 -0.74489,1.5 0.275,0 1.0602,-0.675 1.74489,-1.5 z m 3,-4 c 0.68469,-0.825 1.01989,-1.5 0.74489,-1.5 -0.275,0 -1.0602,0.675 -1.74489,1.5 -0.68469,0.825 -1.01989,1.5 -0.74489,1.5 0.275,0 1.0602,-0.675 1.74489,-1.5 z m 85,-5.5 c 1.74243,-2.2 2.94306,-4 2.66806,-4 -0.275,0 -1.92563,1.8 -3.66806,4 -1.74243,2.2 -2.94306,4 -2.66806,4 0.275,0 1.92563,-1.8 3.66806,-4 z m -82,1.5 c 0.68469,-0.825 1.01989,-1.5 0.74489,-1.5 -0.275,0 -1.0602,0.675 -1.74489,1.5 -0.68469,0.825 -1.01989,1.5 -0.74489,1.5 0.275,0 1.0602,-0.675 1.74489,-1.5 z m 3,-4 c 0.68469,-0.825 1.01989,-1.5 0.74489,-1.5 -0.275,0 -1.0602,0.675 -1.74489,1.5 -0.68469,0.825 -1.01989,1.5 -0.74489,1.5 0.275,0 1.0602,-0.675 1.74489,-1.5 z m 3,-4 c 0.68469,-0.825 1.01989,-1.5 0.74489,-1.5 -0.275,0 -1.0602,0.675 -1.74489,1.5 -0.68469,0.825 -1.01989,1.5 -0.74489,1.5 0.275,0 1.0602,-0.675 1.74489,-1.5 z m 83,-2.5 c 1.74243,-2.2 2.94306,-4 2.66806,-4 -0.275,0 -1.92563,1.8 -3.66806,4 -1.74243,2.2 -2.94306,4 -2.66806,4 0.275,0 1.92563,-1.8 3.66806,-4 z m -80,-1.5 c 0.68469,-0.825 1.01989,-1.5 0.74489,-1.5 -0.275,0 -1.0602,0.675 -1.74489,1.5 -0.68469,0.825 -1.01989,1.5 -0.74489,1.5 0.275,0 1.0602,-0.675 1.74489,-1.5 z m 3,-4 c 0.68469,-0.825 1.01989,-1.5 0.74489,-1.5 -0.275,0 -1.0602,0.675 -1.74489,1.5 -0.68469,0.825 -1.01989,1.5 -0.74489,1.5 0.275,0 1.0602,-0.675 1.74489,-1.5 z m 84,-3.5 c 1.74243,-2.2 2.94306,-4 2.66806,-4 -0.275,0 -1.92563,1.8 -3.66806,4 -1.74243,2.2 -2.94306,4 -2.66806,4 0.275,0 1.92563,-1.8 3.66806,-4 z m -81,-0.5 c 0.68469,-0.825 1.01989,-1.5 0.74489,-1.5 -0.275,0 -1.0602,0.675 -1.74489,1.5 -0.68469,0.825 -1.01989,1.5 -0.74489,1.5 0.275,0 1.0602,-0.675 1.74489,-1.5 z m 3,-4 c 0.68469,-0.825 1.01989,-1.5 0.74489,-1.5 -0.275,0 -1.0602,0.675 -1.74489,1.5 -0.68469,0.825 -1.01989,1.5 -0.74489,1.5 0.275,0 1.0602,-0.675 1.74489,-1.5 z m 85,-4.5 c 1.74243,-2.2 2.94306,-4 2.66806,-4 -0.275,0 -1.92563,1.8 -3.66806,4 -1.74243,2.2 -2.94306,4 -2.66806,4 0.275,0 1.92563,-1.8 3.66806,-4 z m -82,0.5 c 0.68469,-0.825 1.01989,-1.5 0.74489,-1.5 -0.275,0 -1.0602,0.675 -1.74489,1.5 -0.68469,0.825 -1.01989,1.5 -0.74489,1.5 0.275,0 1.0602,-0.675 1.74489,-1.5 z m 3,-4 c 0.68469,-0.825 1.01989,-1.5 0.74489,-1.5 -0.275,0 -1.0602,0.675 -1.74489,1.5 -0.68469,0.825 -1.01989,1.5 -0.74489,1.5 0.275,0 1.0602,-0.675 1.74489,-1.5 z m 87.5,-7.5 c 2.53929,-3.3 4.39189,-6 4.11689,-6 -0.275,0 -2.5776,2.7 -5.11689,6 -2.53929,3.3 -4.39189,6 -4.11689,6 0.275,0 2.5776,-2.7 5.11689,-6 z m -84.5,3.5 c 0.68469,-0.825 1.01989,-1.5 0.74489,-1.5 -0.275,0 -1.0602,0.675 -1.74489,1.5 -0.68469,0.825 -1.01989,1.5 -0.74489,1.5 0.275,0 1.0602,-0.675 1.74489,-1.5 z m 3,-4 c 0.68469,-0.825 1.01989,-1.5 0.74489,-1.5 -0.275,0 -1.0602,0.675 -1.74489,1.5 -0.68469,0.825 -1.01989,1.5 -0.74489,1.5 0.275,0 1.0602,-0.675 1.74489,-1.5 z m 3,-4 c 0.68469,-0.825 1.01989,-1.5 0.74489,-1.5 -0.275,0 -1.0602,0.675 -1.74489,1.5 -0.68469,0.825 -1.01989,1.5 -0.74489,1.5 0.275,0 1.0602,-0.675 1.74489,-1.5 z m 3,-4 c 0.68469,-0.825 1.01989,-1.5 0.74489,-1.5 -0.275,0 -1.0602,0.675 -1.74489,1.5 -0.68469,0.825 -1.01989,1.5 -0.74489,1.5 0.275,0 1.0602,-0.675 1.74489,-1.5 z m 84,-2.5 c 1.74243,-2.2 2.94306,-4 2.66806,-4 -0.275,0 -1.92563,1.8 -3.66806,4 -1.74243,2.2 -2.94306,4 -2.66806,4 0.275,0 1.92563,-1.8 3.66806,-4 z m -81,-1.5 c 0.68469,-0.825 1.01989,-1.5 0.74489,-1.5 -0.275,0 -1.0602,0.675 -1.74489,1.5 -0.68469,0.825 -1.01989,1.5 -0.74489,1.5 0.275,0 1.0602,-0.675 1.74489,-1.5 z m 3,-4 c 0.68469,-0.825 1.01989,-1.5 0.74489,-1.5 -0.275,0 -1.0602,0.675 -1.74489,1.5 -0.68469,0.825 -1.01989,1.5 -0.74489,1.5 0.275,0 1.0602,-0.675 1.74489,-1.5 z m -57.25543,-25.25 c -0.18332,-4.8125 -0.3333,-0.875 -0.3333,8.75 0,9.625 0.14998,13.5625 0.3333,8.75 0.18331,-4.8125 0.18331,-12.6875 0,-17.5 z m 142.25543,21.75 c 1.74243,-2.2 2.94306,-4 2.66806,-4 -0.275,0 -1.92563,1.8 -3.66806,4 -1.74243,2.2 -2.94306,4 -2.66806,4 0.275,0 1.92563,-1.8 3.66806,-4 z m -82,-0.5 c 0.68469,-0.825 1.01989,-1.5 0.74489,-1.5 -0.275,0 -1.0602,0.675 -1.74489,1.5 -0.68469,0.825 -1.01989,1.5 -0.74489,1.5 0.275,0 1.0602,-0.675 1.74489,-1.5 z m 3,-4 c 0.68469,-0.825 1.01989,-1.5 0.74489,-1.5 -0.275,0 -1.0602,0.675 -1.74489,1.5 -0.68469,0.825 -1.01989,1.5 -0.74489,1.5 0.275,0 1.0602,-0.675 1.74489,-1.5 z m 86.93661,-7.30576 c -0.0421,-1.12663 -0.39481,-0.86357 -1.05265,0.7852 -0.54409,1.36369 -1.52807,3.18575 -2.18661,4.04901 -0.65854,0.86326 -0.18485,0.50992 1.05265,-0.7852 1.2375,-1.29513 2.22148,-3.11718 2.18661,-4.04901 z m -83.93661,3.30576 c 0.68469,-0.825 1.01989,-1.5 0.74489,-1.5 -0.275,0 -1.0602,0.675 -1.74489,1.5 -0.68469,0.825 -1.01989,1.5 -0.74489,1.5 0.275,0 1.0602,-0.675 1.74489,-1.5 z m 3,-4 c 0.68469,-0.825 1.01989,-1.5 0.74489,-1.5 -0.275,0 -1.0602,0.675 -1.74489,1.5 -0.68469,0.825 -1.01989,1.5 -0.74489,1.5 0.275,0 1.0602,-0.675 1.74489,-1.5 z m 3,-4 c 0.68469,-0.825 1.01989,-1.5 0.74489,-1.5 -0.275,0 -1.0602,0.675 -1.74489,1.5 -0.68469,0.825 -1.01989,1.5 -0.74489,1.5 0.275,0 1.0602,-0.675 1.74489,-1.5 z m 3,-4 c 0.68469,-0.825 1.01989,-1.5 0.74489,-1.5 -0.275,0 -1.0602,0.675 -1.74489,1.5 -0.68469,0.825 -1.01989,1.5 -0.74489,1.5 0.275,0 1.0602,-0.675 1.74489,-1.5 z m 7,-7.79044 c 1.22341,-0.44994 1.18987,-0.56622 -0.18191,-0.63061 -0.92504,-0.0434 -2.64973,1.38355 -3.83264,3.17105 l -2.15074,3.25 2.33265,-2.61939 c 1.28295,-1.44067 3.00764,-2.86764 3.83264,-3.17105 z m -143.75,2.62816 c -0.6875,-0.27741 -1.8125,-0.27741 -2.5,0 -0.6875,0.27742 -0.125,0.50439 1.25,0.50439 1.375,0 1.9375,-0.22697 1.25,-0.50439 z m 9.9375,-1.02083 c -0.72188,-0.28887 -1.58438,-0.25334 -1.91667,0.0789 -0.33229,0.33229 0.25834,0.56864 1.3125,0.52522 1.16495,-0.048 1.4019,-0.28494 0.60417,-0.60417 l 0,5e-5 z m 11.0625,-0.97917 c -0.6875,-0.27741 -1.8125,-0.27741 -2.5,0 -0.6875,0.27742 -0.125,0.50439 1.25,0.50439 1.375,0 1.9375,-0.22697 1.25,-0.50439 z m 10,-1 c -0.6875,-0.27741 -1.8125,-0.27741 -2.5,0 -0.6875,0.27742 -0.125,0.50439 1.25,0.50439 1.375,0 1.9375,-0.22697 1.25,-0.50439 z m 11,-1 c -0.6875,-0.27741 -1.8125,-0.27741 -2.5,0 -0.6875,0.27742 -0.125,0.50439 1.25,0.50439 1.375,0 1.9375,-0.22697 1.25,-0.50439 z m 10,-1 c -0.6875,-0.27741 -1.8125,-0.27741 -2.5,0 -0.6875,0.27742 -0.125,0.50439 1.25,0.50439 1.375,0 1.9375,-0.22697 1.25,-0.50439 z m 59.40907,252.66228 c 0.97468,-1.65 2.13859,-3 2.58647,-3 0.44789,0 -0.18376,1.35 -1.40366,3 -1.2199,1.65 -2.38381,3 -2.58647,3 -0.20267,0 0.42898,-1.35 1.40366,-3 z m 82.14802,-28.75 c -1.9078,-2.2215 -3.06963,-4.25 -2.4342,-4.25 0.27001,0 1.45221,1.35 2.62711,3 2.33011,3.27234 2.21034,4.04842 -0.19291,1.25 z M 202.47085,441.32483 c -0.36253,-0.58659 -0.44468,-1.281 -0.18255,-1.54313 0.26212,-0.26213 0.74306,0.21781 1.06875,1.06653 0.67618,1.76211 0.0999,2.07206 -0.8862,0.4766 z"
       id="path2836"
       sodipodi:nodetypes="cscccsssssssccccccsssssssssssssssscccssssssscccsssssssssssssssssssssssscccssssssssssccssccccccssssssscccssssssscccsssssccccccssscccssccccccccccsssssccsscccsscccsscccsscccsssccsscccssccsscccsscccsscccccccsssccsscccccccssccsscccssccsscccssccsscccsscccsscccsscccsscccsssccsssccssssccsssssscccccscccsssssssscccssssssssssssssssssssssssssssssssssssssssccssccsssssssscccssscccssssccsscccsscccsscccsscccsscccsscccssccsssccssccsssccssccsssccsssccsssccsssccssccsssccsssssccccsccsssccsssccsssccsssccsssccsssccsssccsssccsssccsssccsssccsssccsssccsssccsssccsssccsssccsssccsssccsssccsssccsssccsssccsssccsssccssccsssccsssccsssccsssccsssccsssccsssccsssccscccccssccsscccssccssccssccssccsssccssccssc" />
  </g>
</svg>
