<?xml version="1.0" encoding="UTF-8" standalone="no"?>
<!-- Created with Inkscape (http://www.inkscape.org/) -->

<svg
   xmlns:dc="http://purl.org/dc/elements/1.1/"
   xmlns:cc="http://creativecommons.org/ns#"
   xmlns:rdf="http://www.w3.org/1999/02/22-rdf-syntax-ns#"
   xmlns:svg="http://www.w3.org/2000/svg"
   xmlns="http://www.w3.org/2000/svg"
   xmlns:sodipodi="http://sodipodi.sourceforge.net/DTD/sodipodi-0.dtd"
   xmlns:inkscape="http://www.inkscape.org/namespaces/inkscape"
   id="svg2"
   version="1.1"
   inkscape:version="0.47pre4 r22446"
   width="380"
   height="384"
   sodipodi:docname="ak3003.svg"
   style="display:inline"
   inkscape:export-filename="/home/opositivo/Escritorio/logo_akademy3/ak3003_th.png"
   inkscape:export-xdpi="98.349998"
   inkscape:export-ydpi="98.349998">
  <metadata
     id="metadata8">
    <rdf:RDF>
      <cc:Work
         rdf:about="">
        <dc:format>image/svg+xml</dc:format>
        <dc:type
           rdf:resource="http://purl.org/dc/dcmitype/StillImage" />
        <dc:title></dc:title>
      </cc:Work>
    </rdf:RDF>
  </metadata>
  <defs
     id="defs6">
    <inkscape:perspective
       sodipodi:type="inkscape:persp3d"
       inkscape:vp_x="0 : 0.5 : 1"
       inkscape:vp_y="0 : 1000 : 0"
       inkscape:vp_z="1 : 0.5 : 1"
       inkscape:persp3d-origin="0.5 : 0.33333333 : 1"
       id="perspective10" />
    <inkscape:perspective
       id="perspective2833"
       inkscape:persp3d-origin="0.5 : 0.33333333 : 1"
       inkscape:vp_z="1 : 0.5 : 1"
       inkscape:vp_y="0 : 1000 : 0"
       inkscape:vp_x="0 : 0.5 : 1"
       sodipodi:type="inkscape:persp3d" />
    <inkscape:perspective
       id="perspective2856"
       inkscape:persp3d-origin="0.5 : 0.33333333 : 1"
       inkscape:vp_z="1 : 0.5 : 1"
       inkscape:vp_y="0 : 1000 : 0"
       inkscape:vp_x="0 : 0.5 : 1"
       sodipodi:type="inkscape:persp3d" />
    <inkscape:perspective
       id="perspective2878"
       inkscape:persp3d-origin="0.5 : 0.33333333 : 1"
       inkscape:vp_z="1 : 0.5 : 1"
       inkscape:vp_y="0 : 1000 : 0"
       inkscape:vp_x="0 : 0.5 : 1"
       sodipodi:type="inkscape:persp3d" />
    <inkscape:perspective
       id="perspective2878-9"
       inkscape:persp3d-origin="0.5 : 0.33333333 : 1"
       inkscape:vp_z="1 : 0.5 : 1"
       inkscape:vp_y="0 : 1000 : 0"
       inkscape:vp_x="0 : 0.5 : 1"
       sodipodi:type="inkscape:persp3d" />
    <inkscape:perspective
       id="perspective2878-8"
       inkscape:persp3d-origin="0.5 : 0.33333333 : 1"
       inkscape:vp_z="1 : 0.5 : 1"
       inkscape:vp_y="0 : 1000 : 0"
       inkscape:vp_x="0 : 0.5 : 1"
       sodipodi:type="inkscape:persp3d" />
    <inkscape:perspective
       id="perspective2918"
       inkscape:persp3d-origin="0.5 : 0.33333333 : 1"
       inkscape:vp_z="1 : 0.5 : 1"
       inkscape:vp_y="0 : 1000 : 0"
       inkscape:vp_x="0 : 0.5 : 1"
       sodipodi:type="inkscape:persp3d" />
    <inkscape:perspective
       id="perspective2941"
       inkscape:persp3d-origin="0.5 : 0.33333333 : 1"
       inkscape:vp_z="1 : 0.5 : 1"
       inkscape:vp_y="0 : 1000 : 0"
       inkscape:vp_x="0 : 0.5 : 1"
       sodipodi:type="inkscape:persp3d" />
    <inkscape:perspective
       id="perspective2963"
       inkscape:persp3d-origin="0.5 : 0.33333333 : 1"
       inkscape:vp_z="1 : 0.5 : 1"
       inkscape:vp_y="0 : 1000 : 0"
       inkscape:vp_x="0 : 0.5 : 1"
       sodipodi:type="inkscape:persp3d" />
    <inkscape:perspective
       id="perspective2985"
       inkscape:persp3d-origin="0.5 : 0.33333333 : 1"
       inkscape:vp_z="1 : 0.5 : 1"
       inkscape:vp_y="0 : 1000 : 0"
       inkscape:vp_x="0 : 0.5 : 1"
       sodipodi:type="inkscape:persp3d" />
    <inkscape:perspective
       id="perspective3007"
       inkscape:persp3d-origin="0.5 : 0.33333333 : 1"
       inkscape:vp_z="1 : 0.5 : 1"
       inkscape:vp_y="0 : 1000 : 0"
       inkscape:vp_x="0 : 0.5 : 1"
       sodipodi:type="inkscape:persp3d" />
    <inkscape:perspective
       id="perspective3029"
       inkscape:persp3d-origin="0.5 : 0.33333333 : 1"
       inkscape:vp_z="1 : 0.5 : 1"
       inkscape:vp_y="0 : 1000 : 0"
       inkscape:vp_x="0 : 0.5 : 1"
       sodipodi:type="inkscape:persp3d" />
    <inkscape:perspective
       id="perspective3051"
       inkscape:persp3d-origin="0.5 : 0.33333333 : 1"
       inkscape:vp_z="1 : 0.5 : 1"
       inkscape:vp_y="0 : 1000 : 0"
       inkscape:vp_x="0 : 0.5 : 1"
       sodipodi:type="inkscape:persp3d" />
    <inkscape:perspective
       id="perspective3073"
       inkscape:persp3d-origin="0.5 : 0.33333333 : 1"
       inkscape:vp_z="1 : 0.5 : 1"
       inkscape:vp_y="0 : 1000 : 0"
       inkscape:vp_x="0 : 0.5 : 1"
       sodipodi:type="inkscape:persp3d" />
    <inkscape:perspective
       id="perspective3168"
       inkscape:persp3d-origin="0.5 : 0.33333333 : 1"
       inkscape:vp_z="1 : 0.5 : 1"
       inkscape:vp_y="0 : 1000 : 0"
       inkscape:vp_x="0 : 0.5 : 1"
       sodipodi:type="inkscape:persp3d" />
    <inkscape:perspective
       id="perspective3199"
       inkscape:persp3d-origin="0.5 : 0.33333333 : 1"
       inkscape:vp_z="1 : 0.5 : 1"
       inkscape:vp_y="0 : 1000 : 0"
       inkscape:vp_x="0 : 0.5 : 1"
       sodipodi:type="inkscape:persp3d" />
    <inkscape:perspective
       id="perspective2946"
       inkscape:persp3d-origin="0.5 : 0.33333333 : 1"
       inkscape:vp_z="1 : 0.5 : 1"
       inkscape:vp_y="0 : 1000 : 0"
       inkscape:vp_x="0 : 0.5 : 1"
       sodipodi:type="inkscape:persp3d" />
    <inkscape:perspective
       id="perspective3351"
       inkscape:persp3d-origin="0.5 : 0.33333333 : 1"
       inkscape:vp_z="1 : 0.5 : 1"
       inkscape:vp_y="0 : 1000 : 0"
       inkscape:vp_x="0 : 0.5 : 1"
       sodipodi:type="inkscape:persp3d" />
    <inkscape:perspective
       id="perspective3004"
       inkscape:persp3d-origin="0.5 : 0.33333333 : 1"
       inkscape:vp_z="1 : 0.5 : 1"
       inkscape:vp_y="0 : 1000 : 0"
       inkscape:vp_x="0 : 0.5 : 1"
       sodipodi:type="inkscape:persp3d" />
    <inkscape:perspective
       id="perspective4196"
       inkscape:persp3d-origin="0.5 : 0.33333333 : 1"
       inkscape:vp_z="1 : 0.5 : 1"
       inkscape:vp_y="0 : 1000 : 0"
       inkscape:vp_x="0 : 0.5 : 1"
       sodipodi:type="inkscape:persp3d" />
    <inkscape:perspective
       id="perspective2844"
       inkscape:persp3d-origin="0.5 : 0.33333333 : 1"
       inkscape:vp_z="1 : 0.5 : 1"
       inkscape:vp_y="0 : 1000 : 0"
       inkscape:vp_x="0 : 0.5 : 1"
       sodipodi:type="inkscape:persp3d" />
    <inkscape:perspective
       id="perspective2843"
       inkscape:persp3d-origin="0.5 : 0.33333333 : 1"
       inkscape:vp_z="1 : 0.5 : 1"
       inkscape:vp_y="0 : 1000 : 0"
       inkscape:vp_x="0 : 0.5 : 1"
       sodipodi:type="inkscape:persp3d" />
    <inkscape:perspective
       id="perspective2843-0"
       inkscape:persp3d-origin="0.5 : 0.33333333 : 1"
       inkscape:vp_z="1 : 0.5 : 1"
       inkscape:vp_y="0 : 1000 : 0"
       inkscape:vp_x="0 : 0.5 : 1"
       sodipodi:type="inkscape:persp3d" />
    <inkscape:perspective
       id="perspective2857"
       inkscape:persp3d-origin="0.5 : 0.33333333 : 1"
       inkscape:vp_z="1 : 0.5 : 1"
       inkscape:vp_y="0 : 1000 : 0"
       inkscape:vp_x="0 : 0.5 : 1"
       sodipodi:type="inkscape:persp3d" />
  </defs>
  <sodipodi:namedview
     pagecolor="#ffffff"
     bordercolor="#666666"
     borderopacity="1"
     objecttolerance="10"
     gridtolerance="10"
     guidetolerance="10"
     inkscape:pageopacity="0"
     inkscape:pageshadow="2"
     inkscape:window-width="1680"
     inkscape:window-height="973"
     id="namedview4"
     showgrid="false"
     inkscape:zoom="1.2291667"
     inkscape:cx="239.982"
     inkscape:cy="175.72882"
     inkscape:window-x="0"
     inkscape:window-y="25"
     inkscape:window-maximized="1"
     inkscape:current-layer="layer7" />
  <g
     inkscape:groupmode="layer"
     id="layer8"
     inkscape:label="Fondo"
     style="display:inline" />
  <g
     inkscape:groupmode="layer"
     id="layer1"
     inkscape:label="Azul"
     style="display:inline">
    <path
       style="fill:#0049ff;fill-opacity:0.23529412000000000;fill-rule:evenodd;stroke:#0000eb;stroke-width:0.95786643000000005px;stroke-linecap:butt;stroke-linejoin:miter;stroke-opacity:0.41176471"
       d="m 21.954039,18.70192 0,94.4129 39.431319,0 C 65.136173,86.846024 85.688254,66.167057 111.48982,62.976854 l 0,-44.274934 -89.535781,0 z"
       id="rect2823" />
    <path
       style="fill:#0049ff;fill-opacity:0.23529412000000000;fill-rule:evenodd;stroke:#0000eb;stroke-width:0.97070031999999995px;stroke-linecap:butt;stroke-linejoin:miter;stroke-opacity:0.41176471;display:inline"
       d="m 264.54785,18.708337 0,44.782616 c 24.94174,4.437588 44.48423,24.449708 48.17432,49.617447 l 43.7893,0 0,-94.400063 -91.96362,0 z"
       id="rect2823-3" />
    <path
       style="fill:#0049ff;fill-opacity:0.23529412000000000;fill-rule:evenodd;stroke:#0000eb;stroke-width:1px;stroke-linecap:butt;stroke-linejoin:miter;stroke-opacity:0.41176471;display:inline"
       d="m 310.9375,143.1875 c -7.34957,20.10545 -24.89411,35.23105 -46.3125,39.09375 l 0,15.21875 c 23.20951,3.85859 41.96,20.94709 48.40625,43.3125 l 45.9375,0 0,-97.625 -48.03125,0 z"
       id="rect2823-3-8-5-6-1" />
    <path
       style="fill:#0049ff;fill-opacity:0.23529412000000000;fill-rule:evenodd;stroke:#0000eb;stroke-width:1px;stroke-linecap:butt;stroke-linejoin:miter;stroke-opacity:0.41176471;display:inline"
       d="m 143.1875,15.46875 0,50.46875 c 18.85639,8.310938 32.6975,25.96956 35.78125,47.15625 l 14.6875,0 c 3.509,-24.117846 20.99549,-43.64093 43.90625,-50.03125 l 0,-47.59375 -94.375,0 z"
       id="rect2823-3-8-5-6-1-1" />
    <path
       id="path2878"
       d="m 20.335312,361.47931 0,-96.02324 40.140507,0 c 3.818274,26.71685 24.739992,47.74852 51.005611,50.99314 l 0,45.0301 -91.146118,0 z"
       style="fill:#0049ff;fill-opacity:0.23529412000000000;fill-rule:evenodd;stroke:#0000eb;stroke-width:0.97464894999999996px;stroke-linecap:butt;stroke-linejoin:miter;stroke-opacity:0.41176471" />
    <path
       id="path2880"
       d="m 264.5625,363.09375 0,-46.3125 c 25.59574,-4.58919 45.65065,-25.28497 49.4375,-51.3125 l 44.9375,0 0,97.625 -94.375,0 z"
       style="fill:#0049ff;fill-opacity:0.23529412000000000;fill-rule:evenodd;stroke:#0000eb;stroke-width:1px;stroke-linecap:butt;stroke-linejoin:miter;stroke-opacity:0.41176471;display:inline" />
    <path
       id="path2882"
       d="m 233.5625,363.09375 0,-50.46875 c -18.85639,-8.31094 -32.6975,-25.96956 -35.78125,-47.15625 l -14.6875,0 c -3.509,24.11785 -20.99549,43.64093 -43.90625,50.03125 l 0,47.59375 94.375,0 z"
       style="fill:#0049ff;fill-opacity:0.23529412000000000;fill-rule:evenodd;stroke:#0000eb;stroke-width:1px;stroke-linecap:butt;stroke-linejoin:miter;stroke-opacity:0.41176471;display:inline" />
    <path
       id="path2884"
       d="m 64.65625,143.1875 c 7.34957,20.10545 24.89411,35.23105 46.3125,39.09375 l 0,15.21875 c -23.20951,3.85859 -41.96,20.94709 -48.40625,43.3125 l -45.9375,0 0,-97.625 48.03125,0 z"
       style="fill:#0049ff;fill-opacity:0.23529412000000000;fill-rule:evenodd;stroke:#0000eb;stroke-width:1px;stroke-linecap:butt;stroke-linejoin:miter;stroke-opacity:0.41176471;display:inline" />
    <g
       id="g2818"
       transform="matrix(0.73205,0,0,0.73205,7.361655,9.658362)">
      <path
         style="fill:#b0cbea"
         d="M 37.686538,496.41116 C 33.939134,495.66568 28.545084,493.8057 25.699762,492.27787 19.013532,488.68762 9.2772538,478.92054 5.6463552,472.16102 -0.26943712,461.14779 0,471.79676 0,249 0,26.203244 -0.26943712,36.852213 5.6463552,25.838982 9.3173762,19.004766 19.034764,9.301389 25.903071,5.6114736 36.642484,-0.15814741 28.699668,0.03934908 250,0.03934908 c 221.30033,0 213.35752,-0.19749649 224.09693,5.57212452 6.86831,3.6899154 16.58569,13.3932924 20.25671,20.2275084 C 500.26944,36.852213 500,26.203244 500,249 c 0,222.80455 0.2678,212.22334 -5.64636,223.0934 -3.52843,6.48517 -12.32551,15.35251 -19.47073,19.62627 C 463.8371,498.32646 475.35768,498.01211 249,497.88312 81.293428,497.78754 43.274129,497.52271 37.686538,496.41116 z M 452.97191,474.4157 c 10.1425,-3.012 17.13801,-9.1032 21.72395,-18.9157 l 2.80414,-6 0,-200.52103 0,-200.521025 -3.25968,-6.62136 c -3.7937,-7.706097 -9.21491,-12.994657 -17.12031,-16.70142 L 451.5,22.5 250,22.5 48.5,22.5 42.824854,25.160407 C 35.25282,28.710041 29.00371,34.656031 25.432084,41.709521 L 22.5,47.5 l 0,201 0,201 2.802262,6 c 4.545907,9.73336 11.480483,15.69954 22.197738,19.09785 3.171936,1.00579 45.003356,1.28221 202.0685,1.33525 177.95937,0.0601 198.61013,-0.094 203.40341,-1.5174 z M 47.5,468.77274 C 39.4857,465.91602 31.61316,457.83159 29.21927,450 28.479637,447.5803 28.049197,385.38602 27.824711,248.5 L 27.5,50.5 29.857556,45.286236 C 32.793892,38.792492 39.996306,31.93649 46.528166,29.417427 51.368635,27.550662 56.744751,27.5 250,27.5 c 193.25525,0 198.63137,0.05066 203.47183,1.917427 6.53294,2.519477 13.73515,9.376026 16.66882,15.868809 l 2.35577,5.213764 -0.32206,198 c -0.22284,136.99517 -0.65196,199.07837 -1.39277,201.5 -2.45657,8.0302 -10.36558,16.00719 -18.68081,18.84139 -4.65028,1.58503 -400.149804,1.51792 -404.60078,-0.0686 z m 402.2496,-7.29102 c 6.73199,-1.99919 12.53951,-8.38564 14.33999,-15.76949 1.8572,-7.61649 1.73695,-385.098363 -0.12515,-392.860461 C 462.25601,45.730214 454.67615,37.911292 447.80301,36.180617 441.40658,34.569975 60.563605,34.471317 53.070218,36.078361 45.776443,37.642596 38.495331,44.385498 36.58884,51.341458 35.420651,55.603676 35.094176,76.916247 34.709907,174 c -0.255794,64.625 -0.182666,152.375 0.162507,195 0.591624,73.05915 0.734566,77.70055 2.494559,81 3.780441,7.08716 8.739945,10.79569 16.133027,12.06364 2.2,0.37732 91.10582,0.74235 197.5685,0.81119 170.43099,0.11021 194.17961,-0.0563 198.6811,-1.39311 z"
         id="path2832" />
      <path
         style="fill:#92b0db"
         d="M 39.388747,496.51161 C 32.136821,494.93408 26.380085,492.17841 19.309426,486.8999 14.072703,482.99049 6.0742592,472.86532 3.9362133,467.43905 2.9477212e-4,457.44987 0.07263789,461.4954 0.03562153,249.31205 -0.0037186,23.808545 -0.39284057,37.757302 6.2652536,26 10.410567,18.679933 19.12694,10.258675 26.757145,6.2019154 39.026545,-0.32137015 26.136359,0.03472725 250,0.03472725 c 218.73776,0 210.82143,-0.17910887 221.14398,5.00343475 10.42654,5.234749 21.32341,16.395287 24.91981,25.522787 3.93601,9.989425 3.86357,5.935448 3.90059,218.294711 0.0393,225.56214 0.47723,209.85012 -6.19894,222.41506 -3.5922,6.76073 -14.04837,17.00343 -21.39924,20.96238 -11.24269,6.05496 -0.23404,5.77442 -223.18158,5.6874 C 83.710892,497.85591 44.353539,497.59161 39.388747,496.51161 z M 457.61039,473.67609 c 7.64624,-3.5337 14.44588,-10.36567 18.0901,-18.17609 l 2.79951,-6 0,-200.5 0,-200.5 -2.87952,-6.234312 C 470.59961,31.395266 460.9343,24.072088 448.8976,22.018394 444.38342,21.248189 384.50418,21.011209 245.5,21.213421 L 48.5,21.5 l -6,2.802262 C 32.471191,28.986154 25.5236,36.951185 22.552691,47.170754 21.142463,52.021766 21.007183,73.034926 21.240202,251.03961 L 21.5,449.5 l 2.80075,6 c 4.737181,10.14838 14.092781,17.96366 24.445173,20.42047 2.142467,0.50845 89.398587,0.82407 203.254077,0.73522 L 451.5,476.5 l 6.11039,-2.82391 z M 48.993526,468.07064 C 42.098863,465.95967 35.042916,459.92918 31.360185,453 c -1.77555,-3.34076 -1.849361,-7.2081 -1.622291,-85 0.259707,-88.97296 1.315883,-118.64997 2.544617,-71.5 0.386993,14.85 0.972402,54 1.300908,87 0.348824,35.041 1.018553,61.66393 1.60999,64 0.679934,2.68562 2.703971,5.68465 6.159648,9.12679 4.183878,4.1675 6.138502,5.33697 10.446164,6.25 C 55.615304,463.68564 111.33029,464 250.86772,464 c 216.79843,0 200.68884,0.55052 208.12537,-7.11231 7.09704,-7.31303 6.81903,-3.87533 7.9483,-98.28279 0.55852,-46.69231 1.20589,-85.08551 1.43861,-85.31823 1.28796,-1.28796 1.8635,26.96033 1.98456,97.40523 L 470.5,449.5 l -2.16527,4 c -2.56761,4.74327 -8.4588,10.54835 -13.33473,13.13982 -3.37558,1.79405 -10.60973,1.86619 -203.5,2.02921 -110,0.093 -201.127913,-0.17631 -202.506474,-0.59839 z M 30.78132,235 C 29.872424,230.51582 27.720311,91.28887 28.192174,67.5 28.519777,50.983951 28.741565,49.129012 30.882405,45 34.053059,38.8848 38.524591,34.340471 44.5,31.160708 l 5,-2.660708 200.5,0 200.5,0 5,2.660708 c 5.97067,3.177241 10.44136,7.71832 13.62478,13.839292 2.17571,4.183382 2.36483,5.872009 2.68798,24 0.47218,26.488384 -1.66777,160.51226 -2.64253,165.5 -1.48644,7.60596 -2.15509,-16.08198 -2.75219,-97.5 C 465.93992,71.804721 465.57277,56.54791 464.37755,52.208657 462.64052,45.902304 457.25632,39.487288 451.5,36.865662 447.67362,35.122996 438.92756,35.043924 250,35.043924 c -189.143508,0 -197.669245,0.07731 -201.5,1.827089 C 42.462956,39.628566 36.49759,46.673615 35.203966,52.573521 34.512028,55.729283 33.886721,86.973137 33.464241,139.5 32.806973,221.21802 32.220338,242.09961 30.78132,235 z"
         id="path2830" />
      <path
         style="fill:#6498d8"
         d="M 42.5,496.97799 C 31.31347,494.73263 18.896417,487.55038 12.240106,479.47512 10.513722,477.38072 7.7424862,473.11786 6.0818049,470.0021 -0.41686408,457.80935 0,472.95746 0,249 0,70.793541 0.18793586,44.698663 1.5078795,39.631057 6.65436,19.872384 23.289435,4.2928395 42.680232,1.0711752 47.64428,0.24642862 105.14629,0.01455932 254,0.21905596 L 458.5,0.5 l 6.87925,2.6727996 c 8.43167,3.2759647 16.44413,8.6835904 21.68007,14.6319284 4.91523,5.583998 10.44636,16.491573 11.88251,23.432692 0.76961,3.719636 1.01105,65.36686 0.82351,210.26258 l -0.26534,205 -2.27877,6 c -4.81452,12.67664 -13.74822,22.90176 -25.32385,28.98459 -13.11844,6.89354 0.94731,6.4904 -222.89738,6.38848 -111.375,-0.0507 -204.3,-0.4535 -206.5,-0.89508 z m 416,-22.93938 c 6.40104,-3.1511 14.38751,-11.13757 17.53861,-17.53861 l 2.46139,-5 0,-202.5 0,-202.5 -2.29678,-4.66235 c -3.6829,-7.476132 -9.59827,-13.41451 -16.98483,-17.050902 L 452.54205,21.5 249.52103,21.5 46.5,21.5 40.809913,24.294236 C 33.575461,27.846865 25.884348,36.166369 22.820599,43.753341 L 20.5,49.5 l -0.09809,83 c -0.05395,45.65 0.17105,136.1 0.5,201 l 0.598092,118 2.460076,5 c 2.860112,5.81305 8.804365,12.57326 13.735362,15.62079 8.053562,4.97737 -1.748556,4.76798 213.80456,4.56729 l 202,-0.18808 5,-2.46139 z M 51.3264,467.963 c -8.517977,-1.69932 -15.301661,-7.149 -19.376206,-15.56589 l -2.333073,-4.81948 0.301366,-41.53882 C 30.084238,383.19247 30.552584,360.225 30.959255,355 l 0.739402,-9.5 0.267383,12 c 0.14706,6.6 0.556345,29.325 0.909522,50.5 0.614833,36.86283 0.733715,38.6701 2.795659,42.5 2.782371,5.16804 7.792089,9.93195 12.828779,12.19932 3.800866,1.71104 13.707789,1.81557 199,2.0998 221.09867,0.33915 203.59013,0.9662 212.02905,-7.59363 6.43142,-6.52357 7.47056,-10.85342 7.47271,-31.13699 9.6e-4,-9.11268 0.32824,-30.5185 0.72728,-47.5685 0.94952,-40.57096 1.96184,-28.91975 2.38934,27.5 l 0.31446,41.5 -2.35805,4.8583 c -2.99259,6.16562 -8.12132,11.30667 -13.9854,14.01898 L 449.5,468.5 l -197,0.14782 C 144.15,468.72912 53.62188,468.42095 51.3264,467.963 z M 30.548497,187.5 C 30.066775,182 29.633795,148.475 29.586319,113 29.500237,48.677059 29.505944,48.48902 31.665266,44.5 34.578922,39.117461 40.524135,33.550248 46,31.076676 c 4.475841,-2.021839 5.571044,-2.032752 204,-2.032752 198.42896,0 199.52416,0.01091 204,2.032752 5.47587,2.473572 11.42108,8.040785 14.33473,13.423324 l 2.16527,4 -0.20304,68 c -0.22111,74.0494 -1.39719,99.38256 -2.62299,56.5 -0.38518,-13.475 -1.04431,-46.325 -1.46474,-73 C 465.51208,55.766946 465.28325,51.192076 463.60825,48 461.05106,43.126705 457.1996,39.194339 452.5,36.658417 L 448.5,34.5 250,34.5 51.5,34.5 47.357446,36.715509 C 42.127991,39.512311 36.642556,45.863985 35.243517,50.742423 34.571729,53.084944 33.902427,75.777187 33.466235,111 c -0.384825,31.075 -1.001677,63.25 -1.370781,71.5 l -0.671098,15 -0.875859,-10 z"
         id="path2828" />
      <path
         style="fill:#126ac3"
         d="m 45.5,497.29678 c -1.65,-0.22804 -5.7,-1.33634 -9,-2.46289 C 20.653168,489.42412 10.337542,479.5156 3.2226566,462.86984 L 0.5,456.5 0.23464573,252 C 0.04613243,106.71886 0.2865028,45.966919 1.0647148,42.205822 2.9332021,33.175429 9.1896968,22.095108 16.246373,15.31894 22.765496,9.0589562 28.501739,5.6492524 38,2.3882782 43.322222,0.56103539 50.190924,0.5 250.5,0.5 l 207,0 6.97402,2.7895063 C 481.02203,9.9084721 490.71672,19.751698 497.18336,36.5 l 2.31664,6 0,206.59861 c 0,155.73836 -0.2881,207.18979 -1.17028,209 -0.64365,1.32077 -2.32852,5.03751 -3.74414,8.25943 -5.47991,12.47214 -15.21486,21.96877 -27.22913,26.56252 -3.22105,1.2316 -6.75645,2.7658 -7.85645,3.40935 -1.50787,0.88217 -52.31994,1.1961 -206.5,1.27579 -112.475,0.0581 -205.85,-0.0809 -207.5,-0.30892 z M 459,474.68531 c 7.21124,-3.69043 14.08291,-10.52291 17.63747,-17.53688 L 479.5,451.5 l 0,-202.5 0,-202.5 -2.19411,-4.750761 C 474.03263,34.661841 466.03122,26.750181 458.72237,23.374165 L 452.5,20.5 l -203,0 -203,0 -5.717579,2.807687 c -11.29607,5.547072 -18.728149,15.517759 -20.744592,27.830412 -1.056436,6.450731 -0.534746,388.969891 0.541876,397.319421 1.104911,8.56893 8.647615,19.42968 17.137993,24.67702 8.027605,4.96134 -1.698984,4.75416 213.782302,4.55354 L 453.5,477.5 459,474.68531 z M 30.756038,120.5 C 29.348169,99.683654 29.484567,52.90074 30.965958,48.5 34.205605,38.876041 41.777144,32.015545 51.34381,30.03583 54.921032,29.295564 116.67374,29.050146 253,29.234407 L 449.5,29.5 l 4.58939,2.122725 c 5.89726,2.727651 10.94327,7.807285 13.88981,13.982366 2.31941,4.860781 2.33393,5.124989 2.08254,37.894909 -0.33097,43.14624 -1.35471,53.89842 -2.34114,24.58876 C 467.32427,96.312583 467,79.566963 467,70.876276 467,51.528953 465.55609,46.419937 458.27745,40.013018 449.64934,32.418256 465.99794,32.944906 247.9515,33.237619 30.03859,33.530153 49.60501,32.844856 41.153205,40.480553 34.058155,46.890505 33.023275,51.422029 32.861659,76.787513 32.785572,88.729381 32.448072,105.925 32.111659,115 L 31.5,131.5 l -0.743962,-11 z"
         id="path2826" />
      <path
         style="fill:#2458a6"
         d="m 45.5,497.29678 c -1.65,-0.22804 -5.7,-1.33634 -9,-2.46289 C 20.653168,489.42412 10.337542,479.5156 3.2226566,462.86984 L 0.5,456.5 0.23464573,252 C 0.04613243,106.71886 0.2865028,45.966919 1.0647148,42.205822 2.9332021,33.175429 9.1896968,22.095108 16.246373,15.31894 22.765496,9.0589562 28.501739,5.6492524 38,2.3882782 43.322222,0.56103539 50.190924,0.5 250.5,0.5 l 207,0 6.97402,2.7895063 C 481.02203,9.9084721 490.71672,19.751698 497.18336,36.5 l 2.31664,6 0,206.59861 c 0,155.73836 -0.2881,207.18979 -1.17028,209 -0.64365,1.32077 -2.32852,5.03751 -3.74414,8.25943 -5.47991,12.47214 -15.21486,21.96877 -27.22913,26.56252 -3.22105,1.2316 -6.75645,2.7658 -7.85645,3.40935 -1.50787,0.88217 -52.31994,1.1961 -206.5,1.27579 -112.475,0.0581 -205.85,-0.0809 -207.5,-0.30892 z M 464.32763,482.1491 c 8.07426,-3.25719 16.57352,-11.70755 19.7628,-19.6491 l 2.40957,-6 0,-144.5 c 0,-79.475 -0.225,-172.85 -0.5,-207.5 l -0.5,-63 -3.17957,-6.5 c -3.85285,-7.876377 -5.43555,-9.778135 -11.56989,-13.902265 -6.8777,-4.623892 -12.72695,-6.074484 -24.54438,-6.086911 -9.25226,-0.0097 -10.2641,0.166249 -10,1.739176 0.26883,1.601035 -1.40861,1.80352 -19.70616,2.37874 -11,0.345806 -97.89705,0.685133 -193.10456,0.754059 C 32.096983,20.021291 45.532964,19.545593 35.378099,26.539516 26.624116,32.568615 21.788671,40.432398 19.945496,51.637236 19.124479,56.628275 18.995309,92.18294 19.471888,182 20.148232,309.46501 19.338811,435.32743 17.848665,434.40647 17.381899,434.11799 17,434.77102 17,435.85765 c 0,1.08663 -0.5625,2.16457 -1.25,2.39543 -1.899692,0.63791 -1.491964,15.15087 0.600244,21.36554 2.099866,6.23742 8.324114,14.79606 13.140581,18.06894 9.020753,6.12976 2.459917,5.7641 113.509175,6.32629 55.825,0.28262 149.65,0.50762 208.5,0.5 l 107,-0.0138 5.82763,-2.3509 z M 30.756038,120.5 C 29.348169,99.683654 29.484567,52.90074 30.965958,48.5 34.205605,38.876041 41.777144,32.015545 51.34381,30.03583 54.921032,29.295564 116.67374,29.050146 253,29.234407 L 449.5,29.5 l 4.58939,2.122725 c 5.89726,2.727651 10.94327,7.807285 13.88981,13.982366 2.31941,4.860781 2.33393,5.124989 2.08254,37.894909 -0.33097,43.14624 -1.35471,53.89842 -2.34114,24.58876 C 467.32427,96.312583 467,79.566963 467,70.876276 467,51.528953 465.55609,46.419937 458.27745,40.013018 449.64934,32.418256 465.99794,32.944906 247.9515,33.237619 30.03859,33.530153 49.60501,32.844856 41.153205,40.480553 34.058155,46.890505 33.023275,51.422029 32.861659,76.787513 32.785572,88.729381 32.448072,105.925 32.111659,115 L 31.5,131.5 30.756038,120.5 z M 15.717581,414.26375 C 15.487727,412.74369 15.293522,413.75 15.286014,416.5 c -0.0075,2.75 0.180555,3.99369 0.417917,2.76375 0.237362,-1.22994 0.243505,-3.47994 0.01365,-5 z"
         id="path2824" />
      <path
         style="fill:#2b4a7e"
         d="m 46.016428,497.25638 c -2.465965,-0.21681 -4.715965,-0.7226 -5,-1.12398 C 40.732393,495.73103 38.475,494.81948 36,494.10674 24.294701,490.7359 12.368197,480.45721 6.460606,468.64863 4.5572727,464.84409 3,460.98175 3,460.06564 3,459.14954 2.4375,457.8375 1.75,457.15 -0.00159341,455.39841 -0.0934003,43.534403 1.6569928,39.901388 2.2933389,38.580625 3.5581721,35.510081 4.4677333,33.077958 9.1796735,20.478456 20.967288,9.0042008 33.914314,4.4141792 36.436441,3.5200264 39.580641,2.2735463 40.901425,1.6442234 44.305986,0.02202852 457.06307,-0.00219859 459.09632,1.6196771 459.86835,2.2354995 462.3,3.3015069 464.5,3.9885824 476.0746,7.6034109 487.74137,17.761812 493.47039,29.213446 495.41168,33.093843 497,37.070753 497,38.051023 c 0,0.980271 0.5625,1.969806 1.25,2.198968 1.67945,0.559804 1.85471,415.421199 0.17597,416.536469 -0.59072,0.39245 -1.67193,2.88759 -2.4027,5.54476 -1.75762,6.39091 -7.48232,15.03225 -13.91754,21.00825 C 476.85926,488.21156 463.9937,495 460.00652,495 c -1.1685,0 -1.88591,0.38613 -1.59423,0.85808 0.29167,0.47194 -2.49427,1.14374 -6.19099,1.49289 -7.10671,0.67121 -398.531473,0.58007 -406.204872,-0.0946 z M 467.14373,482.25007 c 7.82634,-3.85297 13.97114,-10.1294 17.69586,-18.07492 2.63544,-5.62189 2.6651,-5.93791 3.16041,-33.67515 0.275,-15.4 0.275,-109.45962 0,-209.02138 L 487.5,40.457246 484.22589,33.806928 C 480.17019,25.56907 472.26829,18.059872 464.24666,14.820599 L 458.5,12.5 251,12.878713 C 51.456744,13.242904 43.269925,13.329361 37.5,15.133394 27.235373,18.342745 19.101256,26.123921 14.809874,36.838992 L 12.542642,42.5 12.521321,250 12.5,457.5 l 2.660407,5.67515 c 4.846349,10.33817 14.469138,18.67585 24.768942,21.46108 3.570608,0.96556 50.084971,1.19526 212.591801,1.04988 L 460.5423,485.5 l 6.60143,-3.24993 z M 40.133291,37.812015 c 2.54831,-2.434028 6.425518,-4.96247 8.616019,-5.61876 5.258681,-1.57554 396.77899,-1.729724 402.43619,-0.158484 2.02702,0.56299 5.85202,3.059163 8.5,5.547051 2.64797,2.487888 3.87749,4.074318 2.73226,3.525401 -1.14524,-0.548916 -2.69013,-1.730488 -3.43311,-2.625715 -0.74297,-0.895226 -3.18096,-2.607294 -5.41775,-3.804596 L 449.5,32.5 l -199.5,0 -199.5,0 -4,2.243896 c -2.2,1.234142 -5.575,3.425084 -7.5,4.86876 -2.60932,1.956888 -2.32092,1.498661 1.133291,-1.800641 z"
         id="path2822" />
      <path
         style="fill:#0f2a7a"
         d="m 75.25,496.25045 c 18.5625,-0.15238 48.9375,-0.15238 67.5,0 18.5625,0.15238 3.375,0.27706 -33.75,0.27706 -37.125,0 -52.3125,-0.12468 -33.75,-0.27706 z m 111,0.0333 c 1.5125,-0.22913 3.9875,-0.22913 5.5,0 1.5125,0.22912 0.275,0.41659 -2.75,0.41659 -3.025,0 -4.2625,-0.18747 -2.75,-0.41659 z M 15.224177,478.43615 C 9.3637769,472.38562 4.1822502,462.60678 3.2020114,455.7473 2.6171583,451.65464 2.5723805,451.60923 1.9721827,454.5 0.22997572,462.8911 -0.08760285,424.77252 0.19413727,241.08328 0.43712967,82.656824 0.75693849,41.580923 1.75,41.249946 2.4375,41.020809 3,40.070638 3,39.138455 3,35.959325 9.723372,23.511552 14.108494,18.571986 19.544263,12.448933 28.537033,6.5512129 35.898304,4.2815941 c 3.080933,-0.9499097 5.827769,-2.0356325 6.10408,-2.4127172 0.276311,-0.3770848 2.976311,-0.7827338 6,-0.90144223 C 63.284389,0.36747125 457.99836,1.3688726 455,2 l -3.5,0.7367175 3.05583,0.1316413 C 462.23042,3.1989707 480.5,12.296216 480.5,15.787131 c 0,0.667078 0.45,1.244936 1,1.284128 0.55,0.03919 1.7875,0.783937 2.75,1.654988 1.7905,1.62038 2.34423,3.367579 1,3.155332 -2.80845,-0.44344 -4.13705,0.256012 -3.54905,1.868421 0.56641,1.553191 0.39022,1.532172 -1.56665,-0.186904 -1.21266,-1.065297 -1.99512,-2.483406 -1.73881,-3.151354 0.27074,-0.705525 -0.2383,-1.103499 -1.21473,-0.949688 -0.92442,0.145619 -2.84253,-0.550486 -4.26246,-1.546901 -1.41994,-0.996414 -5.01994,-2.789127 -8,-3.983805 l -5.4183,-2.172142 -108,0.134737 c -59.4,0.07411 -153.45,0.404081 -209,0.733279 C 46.180154,13.198028 41.261598,13.314715 36.355178,15.145379 23.955184,19.772014 15.448966,29.871885 13.060268,42.804627 12.583285,45.387082 12.062338,139.75 11.902609,252.5 l -0.290416,205 2.147467,5.38063 c 1.181107,2.95935 3.301555,7.12458 4.712107,9.25607 1.410553,2.13149 2.218949,3.76021 1.796437,3.61937 C 19.447476,475.48249 19,476.3125 19,478.10841 c 0,0.66878 0.94619,0.87093 2.385578,0.50966 2.78465,-0.6989 4.95633,1.32736 4.024686,3.75518 -1.180243,3.07567 -4.718192,1.70819 -10.186087,-3.9371 z M 498.27236,45 c 0,-2.475 0.19502,-3.4875 0.43337,-2.25 0.23836,1.2375 0.23836,3.2625 0,4.5 -0.23835,1.2375 -0.43337,0.225 -0.43337,-2.25 z M 40.133291,37.812015 c 2.54831,-2.434028 6.425518,-4.96247 8.616019,-5.61876 5.258681,-1.57554 396.77899,-1.729724 402.43619,-0.158484 2.02702,0.56299 5.85202,3.059163 8.5,5.547051 2.64797,2.487888 3.87749,4.074318 2.73226,3.525401 -1.14524,-0.548916 -2.69013,-1.730488 -3.43311,-2.625715 -0.74297,-0.895226 -3.18096,-2.607294 -5.41775,-3.804596 L 449.5,32.5 l -199.5,0 -199.5,0 -4,2.243896 c -2.2,1.234142 -5.575,3.425084 -7.5,4.86876 -2.60932,1.956888 -2.32092,1.498661 1.133291,-1.800641 z M 490,35.618034 c 0,-0.825 0.45,-1.778115 1,-2.118034 0.55,-0.339919 1,0.05697 1,0.881966 0,0.825 -0.45,1.778115 -1,2.118034 -0.55,0.339919 -1,-0.05697 -1,-0.881966 z"
         id="path2820" />
    </g>
  </g>
  <g
     style="display:inline"
     inkscape:label="Circulos"
     id="g3226"
     inkscape:groupmode="layer">
    <path
       style="fill:#0049ff;fill-opacity:0.23529412000000000;fill-rule:evenodd;stroke:#0000eb;stroke-width:0.88644564000000003px;stroke-linecap:butt;stroke-linejoin:miter;stroke-opacity:0.41176471"
       d="m 254.9375,222.21875 c -8.08376,16.83908 -22.22887,30.13069 -39.5625,37.03125 -0.007,0.28319 0,0.55906 0,0.84375 0,20.92457 17.6768,37.90625 39.5,37.90625 21.8232,0 39.53125,-16.98168 39.53125,-37.90625 0,-20.90445 -17.67447,-37.84243 -39.46875,-37.875 z"
       id="path3232" />
    <path
       style="fill:#0049ff;fill-opacity:0.23529412000000000;fill-rule:evenodd;stroke:#0000eb;stroke-width:0.88644564000000003px;stroke-linecap:butt;stroke-linejoin:miter;stroke-opacity:0.41176471"
       d="m 121.71875,222.5625 c -19.37751,2.43059 -34.34375,18.28867 -34.34375,37.53125 0,20.92457 17.6768,37.90625 39.5,37.90625 21.466,0 38.9339,-16.42393 39.5,-36.875 -19.59888,-6.11584 -35.73513,-20.21829 -44.65625,-38.5625 z"
       id="path3234" />
  </g>
  <g
     inkscape:groupmode="layer"
     id="layer3"
     inkscape:label="Centro"
     style="display:inline">
    <path
       sodipodi:type="arc"
       style="fill:#0049ff;fill-opacity:0.23529412000000000;fill-rule:evenodd;stroke:#0000eb;stroke-width:1px;stroke-linecap:butt;stroke-linejoin:miter;stroke-opacity:0.41176471;display:inline"
       id="path2821-96"
       sodipodi:cx="196.06779"
       sodipodi:cy="194.03391"
       sodipodi:rx="46.372883"
       sodipodi:ry="41.084747"
       d="m 242.44068,194.03391 a 46.372883,41.084747 0 1 1 -92.74577,0 46.372883,41.084747 0 1 1 92.74577,0 z"
       transform="matrix(0.99918667,0,0,1.1574978,-7.6980458,-32.593818)" />
  </g>
  <g
     inkscape:groupmode="layer"
     id="layer7"
     inkscape:label="Capa#2"
     style="display:inline">
    <path
       style="fill:#0000ff;fill-opacity:1;stroke:#ffffff;stroke-opacity:1;stroke-width:2;stroke-miterlimit:4;stroke-dasharray:none"
       d="m 117.6249,328.01384 c -0.65638,-0.62919 -1.13185,-1.95562 -1.78784,-4.98749 -0.4915,-2.27168 -1.45051,-6.6433 -2.1311,-9.71471 l -1.23748,-5.58441 -3.38097,-1.25069 c -1.8595,-0.68787 -4.10539,-1.60498 -4.99082,-2.038 -0.88546,-0.43303 -1.75504,-0.78733 -1.93245,-0.78733 -0.1774,0 -4.381037,2.3697 -9.341409,5.26597 -5.303685,3.09673 -9.43028,5.26754 -10.017509,5.26981 -0.76758,0.003 -2.334819,-1.28733 -6.773466,-5.57652 -3.754971,-3.6285 -5.774838,-5.85671 -5.774838,-6.37046 0,-0.43455 1.555541,-3.04734 3.456787,-5.80619 1.901238,-2.75885 4.547013,-6.63375 5.879483,-8.61087 l 2.422661,-3.59475 -1.532095,-3.40674 c -0.842704,-1.8737 -1.815603,-4.34142 -2.162058,-5.48383 l -0.629868,-2.07708 -10.098275,-2.35164 c -5.554009,-1.29341 -10.407459,-2.6123 -10.7854,-2.93093 -0.612753,-0.51656 -0.687162,-1.42111 -0.687162,-8.35371 0,-5.86717 0.127847,-7.94206 0.521226,-8.45776 0.400045,-0.52449 2.951973,-1.14635 10.979172,-2.67547 13.370311,-1.16616 9.930962,-3.96605 15.723121,-10.76304 0.343538,-0.89023 -0.202463,-1.92945 -5.339534,-10.16319 -3.147207,-5.04438 -5.82534,-9.51884 -5.95134,-9.94326 7.935591,-6.89028 -4.788046,4.67314 5.677537,-5.26405 2.902024,-2.78769 5.578818,-5.06854 5.948396,-5.06854 0.369614,0 4.840181,2.62551 9.934613,5.83445 5.094467,3.20894 9.407968,5.83443 9.585618,5.83443 0.17768,0 1.66155,-0.59285 3.29755,-1.31746 1.636,-0.7246 3.25119,-1.31745 3.58928,-1.31745 0.52731,0 0.61474,0.71787 0.61474,5.04758 l 0,5.04759 -2.9114,1.53172 c -5.90899,3.10884 -10.805904,7.60148 -14.512339,13.31419 -2.047629,3.15602 -4.328931,8.37973 -4.008837,9.17936 -1.048736,2.69165 -0.751891,6.97916 -0.729571,10.29654 0.02588,5.65343 0.832887,9.65941 2.891235,14.35568 4.023749,9.18056 12.369072,16.82589 22.109422,20.25493 4.78878,1.68586 7.02138,2.03587 13.16098,2.06319 9.47057,0.73924 14.16533,-0.20863 24.02741,-6.73045 3.12775,-2.30714 8.62575,-8.03226 10.6071,-11.12006 4.38017,3.78418 15.91165,17.99105 20.43832,23.20956 0,0.69928 -10.48232,11.04167 -11.19103,11.04167 -0.18141,0 -4.52216,-2.63283 -9.64615,-5.85073 l -9.42708,-5.42606 c -3.62317,1.13585 -6.73758,3.42792 -9.03344,4.17834 -0.97278,0.2794 -1.75446,0.77756 -1.94835,1.24171 -0.17809,0.42631 -1.31445,4.92511 -2.52523,9.99731 -1.89154,7.92398 -2.34052,9.34138 -3.18954,10.06911 -0.95308,0.8169 -1.25919,0.84691 -8.64098,0.84691 -7.4399,0 -7.67781,-0.0239 -8.54709,-0.85718 z"
       id="path2836"
       sodipodi:nodetypes="cscccsssssssccccccsssccsccssssscccsccssccccscccssssc" />
    <text
       xml:space="preserve"
       style="font-size:35px;font-style:normal;font-weight:normal;fill:#ffffff;fill-opacity:1;stroke:#0000ff;stroke-width:2;stroke-miterlimit:4;stroke-opacity:1;stroke-dasharray:none;display:inline;font-family:Bitstream Vera Sans"
       x="80.721695"
       y="259.64038"
       id="text3634"><tspan
         sodipodi:role="line"
         id="tspan3636"
         x="80.721695"
         y="259.64038"
         style="font-size:35px;font-weight:bold;fill:#ffffff;fill-opacity:1;stroke:#0000ff;stroke-width:2;stroke-miterlimit:4;stroke-opacity:1;stroke-dasharray:none;-inkscape-font-specification:Andale Mono Bold">a    ademy-es</tspan></text>
    <path
       sodipodi:nodetypes="cscccsssssssssscccccccc"
       id="path3722"
       d="m 142.63814,279.44848 c -0.86489,-1.20291 -4.96356,-6.94782 -9.10814,-12.76646 l -7.53559,-10.57937 -0.0601,11.18504 c -0.0461,8.57599 -0.12721,11.23814 -0.3478,11.41262 -0.36553,0.28912 -14.11512,2.31632 -15.09302,2.22527 l -0.72964,-0.0679 -0.0588,-29.54988 c -0.0405,-20.3624 0.0167,-29.62272 0.18397,-29.78409 0.36249,-0.34964 15.30701,-1.68773 15.83348,-1.41768 0.40528,0.20786 0.41673,0.72638 0.26343,11.925 -0.14111,10.30732 -0.11949,11.6678 0.18087,11.37428 0.29616,-0.28941 9.03127,-11.48264 15.65452,-20.05982 1.20362,-1.55866 2.31951,-2.83392 2.4798,-2.83392 0.44149,0 16.08618,3.50698 16.35489,3.66617 0.6012,0.35619 -0.0508,1.37887 -3.87106,6.07187 l -15.82218,19.51583 2.44098,3.26685 c 5.76432,7.63751 11.45972,15.20987 16.44611,23.40519 -4.10875,1.90109 -9.12274,3.34432 -15.33575,5.19813 -0.16691,0 -1.01109,-0.98419 -1.876,-2.1871 l 3e-5,10e-6 0,0 z"
       style="fill:#0000ff;fill-opacity:1;stroke:#ffffff;stroke-width:1.18098009;stroke-miterlimit:4;stroke-opacity:1;stroke-dasharray:none" />
    <text
       id="text3734"
       y="200.27054"
       x="149.46471"
       style="font-size:28.35000038000000089px;font-style:normal;font-weight:normal;fill:#0000ff;fill-opacity:1;stroke:#0000ff;stroke-width:1.62000000000000011;stroke-miterlimit:4;stroke-opacity:1;stroke-dasharray:none;display:inline;font-family:Bitstream Vera Sans"
       xml:space="preserve"><tspan
         style="font-size:28.35000038000000089px;font-weight:bold;fill:#0000ff;fill-opacity:1;stroke:#0000ff;stroke-width:1.62000000000000011;stroke-miterlimit:4;stroke-opacity:1;stroke-dasharray:none;-inkscape-font-specification:Andale Mono Bold"
         y="200.27054"
         x="149.46471"
         id="tspan3736"
         sodipodi:role="line">2010</tspan></text>
    <path
       style="fill:#0000ff;fill-opacity:1;stroke:#ffffff;stroke-width:1.06102192;stroke-miterlimit:4;stroke-opacity:1;stroke-dasharray:none"
       d="m 263.46638,143.30365 c -5.85531,-1.23103 -10.54169,-2.9492 -16.16684,-5.92725 -6.17092,-3.26702 -9.35021,-4.15785 -14.74034,-4.13024 -6.80442,0.0349 -15.3312,2.30444 -25.61263,6.81739 -2.38896,1.04861 -4.61102,2.01904 -4.93792,2.15652 -0.39523,0.16621 -0.59408,-0.20521 -0.59353,-1.10852 4e-4,-1.08045 0.41431,-1.61969 2.02086,-2.63468 4.34251,-2.74351 4.49551,-3.09108 4.77562,-10.84894 0.28129,-7.7908 1.20843,-12.10079 3.81805,-17.74894 4.75349,-10.288286 12.50727,-16.009598 22.78789,-16.814577 2.82859,-0.22147 3.5727,-0.423636 3.20227,-0.869993 -0.26543,-0.319815 -1.12798,-3.101691 -1.91679,-6.181952 -1.64819,-6.436229 -2.44131,-8.018435 -4.51201,-9.001029 -5.28757,-2.509128 -12.35681,6.732296 -8.70307,11.377273 0.93889,1.193611 1.2153,1.278924 3.20958,0.99063 3.79965,-0.549263 4.0842,-0.534701 4.0842,0.208997 0,0.936902 -5.41052,3.665751 -8.05413,4.062176 -2.52057,0.37799 -5.10955,-0.692851 -5.90708,-2.443229 -1.4899,-3.269933 0.11561,-9.808529 3.55587,-14.481786 3.12325,-4.242628 4.63214,-6.658476 10.78703,-6.127661 l 2.58575,0.471458 1.82726,0.926332 1.97985,2.020852 c 1.15551,1.444556 2.60384,3.163869 3.36652,4.560886 l 1.38672,2.540044 1.56549,-2.179882 c 4.27339,-5.950592 10.35246,-6.667706 15.33818,-1.80935 3.54859,3.457922 3.93925,9.042723 0.81639,11.670434 -1.16435,0.979734 -4.895,2.216817 -6.68523,2.216817 -0.82578,0 -0.46733,-1.740806 0.54758,-2.659284 2.52747,-2.287333 3.00307,-5.300232 1.07594,-6.816108 -3.62402,-2.850638 -8.1119,0.843167 -9.28247,7.640019 -0.28645,1.663257 -0.71823,3.272531 -0.95952,3.576144 -0.54751,0.688954 -0.34029,0.807105 3.17367,1.809864 8.40185,2.397539 13.49867,6.885685 20.35735,17.926225 4.92021,7.92014 8.2838,12.11412 10.07644,12.56405 2.00263,0.50261 5.09723,-1.76408 5.95446,-4.36145 0.83274,-2.52326 -0.1065,-4.73606 -4.12091,-9.70868 -4.04184,-5.00663 -4.92635,-6.69812 -4.92635,-9.42092 0,-4.358876 4.39546,-5.014446 11.21527,-1.672746 l 2.4186,1.185116 1.77766,-1.206326 c 2.88007,-1.95449 6.88425,-3.26273 10.18631,-3.3281 2.67217,-0.0528 3.1201,0.0738 3.97194,1.12356 1.73222,2.13472 0.56447,6.004916 -3.89249,12.900746 -1.04641,1.61898 -1.90255,3.48107 -1.90255,4.13799 0,0.65693 0.76469,2.5856 1.69932,4.28594 0.93463,1.70035 2.09973,4.69385 2.58913,6.65224 0.48939,1.95837 1.16901,3.74881 1.51026,3.97872 0.96433,0.64973 3.45557,0.10053 7.04139,-1.55227 3.02748,-1.39547 4.75323,-1.58219 4.75323,-0.5143 0,0.23797 -1.12338,1.38483 -2.49636,2.54858 -8.18837,6.94057 -17.6124,11.46667 -27.96395,13.43033 -5.52821,1.04869 -16.54439,0.93367 -22.08191,-0.23054 l 0,1.3e-4 0,-6e-4 0,-1.1e-4 z m 23.26046,-6.15589 c 4.26047,-1.08964 6.6598,-2.27431 8.71659,-4.30383 2.38848,-2.35681 2.26061,-4.24136 -0.72491,-10.68419 -3.56395,-7.69108 -3.38778,-10.21235 1.14112,-16.33119 l 2.23332,-3.01736 -2.8107,1.44723 c -1.54587,0.79598 -3.45261,1.88492 -4.23717,2.41984 -1.93155,1.31698 -2.53338,1.24513 -5.73923,-0.68535 -1.52006,-0.91532 -3.06997,-1.66423 -3.44429,-1.66423 -0.78163,0 -0.86837,-0.12901 3.10492,4.61898 3.38921,4.05005 4.42545,6.26511 4.75175,10.15719 0.2522,3.00828 0.15103,3.53158 -1.22189,6.3204 -2.71992,5.52493 -8.04689,8.01589 -13.36482,6.24956 -3.38471,-1.12422 -6.99121,-4.77394 -11.75169,-11.89253 -7.63308,-11.41411 -12.32401,-15.5606 -19.71954,-17.43077 -12.28367,-3.106286 -22.00056,2.87955 -25.56715,15.74999 -1.32088,4.76655 -1.85024,10.95346 -0.93703,10.95148 0.3645,-5.8e-4 2.90945,-0.45868 5.65544,-1.01754 3.2416,-0.65973 6.82717,-1.02298 10.22313,-1.03564 6.4056,-0.0239 10.41228,1.05309 16.54699,4.4478 7.03456,3.89267 11.951,5.54645 19.64208,6.60719 4.54041,0.6262 13.27874,0.17339 17.50308,-0.90703 z m -29.2648,-26.99425 c 0,0 0,0 0,0 z"
       id="path2818"
       sodipodi:nodetypes="csssssssssssssssssscccccccssssssssssssscccssssssssssscccccccsssssssssssssssccsccc" />
    <text
       xml:space="preserve"
       style="font-size:18.60043526px;font-style:normal;font-weight:normal;fill:#0000ff;fill-opacity:1;stroke:#0000ff;stroke-width:1.06288207;stroke-miterlimit:4;stroke-opacity:1;stroke-dasharray:none;display:inline;font-family:Bitstream Vera Sans"
       x="39.176102"
       y="58.330795"
       id="text3768"><tspan
         sodipodi:role="line"
         id="tspan3770"
         x="39.176102"
         y="58.330795"
         style="font-size:18.60043526px;font-weight:bold;fill:#0000ff;fill-opacity:1;stroke:#0000ff;stroke-width:1.06288207;stroke-miterlimit:4;stroke-opacity:1;stroke-dasharray:none;-inkscape-font-specification:Andale Mono Bold">Bilbao</tspan></text>
    <text
       id="text3772"
       y="105.22155"
       x="118.20219"
       style="font-size:16.40725899px;font-style:normal;font-weight:normal;text-align:center;text-anchor:middle;fill:#0000ff;fill-opacity:1;stroke:#0000ff;stroke-width:0.9375577;stroke-miterlimit:4;stroke-opacity:1;stroke-dasharray:none;display:inline;font-family:Bitstream Vera Sans"
       xml:space="preserve"><tspan
         style="font-size:16.40725899px;font-weight:bold;text-align:center;text-anchor:middle;fill:#0000ff;fill-opacity:1;stroke:#0000ff;stroke-width:0.9375577;stroke-miterlimit:4;stroke-opacity:1;stroke-dasharray:none;-inkscape-font-specification:Andale Mono Bold"
         y="105.22155"
         x="118.20219"
         id="tspan3774"
         sodipodi:role="line">maiatzak</tspan><tspan
         style="font-size:16.40725899px;font-weight:bold;text-align:center;text-anchor:middle;fill:#0000ff;fill-opacity:1;stroke:#0000ff;stroke-width:0.9375577;stroke-miterlimit:4;stroke-opacity:1;stroke-dasharray:none;-inkscape-font-specification:Andale Mono Bold"
         y="125.73062"
         x="118.20219"
         sodipodi:role="line"
         id="tspan3776">7-9</tspan><tspan
         style="font-size:16.40725899px;font-weight:bold;text-align:center;text-anchor:middle;fill:#0000ff;fill-opacity:1;stroke:#0000ff;stroke-width:0.9375577;stroke-miterlimit:4;stroke-opacity:1;stroke-dasharray:none;-inkscape-font-specification:Andale Mono Bold"
         y="146.2397"
         x="118.20219"
         sodipodi:role="line"
         id="tspan3778">mayo</tspan></text>
  </g>
  <g
     inkscape:groupmode="layer"
     id="layer4"
     inkscape:label="Capa#3"
     style="display:inline" />
</svg>
