<?xml version="1.0" encoding="UTF-8" standalone="no"?>
<!-- Created with Inkscape (http://www.inkscape.org/) -->

<svg
   xmlns:dc="http://purl.org/dc/elements/1.1/"
   xmlns:cc="http://creativecommons.org/ns#"
   xmlns:rdf="http://www.w3.org/1999/02/22-rdf-syntax-ns#"
   xmlns:svg="http://www.w3.org/2000/svg"
   xmlns="http://www.w3.org/2000/svg"
   xmlns:sodipodi="http://sodipodi.sourceforge.net/DTD/sodipodi-0.dtd"
   xmlns:inkscape="http://www.inkscape.org/namespaces/inkscape"
   id="svg2"
   version="1.1"
   inkscape:version="0.47pre4 r22446"
   width="380"
   height="384"
   sodipodi:docname="ak3002.svg"
   style="display:inline"
   inkscape:export-filename="/home/opositivo/Escritorio/logo_akademy/logo_akademy3/prop5e_th.png"
   inkscape:export-xdpi="74.010262"
   inkscape:export-ydpi="74.010262">
  <metadata
     id="metadata8">
    <rdf:RDF>
      <cc:Work
         rdf:about="">
        <dc:format>image/svg+xml</dc:format>
        <dc:type
           rdf:resource="http://purl.org/dc/dcmitype/StillImage" />
        <dc:title />
      </cc:Work>
    </rdf:RDF>
  </metadata>
  <defs
     id="defs6">
    <inkscape:perspective
       sodipodi:type="inkscape:persp3d"
       inkscape:vp_x="0 : 0.5 : 1"
       inkscape:vp_y="0 : 1000 : 0"
       inkscape:vp_z="1 : 0.5 : 1"
       inkscape:persp3d-origin="0.5 : 0.33333333 : 1"
       id="perspective10" />
    <inkscape:perspective
       id="perspective2833"
       inkscape:persp3d-origin="0.5 : 0.33333333 : 1"
       inkscape:vp_z="1 : 0.5 : 1"
       inkscape:vp_y="0 : 1000 : 0"
       inkscape:vp_x="0 : 0.5 : 1"
       sodipodi:type="inkscape:persp3d" />
    <inkscape:perspective
       id="perspective2856"
       inkscape:persp3d-origin="0.5 : 0.33333333 : 1"
       inkscape:vp_z="1 : 0.5 : 1"
       inkscape:vp_y="0 : 1000 : 0"
       inkscape:vp_x="0 : 0.5 : 1"
       sodipodi:type="inkscape:persp3d" />
    <inkscape:perspective
       id="perspective2878"
       inkscape:persp3d-origin="0.5 : 0.33333333 : 1"
       inkscape:vp_z="1 : 0.5 : 1"
       inkscape:vp_y="0 : 1000 : 0"
       inkscape:vp_x="0 : 0.5 : 1"
       sodipodi:type="inkscape:persp3d" />
    <inkscape:perspective
       id="perspective2878-9"
       inkscape:persp3d-origin="0.5 : 0.33333333 : 1"
       inkscape:vp_z="1 : 0.5 : 1"
       inkscape:vp_y="0 : 1000 : 0"
       inkscape:vp_x="0 : 0.5 : 1"
       sodipodi:type="inkscape:persp3d" />
    <inkscape:perspective
       id="perspective2878-8"
       inkscape:persp3d-origin="0.5 : 0.33333333 : 1"
       inkscape:vp_z="1 : 0.5 : 1"
       inkscape:vp_y="0 : 1000 : 0"
       inkscape:vp_x="0 : 0.5 : 1"
       sodipodi:type="inkscape:persp3d" />
    <inkscape:perspective
       id="perspective2918"
       inkscape:persp3d-origin="0.5 : 0.33333333 : 1"
       inkscape:vp_z="1 : 0.5 : 1"
       inkscape:vp_y="0 : 1000 : 0"
       inkscape:vp_x="0 : 0.5 : 1"
       sodipodi:type="inkscape:persp3d" />
    <inkscape:perspective
       id="perspective2941"
       inkscape:persp3d-origin="0.5 : 0.33333333 : 1"
       inkscape:vp_z="1 : 0.5 : 1"
       inkscape:vp_y="0 : 1000 : 0"
       inkscape:vp_x="0 : 0.5 : 1"
       sodipodi:type="inkscape:persp3d" />
    <inkscape:perspective
       id="perspective2963"
       inkscape:persp3d-origin="0.5 : 0.33333333 : 1"
       inkscape:vp_z="1 : 0.5 : 1"
       inkscape:vp_y="0 : 1000 : 0"
       inkscape:vp_x="0 : 0.5 : 1"
       sodipodi:type="inkscape:persp3d" />
    <inkscape:perspective
       id="perspective2985"
       inkscape:persp3d-origin="0.5 : 0.33333333 : 1"
       inkscape:vp_z="1 : 0.5 : 1"
       inkscape:vp_y="0 : 1000 : 0"
       inkscape:vp_x="0 : 0.5 : 1"
       sodipodi:type="inkscape:persp3d" />
    <inkscape:perspective
       id="perspective3007"
       inkscape:persp3d-origin="0.5 : 0.33333333 : 1"
       inkscape:vp_z="1 : 0.5 : 1"
       inkscape:vp_y="0 : 1000 : 0"
       inkscape:vp_x="0 : 0.5 : 1"
       sodipodi:type="inkscape:persp3d" />
    <inkscape:perspective
       id="perspective3029"
       inkscape:persp3d-origin="0.5 : 0.33333333 : 1"
       inkscape:vp_z="1 : 0.5 : 1"
       inkscape:vp_y="0 : 1000 : 0"
       inkscape:vp_x="0 : 0.5 : 1"
       sodipodi:type="inkscape:persp3d" />
    <inkscape:perspective
       id="perspective3051"
       inkscape:persp3d-origin="0.5 : 0.33333333 : 1"
       inkscape:vp_z="1 : 0.5 : 1"
       inkscape:vp_y="0 : 1000 : 0"
       inkscape:vp_x="0 : 0.5 : 1"
       sodipodi:type="inkscape:persp3d" />
    <inkscape:perspective
       id="perspective3073"
       inkscape:persp3d-origin="0.5 : 0.33333333 : 1"
       inkscape:vp_z="1 : 0.5 : 1"
       inkscape:vp_y="0 : 1000 : 0"
       inkscape:vp_x="0 : 0.5 : 1"
       sodipodi:type="inkscape:persp3d" />
    <inkscape:perspective
       id="perspective3168"
       inkscape:persp3d-origin="0.5 : 0.33333333 : 1"
       inkscape:vp_z="1 : 0.5 : 1"
       inkscape:vp_y="0 : 1000 : 0"
       inkscape:vp_x="0 : 0.5 : 1"
       sodipodi:type="inkscape:persp3d" />
    <inkscape:perspective
       id="perspective3199"
       inkscape:persp3d-origin="0.5 : 0.33333333 : 1"
       inkscape:vp_z="1 : 0.5 : 1"
       inkscape:vp_y="0 : 1000 : 0"
       inkscape:vp_x="0 : 0.5 : 1"
       sodipodi:type="inkscape:persp3d" />
    <inkscape:perspective
       id="perspective2946"
       inkscape:persp3d-origin="0.5 : 0.33333333 : 1"
       inkscape:vp_z="1 : 0.5 : 1"
       inkscape:vp_y="0 : 1000 : 0"
       inkscape:vp_x="0 : 0.5 : 1"
       sodipodi:type="inkscape:persp3d" />
    <inkscape:perspective
       id="perspective3351"
       inkscape:persp3d-origin="0.5 : 0.33333333 : 1"
       inkscape:vp_z="1 : 0.5 : 1"
       inkscape:vp_y="0 : 1000 : 0"
       inkscape:vp_x="0 : 0.5 : 1"
       sodipodi:type="inkscape:persp3d" />
    <inkscape:perspective
       id="perspective3004"
       inkscape:persp3d-origin="0.5 : 0.33333333 : 1"
       inkscape:vp_z="1 : 0.5 : 1"
       inkscape:vp_y="0 : 1000 : 0"
       inkscape:vp_x="0 : 0.5 : 1"
       sodipodi:type="inkscape:persp3d" />
    <inkscape:perspective
       id="perspective4196"
       inkscape:persp3d-origin="0.5 : 0.33333333 : 1"
       inkscape:vp_z="1 : 0.5 : 1"
       inkscape:vp_y="0 : 1000 : 0"
       inkscape:vp_x="0 : 0.5 : 1"
       sodipodi:type="inkscape:persp3d" />
    <inkscape:perspective
       id="perspective2844"
       inkscape:persp3d-origin="0.5 : 0.33333333 : 1"
       inkscape:vp_z="1 : 0.5 : 1"
       inkscape:vp_y="0 : 1000 : 0"
       inkscape:vp_x="0 : 0.5 : 1"
       sodipodi:type="inkscape:persp3d" />
    <inkscape:perspective
       id="perspective2843"
       inkscape:persp3d-origin="0.5 : 0.33333333 : 1"
       inkscape:vp_z="1 : 0.5 : 1"
       inkscape:vp_y="0 : 1000 : 0"
       inkscape:vp_x="0 : 0.5 : 1"
       sodipodi:type="inkscape:persp3d" />
    <inkscape:perspective
       id="perspective2843-0"
       inkscape:persp3d-origin="0.5 : 0.33333333 : 1"
       inkscape:vp_z="1 : 0.5 : 1"
       inkscape:vp_y="0 : 1000 : 0"
       inkscape:vp_x="0 : 0.5 : 1"
       sodipodi:type="inkscape:persp3d" />
    <inkscape:perspective
       id="perspective2857"
       inkscape:persp3d-origin="0.5 : 0.33333333 : 1"
       inkscape:vp_z="1 : 0.5 : 1"
       inkscape:vp_y="0 : 1000 : 0"
       inkscape:vp_x="0 : 0.5 : 1"
       sodipodi:type="inkscape:persp3d" />
    <inkscape:perspective
       id="perspective3655"
       inkscape:persp3d-origin="0.5 : 0.33333333 : 1"
       inkscape:vp_z="1 : 0.5 : 1"
       inkscape:vp_y="0 : 1000 : 0"
       inkscape:vp_x="0 : 0.5 : 1"
       sodipodi:type="inkscape:persp3d" />
    <inkscape:perspective
       id="perspective3700"
       inkscape:persp3d-origin="0.5 : 0.33333333 : 1"
       inkscape:vp_z="1 : 0.5 : 1"
       inkscape:vp_y="0 : 1000 : 0"
       inkscape:vp_x="0 : 0.5 : 1"
       sodipodi:type="inkscape:persp3d" />
    <inkscape:perspective
       id="perspective3750"
       inkscape:persp3d-origin="0.5 : 0.33333333 : 1"
       inkscape:vp_z="1 : 0.5 : 1"
       inkscape:vp_y="0 : 1000 : 0"
       inkscape:vp_x="0 : 0.5 : 1"
       sodipodi:type="inkscape:persp3d" />
  </defs>
  <sodipodi:namedview
     pagecolor="#ffffff"
     bordercolor="#666666"
     borderopacity="1"
     objecttolerance="10"
     gridtolerance="10"
     guidetolerance="10"
     inkscape:pageopacity="0"
     inkscape:pageshadow="2"
     inkscape:window-width="1680"
     inkscape:window-height="973"
     id="namedview4"
     showgrid="false"
     inkscape:zoom="1.7383042"
     inkscape:cx="336.31122"
     inkscape:cy="169.84885"
     inkscape:window-x="0"
     inkscape:window-y="25"
     inkscape:window-maximized="1"
     inkscape:current-layer="layer7" />
  <g
     inkscape:groupmode="layer"
     id="layer4"
     inkscape:label="Capa#3"
     style="display:none">
    <text
       xml:space="preserve"
       style="font-size:18.23028946px;font-style:normal;font-weight:normal;text-align:center;text-anchor:middle;fill:#0000ff;fill-opacity:1;stroke:#0000ff;stroke-width:1.04173076;stroke-miterlimit:4;stroke-opacity:1;stroke-dasharray:none;display:inline;font-family:Bitstream Vera Sans"
       x="66.236191"
       y="336.35559"
       id="text3672-8"><tspan
         sodipodi:role="line"
         x="66.236191"
         y="336.35559"
         style="font-size:18.23028946px;font-weight:bold;text-align:center;text-anchor:middle;fill:#0000ff;fill-opacity:1;stroke:#0000ff;stroke-width:1.04173076;stroke-miterlimit:4;stroke-opacity:1;stroke-dasharray:none;-inkscape-font-specification:Andale Mono Bold"
         id="tspan3678-1">maiatza</tspan></text>
    <text
       id="text3717"
       y="336.35559"
       x="66.236191"
       style="font-size:18.23028946px;font-style:normal;font-weight:normal;text-align:center;text-anchor:middle;fill:#0000ff;fill-opacity:1;stroke:#0000ff;stroke-width:1.04173076;stroke-miterlimit:4;stroke-opacity:1;stroke-dasharray:none;display:inline;font-family:Bitstream Vera Sans"
       xml:space="preserve"><tspan
         id="tspan3719"
         style="font-size:18.23028946px;font-weight:bold;text-align:center;text-anchor:middle;fill:#0000ff;fill-opacity:1;stroke:#0000ff;stroke-width:1.04173076;stroke-miterlimit:4;stroke-opacity:1;stroke-dasharray:none;-inkscape-font-specification:Andale Mono Bold"
         y="336.35559"
         x="66.236191"
         sodipodi:role="line">maiatza</tspan></text>
  </g>
  <g
     inkscape:groupmode="layer"
     id="layer8"
     inkscape:label="Fondo"
     style="display:inline">
    <path
       id="path2878"
       d="m 18.043186,362.62089 0,-97.15585 41.146004,0 c 3.91392,27.03198 25.359715,48.31172 52.28327,51.59461 l 0,45.56124 -93.429274,0 z"
       style="fill:#0049ff;fill-opacity:0.23529412;fill-rule:evenodd;stroke:#0000eb;stroke-width:0.99258322px;stroke-linecap:butt;stroke-linejoin:miter;stroke-opacity:0.41176471;display:inline" />
  </g>
  <g
     inkscape:groupmode="layer"
     id="layer1"
     inkscape:label="Azul"
     style="display:inline">
    <path
       style="fill:#0049ff;fill-opacity:0.23529412;fill-rule:evenodd;stroke:#0000eb;stroke-width:0.99369913px;stroke-linecap:butt;stroke-linejoin:miter;stroke-opacity:0.41176471"
       d="m 17.369769,16.418743 0,96.678157 41.442329,0 C 62.754205,86.197837 84.35445,65.022717 111.4719,61.755971 l 0,-45.337228 -94.102131,0 z"
       id="rect2823" />
    <path
       style="fill:#0049ff;fill-opacity:0.23529412;fill-rule:evenodd;stroke:#0000eb;stroke-width:0.97070032px;stroke-linecap:butt;stroke-linejoin:miter;stroke-opacity:0.41176471;display:inline"
       d="m 264.54785,18.708337 0,44.782616 c 24.94174,4.437588 44.48423,24.449708 48.17432,49.617447 l 43.7893,0 0,-94.400063 -91.96362,0 z"
       id="rect2823-3" />
    <path
       style="fill:#0049ff;fill-opacity:0.23529412;fill-rule:evenodd;stroke:#0000eb;stroke-width:1px;stroke-linecap:butt;stroke-linejoin:miter;stroke-opacity:0.41176471;display:inline"
       d="m 310.9375,143.1875 c -7.34957,20.10545 -24.89411,35.23105 -46.3125,39.09375 l 0,15.21875 c 23.20951,3.85859 41.96,20.94709 48.40625,43.3125 l 45.9375,0 0,-97.625 -48.03125,0 z"
       id="rect2823-3-8-5-6-1" />
    <path
       style="fill:#0049ff;fill-opacity:0.23529412;fill-rule:evenodd;stroke:#0000eb;stroke-width:1px;stroke-linecap:butt;stroke-linejoin:miter;stroke-opacity:0.41176471;display:inline"
       d="m 143.1875,15.46875 0,50.46875 c 18.85639,8.310938 32.6975,25.96956 35.78125,47.15625 l 14.6875,0 c 3.509,-24.117846 20.99549,-43.64093 43.90625,-50.03125 l 0,-47.59375 -94.375,0 z"
       id="rect2823-3-8-5-6-1-1" />
    <path
       id="path2880"
       d="m 264.5625,363.09375 0,-46.3125 c 25.59574,-4.58919 45.65065,-25.28497 49.4375,-51.3125 l 44.9375,0 0,97.625 -94.375,0 z"
       style="fill:#0049ff;fill-opacity:0.23529412;fill-rule:evenodd;stroke:#0000eb;stroke-width:1px;stroke-linecap:butt;stroke-linejoin:miter;stroke-opacity:0.41176471;display:inline" />
    <path
       id="path2882"
       d="m 233.5625,363.09375 0,-50.46875 c -18.85639,-8.31094 -32.6975,-25.96956 -35.78125,-47.15625 l -14.6875,0 c -3.509,24.11785 -20.99549,43.64093 -43.90625,50.03125 l 0,47.59375 94.375,0 z"
       style="fill:#0049ff;fill-opacity:0.23529412;fill-rule:evenodd;stroke:#0000eb;stroke-width:1px;stroke-linecap:butt;stroke-linejoin:miter;stroke-opacity:0.41176471;display:inline" />
    <path
       id="path2884"
       d="m 64.65625,143.1875 c 7.34957,20.10545 24.89411,35.23105 46.3125,39.09375 l 0,15.21875 c -23.20951,3.85859 -41.96,20.94709 -48.40625,43.3125 l -45.9375,0 0,-97.625 48.03125,0 z"
       style="fill:#0049ff;fill-opacity:0.23529412;fill-rule:evenodd;stroke:#0000eb;stroke-width:1px;stroke-linecap:butt;stroke-linejoin:miter;stroke-opacity:0.41176471;display:inline" />
    <text
       id="text3717-8"
       y="349.94803"
       x="64.319992"
       style="font-size:17.31877518px;font-style:normal;font-weight:normal;text-align:center;text-anchor:middle;fill:#2d0a3c;fill-opacity:1;stroke:#2d0a3c;stroke-width:0.98964423;stroke-miterlimit:4;stroke-opacity:1;stroke-dasharray:none;display:inline;font-family:Bitstream Vera Sans"
       xml:space="preserve"><tspan
         id="tspan3719-9"
         style="font-size:17.31877518px;font-weight:bold;text-align:center;text-anchor:middle;fill:#2d0a3c;fill-opacity:1;stroke:#2d0a3c;stroke-width:0.98964423;stroke-miterlimit:4;stroke-opacity:1;stroke-dasharray:none;-inkscape-font-specification:Andale Mono Bold"
         y="349.94803"
         x="64.319992"
         sodipodi:role="line">maiatzak</tspan></text>
    <text
       xml:space="preserve"
       style="font-size:18.23028946px;font-style:normal;font-weight:normal;text-align:center;text-anchor:middle;fill:#2d0a3c;fill-opacity:1;stroke:#2d0a3c;stroke-width:1.04173076;stroke-miterlimit:4;stroke-opacity:1;stroke-dasharray:none;display:inline;font-family:Bitstream Vera Sans"
       x="310.27393"
       y="350.28784"
       id="text3795"><tspan
         sodipodi:role="line"
         x="310.27393"
         y="350.28784"
         style="font-size:18.23028946px;font-weight:bold;text-align:center;text-anchor:middle;fill:#2d0a3c;fill-opacity:1;stroke:#2d0a3c;stroke-width:1.04173076;stroke-miterlimit:4;stroke-opacity:1;stroke-dasharray:none;-inkscape-font-specification:Andale Mono Bold"
         id="tspan3797">mayo</tspan></text>
  </g>
  <g
     style="display:inline"
     inkscape:label="Circulos"
     id="g3226"
     inkscape:groupmode="layer">
    <path
       style="fill:#0049ff;fill-opacity:0.23529412;fill-rule:evenodd;stroke:#0000eb;stroke-width:0.88644564px;stroke-linecap:butt;stroke-linejoin:miter;stroke-opacity:0.41176471"
       d="m 124.875,88.21875 c -21.8232,0 -39.5,16.95043 -39.5,37.875 0,18.92084 14.469581,34.60771 33.375,37.4375 7.6339,-20.81989 24.18173,-37.24985 44.9375,-44.625 -3.50784,-17.48093 -19.55719,-30.6875 -38.8125,-30.6875 z"
       id="path3228" />
    <path
       style="fill:#0049ff;fill-opacity:0.23529412;fill-rule:evenodd;stroke:#0000eb;stroke-width:0.88644564px;stroke-linecap:butt;stroke-linejoin:miter;stroke-opacity:0.41176471"
       d="m 254.875,88.21875 c -19.67428,0 -35.97751,13.79668 -39,31.84375 19.42668,7.90038 34.79689,23.86625 42,43.8125 20.418,-1.47354 36.53125,-17.82697 36.53125,-37.78125 0,-20.92457 -17.70805,-37.875 -39.53125,-37.875 z"
       id="path3230" />
    <text
       id="text3734-2"
       y="262.55099"
       x="82.469246"
       style="font-size:22.96350098px;font-style:normal;font-weight:normal;fill:#7d0a3c;fill-opacity:1;stroke:#7d0a3c;stroke-width:1.31220007;stroke-miterlimit:4;stroke-opacity:1;stroke-dasharray:none;display:inline;font-family:Bitstream Vera Sans"
       xml:space="preserve"><tspan
         style="font-size:22.96350098px;font-weight:bold;fill:#7d0a3c;fill-opacity:1;stroke:#7d0a3c;stroke-width:1.31220007;stroke-miterlimit:4;stroke-opacity:1;stroke-dasharray:none;-inkscape-font-specification:Andale Mono Bold"
         y="262.55099"
         x="82.469246"
         id="tspan3736-2"
         sodipodi:role="line">Bilbao</tspan></text>
    <text
       id="text3684"
       y="353.34982"
       x="186.59766"
       style="font-size:24.50960922px;font-style:normal;font-weight:normal;text-align:center;text-anchor:middle;fill:#2d0a3c;fill-opacity:1;stroke:#2d0a3c;stroke-width:1.40054905;stroke-miterlimit:4;stroke-opacity:1;stroke-dasharray:none;display:inline;font-family:Bitstream Vera Sans"
       xml:space="preserve"><tspan
         id="tspan3686"
         style="font-size:24.50960922px;font-weight:bold;text-align:center;text-anchor:middle;fill:#2d0a3c;fill-opacity:1;stroke:#2d0a3c;stroke-width:1.40054905;stroke-miterlimit:4;stroke-opacity:1;stroke-dasharray:none;-inkscape-font-specification:Andale Mono Bold"
         y="353.34982"
         x="186.59766"
         sodipodi:role="line">7-8-9</tspan></text>
  </g>
  <g
     inkscape:groupmode="layer"
     id="layer3"
     inkscape:label="Centro"
     style="display:inline">
    <path
       sodipodi:type="arc"
       style="fill:#0049ff;fill-opacity:0.23529412;fill-rule:evenodd;stroke:#0000eb;stroke-width:1px;stroke-linecap:butt;stroke-linejoin:miter;stroke-opacity:0.41176471;display:inline"
       id="path2821-96"
       sodipodi:cx="196.06779"
       sodipodi:cy="194.03391"
       sodipodi:rx="46.372883"
       sodipodi:ry="41.084747"
       d="m 242.44068,194.03391 a 46.372883,41.084747 0 1 1 -92.74577,0 46.372883,41.084747 0 1 1 92.74577,0 z"
       transform="matrix(0.99918667,0,0,1.1574978,-7.6980458,-32.593818)" />
  </g>
  <g
     inkscape:groupmode="layer"
     id="layer7"
     inkscape:label="Capa#2"
     style="display:inline">
    <path
       style="fill:#2d0a3c;fill-opacity:1;stroke:#ffffff;stroke-width:2;stroke-miterlimit:4;stroke-opacity:1;stroke-dasharray:none"
       d="m 115.99778,194.59011 c -0.65638,-0.62919 -1.13185,-1.95562 -1.78784,-4.98749 -0.4915,-2.27168 -1.45051,-6.6433 -2.1311,-9.71471 l -1.23748,-5.58441 -3.38097,-1.25069 c -1.8595,-0.68787 -4.10539,-1.60498 -4.99082,-2.038 -0.88546,-0.43303 -1.75504,-0.78733 -1.93245,-0.78733 -0.1774,0 -4.381036,2.3697 -9.341408,5.26597 -5.303685,3.09673 -9.43028,5.26754 -10.017509,5.26981 -0.76758,0.003 -2.334819,-1.28733 -6.773466,-5.57652 -3.754971,-3.6285 -5.774838,-5.85671 -5.774838,-6.37046 0,-0.43455 1.555541,-3.04734 3.456787,-5.80619 1.901238,-2.75885 4.547013,-6.63375 5.879483,-8.61087 l 2.422661,-3.59475 -1.532095,-3.40674 c -0.842704,-1.8737 -1.815603,-4.34142 -2.162058,-5.48383 l -0.629868,-2.07708 -10.098275,-2.35164 c -5.554009,-1.29341 -10.407459,-2.6123 -10.7854,-2.93093 -0.612753,-0.51656 -0.687162,-1.42111 -0.687162,-8.35371 0,-5.86717 0.127847,-7.94206 0.521226,-8.45776 0.400045,-0.52449 2.951973,-1.14635 10.979172,-2.67547 13.370311,-1.16616 9.930962,-3.96605 15.723121,-10.76304 0.343538,-0.89023 -0.202463,-1.92945 -5.339534,-10.16319 -3.147207,-5.04438 -5.82534,-9.51884 -5.95134,-9.94326 7.935591,-6.89028 -4.788046,4.67314 5.677537,-5.26405 2.902024,-2.78769 5.578818,-5.06854 5.948396,-5.06854 0.369614,0 4.840181,2.62551 9.934613,5.83445 5.094467,3.20894 9.407967,5.83443 9.585617,5.83443 0.17768,0 1.66155,-0.59285 3.29755,-1.31746 1.636,-0.7246 3.25119,-1.31745 3.58928,-1.31745 0.52731,0 0.61474,0.71787 0.61474,5.04758 l 0,5.04759 -2.9114,1.53172 c -5.90899,3.10884 -10.805903,7.60148 -14.512338,13.31419 -2.047629,3.15602 -4.328931,8.37973 -4.008837,9.17936 -1.048736,2.69165 -0.751891,6.97916 -0.729571,10.29654 0.02588,5.65343 0.832887,9.65941 2.891235,14.35568 4.023749,9.18056 12.369071,16.82589 22.109421,20.25493 4.78878,1.68586 7.02138,2.03587 13.16098,2.06319 9.47057,0.73924 14.16533,-0.20863 24.02741,-6.73045 3.12775,-2.30714 8.62575,-8.03226 10.6071,-11.12006 4.38017,3.78418 15.91165,17.99105 20.43832,23.20956 0,0.69928 -10.48232,11.04167 -11.19103,11.04167 -0.18141,0 -4.52216,-2.63283 -9.64615,-5.85073 l -9.42708,-5.42606 c -3.62317,1.13585 -6.73758,3.42792 -9.03344,4.17834 -0.97278,0.2794 -1.75446,0.77756 -1.94835,1.24171 -0.17809,0.42631 -1.31445,4.92511 -2.52523,9.99731 -1.89154,7.92398 -2.34052,9.34138 -3.18954,10.06911 -0.95308,0.8169 -1.25919,0.84691 -8.64098,0.84691 -7.4399,0 -7.67781,-0.0239 -8.54709,-0.85718 z"
       id="path2836"
       sodipodi:nodetypes="cscccsssssssccccccsssccsccssssscccsccssccccscccssssc" />
    <path
       sodipodi:nodetypes="cscccsssssssssscccccccc"
       id="path3722"
       d="m 141.01102,146.02475 c -0.86489,-1.20291 -4.96356,-6.94782 -9.10814,-12.76646 l -7.53559,-10.57937 -0.0601,11.18504 c -0.0461,8.57599 -0.12721,11.23814 -0.3478,11.41262 -0.36553,0.28912 -14.11512,2.31632 -15.09302,2.22527 l -0.72964,-0.0679 -0.0588,-29.54988 c -0.0405,-20.3624 0.0167,-29.62272 0.18397,-29.78409 0.36249,-0.34964 15.30701,-1.68773 15.83348,-1.41768 0.40528,0.20786 0.41673,0.72638 0.26343,11.925 -0.14111,10.30732 -0.11949,11.6678 0.18087,11.37428 0.29616,-0.28941 9.03127,-11.48264 15.65452,-20.05982 1.20362,-1.55866 2.31951,-2.83392 2.4798,-2.83392 0.44149,0 16.08618,3.50698 16.35489,3.66617 0.6012,0.35619 -0.0508,1.37887 -3.87106,6.07187 l -15.82218,19.51583 2.44098,3.26685 c 5.76432,7.63751 11.45972,15.20987 16.44611,23.40519 -4.10875,1.90109 -9.12274,3.34432 -15.33575,5.19813 -0.16691,0 -1.01109,-0.98419 -1.876,-2.1871 l 3e-5,1e-5 0,0 z"
       style="fill:#2d0a3c;fill-opacity:1;stroke:#ffffff;stroke-width:1.18098009000000004;stroke-miterlimit:4;stroke-opacity:1;stroke-dasharray:none" />
    <text
       id="text3734"
       y="80.445229"
       x="215.81116"
       style="font-size:45.65795897999999653px;font-style:normal;font-weight:normal;fill:#2d0a3c;fill-opacity:1;stroke:#2d0a3c;stroke-width:2.20000004999999987;stroke-miterlimit:4;stroke-opacity:1;stroke-dasharray:none;display:inline;font-family:Bitstream Vera Sans"
       xml:space="preserve"><tspan
         style="font-size:45.65795897999999653px;font-weight:bold;fill:#2d0a3c;fill-opacity:1;stroke:#2d0a3c;stroke-width:2.20000004999999987;stroke-miterlimit:4;stroke-opacity:1;stroke-dasharray:none;-inkscape-font-specification:Andale Mono Bold"
         y="80.445229"
         x="215.81116"
         id="tspan3736"
         sodipodi:role="line">2010</tspan></text>
    <path
       style="fill:#7d0a3c;fill-opacity:1;stroke:#ffffff;stroke-width:2.66200018;stroke-miterlimit:4;stroke-opacity:1;stroke-dasharray:none"
       d="m 271.15869,300.43447 c -8.48705,-1.78432 -15.27975,-4.27474 -23.43319,-8.59131 -8.9445,-4.73539 -13.55275,-6.02664 -21.36551,-5.98661 -9.86274,0.0506 -22.22195,3.3402 -37.12446,9.88152 -3.46271,1.51993 -6.68349,2.92651 -7.15733,3.12578 -0.57286,0.24093 -0.86108,-0.29743 -0.86031,-1.60676 6e-4,-1.56607 0.60054,-2.34766 2.92918,-3.81883 6.2943,-3.97661 6.51606,-4.4804 6.92208,-15.72511 0.4077,-11.29244 1.75156,-17.5396 5.53409,-25.72636 6.89,-14.91246 18.12877,-23.20526 33.03011,-24.37205 4.09992,-0.321 5.17848,-0.61402 4.64157,-1.26102 -0.38474,-0.46356 -1.63496,-4.49575 -2.77832,-8.96045 -2.38898,-9.32907 -3.53857,-11.62241 -6.53998,-13.04665 -7.6641,-3.63689 -17.91068,9.75819 -12.61473,16.4909 1.36087,1.73008 1.76152,1.85373 4.65215,1.43587 5.50745,-0.79613 5.91989,-0.77502 5.91989,0.30294 0,1.35801 -7.84233,5.31335 -11.67413,5.88795 -3.65349,0.54788 -7.40609,-1.00426 -8.56208,-3.54136 -2.15954,-4.73964 0.16756,-14.21706 5.1541,-20.99076 4.52701,-6.14952 6.71408,-9.65118 15.63534,-8.88179 l 3.74794,0.68336 2.64853,1.34268 2.86974,2.92916 c 1.67485,2.09381 3.77413,4.5859 4.87961,6.61082 l 2.01,3.68167 2.26912,-3.15965 c 6.19411,-8.62514 15.00545,-9.66457 22.23206,-2.62256 5.14354,5.01209 5.70978,13.10704 1.18331,16.9158 -1.68767,1.42009 -7.0951,3.21318 -9.68995,3.21318 -1.19695,0 -0.67739,-2.52324 0.7937,-3.85453 3.66346,-3.31539 4.35281,-7.68246 1.55952,-9.87965 -5.25287,-4.1319 -11.75786,1.22211 -13.45454,11.0739 -0.41522,2.41079 -1.04106,4.74338 -1.39079,5.18346 -0.79361,0.99861 -0.49324,1.16985 4.60009,2.62332 12.17814,3.47512 19.56576,9.98052 29.50715,25.98332 7.13165,11.47993 12.00704,17.55892 14.60538,18.21109 2.90275,0.72852 7.38823,-2.55696 8.63075,-6.32176 1.20701,-3.65734 -0.15428,-6.86471 -5.97309,-14.07233 -5.85847,-7.25688 -7.14054,-9.70865 -7.14054,-13.65523 0,-6.31802 6.37104,-7.26823 16.25608,-2.42458 l 3.50566,1.71777 2.57664,-1.74852 c 4.17454,-2.83295 9.97843,-4.72918 14.76465,-4.82392 3.87319,-0.0763 4.52246,0.10681 5.75715,1.62854 2.51078,3.09418 0.81818,8.7039 -5.642,18.6991 -1.51673,2.34664 -2.75767,5.04567 -2.75767,5.99785 0,0.9522 1.10838,3.74773 2.4631,6.21231 1.35469,2.46459 3.04346,6.80353 3.75281,9.64213 0.70936,2.83858 1.69445,5.43375 2.18908,5.767 1.39776,0.94176 5.0087,0.14567 10.20622,-2.24994 4.38819,-2.0227 6.88962,-2.29332 6.88962,-0.74546 0,0.34493 -1.62832,2.00724 -3.6184,3.69405 -11.8687,10.06007 -25.52845,16.62046 -40.53258,19.46671 -8.01293,1.52006 -23.98044,1.35332 -32.00682,-0.33414 l 0,1.8e-4 0,-8.7e-4 0,-1.6e-4 z m 33.71506,-8.92272 c 6.17538,-1.57938 9.6531,-3.2965 12.63435,-6.23821 3.46198,-3.41612 3.27666,-6.14768 -1.05073,-15.48631 -5.16581,-11.14791 -4.91044,-14.80238 1.654,-23.67139 l 3.23711,-4.37356 -4.07398,2.09773 c -2.24068,1.15373 -5.00443,2.73212 -6.14161,3.50746 -2.79971,1.90891 -3.67204,1.80474 -8.31877,-0.9934 -2.20327,-1.3267 -4.44981,-2.4122 -4.99239,-2.4122 -1.13293,0 -1.25865,-0.18702 4.50048,6.69499 4.91253,5.87039 6.4145,9.08103 6.88744,14.72245 0.36557,4.36037 0.21893,5.11886 -1.77108,9.16116 -3.94241,8.00814 -11.66363,11.6187 -19.37175,9.05847 -4.90599,-1.62951 -10.13346,-6.91963 -17.03358,-17.23773 -11.06384,-16.54428 -17.86316,-22.55444 -28.58265,-25.26519 -17.80471,-4.50245 -31.88893,4.17379 -37.05855,22.82895 -1.91456,6.90894 -2.68187,15.87661 -1.3582,15.87374 0.52833,-8.6e-4 4.21714,-0.66485 8.19733,-1.47489 4.69859,-0.95625 9.89571,-1.48277 14.81803,-1.5011 9.28466,-0.0348 15.09216,1.52639 23.98417,6.44689 10.1963,5.64226 17.32249,8.03936 28.47039,9.57684 6.58115,0.90765 19.24699,0.25135 25.36999,-1.3147 z m -42.41811,-39.12707 c 0,0 0,0 0,0 z"
       id="path2818"
       sodipodi:nodetypes="csssssssssssssssssscccccccssssssssssssscccssssssssssscccccccsssssssssssssssccsccc" />
    <text
       xml:space="preserve"
       style="font-size:35px;font-style:normal;font-weight:normal;fill:#ffffff;fill-opacity:1;stroke:#2d0a3c;stroke-width:2;stroke-miterlimit:4;stroke-opacity:1;stroke-dasharray:none;display:inline;font-family:Bitstream Vera Sans"
       x="79.669838"
       y="126.21665"
       id="text2877"><tspan
         sodipodi:role="line"
         id="tspan2879"
         x="79.669838"
         y="126.21665"
         style="font-size:35px;font-weight:bold;fill:#ffffff;fill-opacity:1;stroke:#2d0a3c;stroke-width:2;stroke-miterlimit:4;stroke-opacity:1;stroke-dasharray:none;-inkscape-font-specification:Andale Mono Bold">a    ademy-es</tspan></text>
  </g>
</svg>
